<!DOCTYPE svg PUBLIC "-//W3C//DTD SVG 1.1//EN" "http://www.w3.org/Graphics/SVG/1.1/DTD/svg11.dtd">
<svg style="stroke-linecap:square;" xmlns="http://www.w3.org/2000/svg" xmlns:xlink="http://www.w3.org/1999/xlink" width="1269" height="490">
<defs><clipPath id="clip-0"><path d="M 0 0 L 1269 0 L 1269 490 L 0 490 L 0 0 M 0 0"/></clipPath>
<clipPath id="clip-1"><path d="M 643.56 198.44 L 643.56 1467.44 L 153.56 1467.44 L 153.56 198.44 L 643.56 198.44 M 643.56 198.44"/></clipPath>
<clipPath id="clip-2"><path d="M 895.85 -53.85 L 895.85 1215.15 L 405.85 1215.15 L 405.85 -53.85 L 895.85 -53.85 M 895.85 -53.85"/></clipPath>
<clipPath id="clip-3"><path d="M 1148.15 -306.15 L 1148.15 962.85 L 658.15 962.85 L 658.15 -306.15 L 1148.15 -306.15 M 1148.15 -306.15"/></clipPath>
<clipPath id="clip-4"><path d="M 1400.44 -558.44 L 1400.44 710.56 L 910.44 710.56 L 910.44 -558.44 L 1400.44 -558.44 M 1400.44 -558.44"/></clipPath>
<clipPath id="clip-5"><path d="M 232 187 L 232 1456 L -258 1456 L -258 187 L 232 187 M 232 187"/></clipPath>
<clipPath id="clip-6"><path d="M 57 10 L 57 409 L 1145 409 L 1145 10 M 57 10"/></clipPath>
</defs>
<rect x="0" y="0" width="1269" height="490" style="fill: rgb(255,255,255);fill-opacity: 1" transform="matrix(1,0,0,1,0,0)" clip-path="url(#clip-0)"/><rect x="1165" y="153" width="94" height="184" style="fill: rgb(255,255,255);fill-opacity: 1" transform="matrix(1,0,0,1,0,0)" clip-path="url(#clip-0)"/><g style="stroke-width: 1.0;stroke: rgb(192,192,192);stroke-opacity: 1; fill: none" transform="matrix(1,0,0,1,0,0)" clip-path="url(#clip-0)"><path d="M 1165 158 L 1165 332 C 1165 334.76 1167.24 337 1170 337 L 1254 337 C 1256.76 337 1259 334.76 1259 332 L 1259 158 C 1259 155.24 1256.76 153 1254 153 L 1170 153 C 1167.24 153 1165 155.24 1165 158 M 1165 158"/></g><g style="fill: rgb(255,0,0);fill-opacity: 1; stroke: none" transform="matrix(1,0,0,1,0,0)" clip-path="url(#clip-0)"><path d="M 1169 159 L 1175 159 L 1175 169 L 1169 169 L 1169 159 M 1169 159"/></g><g transform="matrix(1,0,0,1,0,0)"><text x="1179" y="167.48" style="fill: rgb(39,75,109); font-family: Lucida Sans; font-size: 11px; font-weight: bold; " text-rendering="auto" clip-path="url(#clip-0)">motivé</text></g><g style="fill: rgb(0,0,255);fill-opacity: 1; stroke: none" transform="matrix(1,0,0,1,0,0)" clip-path="url(#clip-0)"><path d="M 1169 177 L 1175 177 L 1175 187 L 1169 187 L 1169 177 M 1169 177"/></g><g transform="matrix(1,0,0,1,0,0)"><text x="1179" y="185.48" style="fill: rgb(39,75,109); font-family: Lucida Sans; font-size: 11px; font-weight: bold; " text-rendering="auto" clip-path="url(#clip-0)">discuter</text></g><g style="fill: rgb(0,139,0);fill-opacity: 1; stroke: none" transform="matrix(1,0,0,1,0,0)" clip-path="url(#clip-0)"><path d="M 1169 195 L 1175 195 L 1175 205 L 1169 205 L 1169 195 M 1169 195"/></g><g transform="matrix(1,0,0,1,0,0)"><text x="1179" y="203.48" style="fill: rgb(39,75,109); font-family: Lucida Sans; font-size: 11px; font-weight: bold; " text-rendering="auto" clip-path="url(#clip-0)">prêt</text></g><g style="fill: rgb(255,215,0);fill-opacity: 1; stroke: none" transform="matrix(1,0,0,1,0,0)" clip-path="url(#clip-0)"><path d="M 1169 213 L 1175 213 L 1175 223 L 1169 223 L 1169 213 M 1169 213"/></g><g transform="matrix(1,0,0,1,0,0)"><text x="1179" y="221.48" style="fill: rgb(39,75,109); font-family: Lucida Sans; font-size: 11px; font-weight: bold; " text-rendering="auto" clip-path="url(#clip-0)">étudiant</text></g><g style="fill: rgb(255,20,147);fill-opacity: 1; stroke: none" transform="matrix(1,0,0,1,0,0)" clip-path="url(#clip-0)"><path d="M 1169 231 L 1175 231 L 1175 241 L 1169 241 L 1169 231 M 1169 231"/></g><g transform="matrix(1,0,0,1,0,0)"><text x="1179" y="239.48" style="fill: rgb(39,75,109); font-family: Lucida Sans; font-size: 11px; font-weight: bold; " text-rendering="auto" clip-path="url(#clip-0)">pêche</text></g><g style="fill: rgb(178,34,34);fill-opacity: 1; stroke: none" transform="matrix(1,0,0,1,0,0)" clip-path="url(#clip-0)"><path d="M 1169 249 L 1175 249 L 1175 259 L 1169 259 L 1169 249 M 1169 249"/></g><g transform="matrix(1,0,0,1,0,0)"><text x="1179" y="257.48" style="fill: rgb(39,75,109); font-family: Lucida Sans; font-size: 11px; font-weight: bold; " text-rendering="auto" clip-path="url(#clip-0)">ravi</text></g><g style="fill: rgb(0,191,255);fill-opacity: 1; stroke: none" transform="matrix(1,0,0,1,0,0)" clip-path="url(#clip-0)"><path d="M 1169 267 L 1175 267 L 1175 277 L 1169 277 L 1169 267 M 1169 267"/></g><g transform="matrix(1,0,0,1,0,0)"><text x="1179" y="275.48" style="fill: rgb(39,75,109); font-family: Lucida Sans; font-size: 11px; font-weight: bold; " text-rendering="auto" clip-path="url(#clip-0)">assistant</text></g><g style="fill: rgb(173,255,47);fill-opacity: 1; stroke: none" transform="matrix(1,0,0,1,0,0)" clip-path="url(#clip-0)"><path d="M 1169 285 L 1175 285 L 1175 295 L 1169 295 L 1169 285 M 1169 285"/></g><g transform="matrix(1,0,0,1,0,0)"><text x="1179" y="293.48" style="fill: rgb(39,75,109); font-family: Lucida Sans; font-size: 11px; font-weight: bold; " text-rendering="auto" clip-path="url(#clip-0)">compétences</text></g><g style="fill: rgb(255,185,15);fill-opacity: 1; stroke: none" transform="matrix(1,0,0,1,0,0)" clip-path="url(#clip-0)"><path d="M 1169 303 L 1175 303 L 1175 313 L 1169 313 L 1169 303 M 1169 303"/></g><g transform="matrix(1,0,0,1,0,0)"><text x="1179" y="311.48" style="fill: rgb(39,75,109); font-family: Lucida Sans; font-size: 11px; font-weight: bold; " text-rendering="auto" clip-path="url(#clip-0)">considération</text></g><g style="fill: rgb(255,0,255);fill-opacity: 1; stroke: none" transform="matrix(1,0,0,1,0,0)" clip-path="url(#clip-0)"><path d="M 1169 321 L 1175 321 L 1175 331 L 1169 331 L 1169 321 M 1169 321"/></g><g transform="matrix(1,0,0,1,0,0)"><text x="1179" y="329.48" style="fill: rgb(39,75,109); font-family: Lucida Sans; font-size: 11px; font-weight: bold; " text-rendering="auto" clip-path="url(#clip-0)">travaux</text></g><rect x="57" y="10" width="1088" height="399" style="fill: rgb(255,255,255);fill-opacity: 1" transform="matrix(1,0,0,1,0,0)" clip-path="url(#clip-0)"/><line x1="57" y1="409" x2="1145" y2="409" style="stroke-width: 0.5;stroke: rgb(192,208,224);stroke-opacity: 1;" transform="matrix(1,0,0,1,0,0)" clip-path="url(#clip-0)"/><g style="fill: rgb(102,102,102);fill-opacity: 1; stroke: none" transform="matrix(0,-1,1,0,-198.440048,643.559952)" clip-path="url(#clip-1)"><path d="M 196.68 425.68 L 199.78 417.73 L 201.43 417.73 L 204.53 425.68 L 202.83 425.68 L 202 423.55 L 198.72 423.55 L 197.89 425.68 L 196.68 425.68 M 196.68 425.68 M 199.12 422.49 L 201.59 422.49 L 200.36 419.34 L 199.12 422.49 M 199.12 422.49 M 205.56 425.68 L 205.56 419.79 L 207.08 419.79 L 207.08 420.9 Q 207.78 419.65 209.06 419.65 Q 209.73 419.65 210.16 419.98 Q 210.59 420.3 210.68 420.9 Q 211.51 419.65 212.68 419.65 Q 214.31 419.65 214.31 421.43 L 214.31 425.68 L 212.78 425.68 L 212.78 421.95 Q 212.78 420.9 212.08 420.9 Q 211.37 420.9 210.68 421.93 L 210.68 425.68 L 209.17 425.68 L 209.17 421.95 Q 209.17 420.9 208.47 420.9 Q 207.76 420.9 207.08 421.93 L 207.08 425.68 L 205.56 425.68 M 205.56 425.68 M 216.56 425.68 L 216.56 417.2 L 218.14 417.2 L 218.14 420.9 Q 218.76 419.65 220.08 419.65 Q 221.14 419.65 221.75 420.43 Q 222.36 421.21 222.36 422.57 Q 222.36 424.04 221.67 424.93 Q 220.98 425.82 219.83 425.82 Q 218.84 425.82 218.14 425.09 L 217.84 425.68 L 216.56 425.68 M 216.56 425.68 M 218.14 424.13 Q 218.72 424.79 219.37 424.79 Q 219.97 424.79 220.32 424.22 Q 220.67 423.65 220.67 422.71 Q 220.67 420.9 219.5 420.9 Q 218.79 420.9 218.14 421.8 L 218.14 424.13 M 218.14 424.13"/></g><line x1="348.71" y1="414" x2="348.71" y2="409" style="stroke-width: 0.5;stroke: rgb(192,208,224);stroke-opacity: 1;" transform="matrix(1,0,0,1,0,0)" clip-path="url(#clip-0)"/><line x1="96.41" y1="414" x2="96.41" y2="409" style="stroke-width: 0.5;stroke: rgb(192,208,224);stroke-opacity: 1;" transform="matrix(1,0,0,1,0,0)" clip-path="url(#clip-0)"/><g style="fill: rgb(102,102,102);fill-opacity: 1; stroke: none" transform="matrix(0,-1,1,0,53.853333,895.853333)" clip-path="url(#clip-2)"><path d="M 439.85 425.68 L 439.85 417.73 L 441.31 417.73 L 444.99 423.16 L 444.99 417.73 L 446.31 417.73 L 446.31 425.68 L 444.84 425.68 L 441.18 420.24 L 441.18 425.68 L 439.85 425.68 M 439.85 425.68 M 452.65 425.48 Q 451.51 425.82 450.49 425.82 Q 449.03 425.82 448.17 424.98 Q 447.32 424.13 447.32 422.7 Q 447.32 421.32 448.1 420.48 Q 448.88 419.65 450.17 419.65 Q 451.46 419.65 452.06 420.46 Q 452.65 421.27 452.65 423.05 L 448.99 423.05 Q 449.15 424.73 450.84 424.73 Q 451.65 424.73 452.65 424.37 L 452.65 425.48 M 452.65 425.48 M 448.96 422.15 L 451.09 422.15 Q 451.09 420.65 450.12 420.65 Q 449.12 420.65 448.96 422.15 M 448.96 422.15 M 457.49 425.68 L 457.49 424.57 Q 456.73 425.82 455.48 425.82 Q 454.7 425.82 454.24 425.32 Q 453.78 424.82 453.78 423.95 L 453.78 419.79 L 455.37 419.79 L 455.37 423.55 Q 455.37 424.55 456.04 424.55 Q 456.79 424.55 457.49 423.49 L 457.49 419.79 L 459.09 419.79 L 459.09 425.68 L 457.49 425.68 M 457.49 425.68 M 463.88 425.65 Q 463.32 425.82 462.99 425.82 Q 460.92 425.82 460.92 423.88 L 460.92 420.77 L 460.26 420.77 L 460.26 419.79 L 460.92 419.79 L 460.92 418.79 L 462.51 418.6 L 462.51 419.79 L 463.78 419.79 L 463.78 420.77 L 462.51 420.77 L 462.51 423.66 Q 462.51 424.76 463.4 424.76 Q 463.6 424.76 463.88 424.68 L 463.88 425.65 M 463.88 425.65 M 464.85 425.68 L 464.85 419.79 L 466.43 419.79 L 466.43 420.9 Q 467.06 419.65 468.32 419.65 Q 468.46 419.65 468.62 419.68 L 468.62 421.1 Q 468.28 420.98 467.98 420.98 Q 467.04 420.98 466.43 421.93 L 466.43 425.68 L 464.85 425.68 M 464.85 425.68 M 474.65 425.48 Q 473.51 425.82 472.49 425.82 Q 471.03 425.82 470.17 424.98 Q 469.32 424.13 469.32 422.7 Q 469.32 421.32 470.1 420.48 Q 470.88 419.65 472.17 419.65 Q 473.46 419.65 474.06 420.46 Q 474.65 421.27 474.65 423.05 L 470.99 423.05 Q 471.15 424.73 472.84 424.73 Q 473.65 424.73 474.65 424.37 L 474.65 425.48 M 474.65 425.48 M 470.96 422.15 L 473.09 422.15 Q 473.09 420.65 472.12 420.65 Q 471.12 420.65 470.96 422.15 M 470.96 422.15"/></g><line x1="601" y1="414" x2="601" y2="409" style="stroke-width: 0.5;stroke: rgb(192,208,224);stroke-opacity: 1;" transform="matrix(1,0,0,1,0,0)" clip-path="url(#clip-0)"/><g style="fill: rgb(102,102,102);fill-opacity: 1; stroke: none" transform="matrix(0,-1,1,0,306.146667,1148.146667)" clip-path="url(#clip-3)"><path d="M 705.15 425.68 L 705.15 417.73 L 710.15 417.73 L 710.15 418.82 L 706.79 418.82 L 706.79 421.24 L 709.54 421.24 L 709.54 422.34 L 706.79 422.34 L 706.79 425.68 L 705.15 425.68 M 705.15 425.68 M 715.94 425.48 Q 714.8 425.82 713.79 425.82 Q 712.32 425.82 711.47 424.98 Q 710.62 424.13 710.62 422.7 Q 710.62 421.32 711.4 420.48 Q 712.18 419.65 713.46 419.65 Q 714.76 419.65 715.35 420.46 Q 715.94 421.27 715.94 423.05 L 712.29 423.05 Q 712.44 424.73 714.13 424.73 Q 714.94 424.73 715.94 424.37 L 715.94 425.48 M 715.94 425.48 M 712.26 422.15 L 714.38 422.15 Q 714.38 420.65 713.41 420.65 Q 712.41 420.65 712.26 422.15 M 712.26 422.15 M 717.15 425.68 L 717.15 419.79 L 718.66 419.79 L 718.66 420.9 Q 719.37 419.65 720.65 419.65 Q 721.32 419.65 721.75 419.98 Q 722.18 420.3 722.27 420.9 Q 723.1 419.65 724.27 419.65 Q 725.9 419.65 725.9 421.43 L 725.9 425.68 L 724.37 425.68 L 724.37 421.95 Q 724.37 420.9 723.66 420.9 Q 722.96 420.9 722.27 421.93 L 722.27 425.68 L 720.76 425.68 L 720.76 421.95 Q 720.76 420.9 720.05 420.9 Q 719.35 420.9 718.66 421.93 L 718.66 425.68 L 717.15 425.68 M 717.15 425.68"/></g><line x1="853.29" y1="414" x2="853.29" y2="409" style="stroke-width: 0.5;stroke: rgb(192,208,224);stroke-opacity: 1;" transform="matrix(1,0,0,1,0,0)" clip-path="url(#clip-0)"/><g style="fill: rgb(102,102,102);fill-opacity: 1; stroke: none" transform="matrix(0,-1,1,0,558.440063,1400.440063)" clip-path="url(#clip-4)"><path d="M 952.44 425.68 L 952.44 417.73 L 954.63 417.73 L 956.53 423.32 L 958.5 417.73 L 960.42 417.73 L 960.42 425.68 L 958.91 425.68 L 958.91 419.68 L 956.97 425.15 L 955.63 425.15 L 953.74 419.6 L 953.74 425.68 L 952.44 425.68 M 952.44 425.68 M 965.33 425.04 Q 964.53 425.82 963.63 425.82 Q 962.85 425.82 962.36 425.34 Q 961.88 424.87 961.88 424.12 Q 961.88 423.13 962.66 422.61 Q 963.44 422.09 964.89 422.09 L 965.33 422.09 L 965.33 421.54 Q 965.33 420.63 964.28 420.63 Q 963.35 420.63 962.39 421.15 L 962.39 420.05 Q 963.47 419.65 964.53 419.65 Q 966.85 419.65 966.85 421.49 L 966.85 424.1 Q 966.85 424.79 967.3 424.79 Q 967.38 424.79 967.5 424.77 L 967.55 425.66 Q 967.03 425.82 966.64 425.82 Q 965.67 425.82 965.39 425.04 L 965.33 425.04 M 965.33 425.04 M 965.33 424.2 L 965.33 422.99 L 964.94 422.99 Q 963.41 422.99 963.41 423.96 Q 963.41 424.29 963.63 424.51 Q 963.85 424.73 964.17 424.73 Q 964.74 424.73 965.33 424.2 M 965.33 424.2 M 968.28 425.49 L 968.28 424.32 Q 969.46 424.82 970.3 424.82 Q 971.27 424.82 971.27 424.15 Q 971.27 423.73 970.47 423.4 L 969.94 423.18 Q 969.05 422.84 968.67 422.43 Q 968.3 422.02 968.3 421.41 Q 968.3 420.57 968.94 420.11 Q 969.58 419.65 970.74 419.65 Q 971.46 419.65 972.44 419.85 L 972.44 420.98 Q 971.49 420.65 970.86 420.65 Q 969.88 420.65 969.88 421.26 Q 969.88 421.66 970.6 421.93 L 971.07 422.12 Q 972.1 422.51 972.5 422.91 Q 972.91 423.3 972.91 423.95 Q 972.91 424.77 972.22 425.3 Q 971.53 425.82 970.42 425.82 Q 969.36 425.82 968.28 425.49 M 968.28 425.49 M 978.78 425.55 Q 977.8 425.82 976.96 425.82 Q 975.53 425.82 974.72 424.98 Q 973.91 424.15 973.91 422.73 Q 973.91 421.27 974.75 420.46 Q 975.6 419.65 977.08 419.65 Q 977.8 419.65 978.74 419.88 L 978.74 421.02 Q 977.75 420.71 977.17 420.71 Q 976.46 420.71 976.03 421.26 Q 975.6 421.8 975.6 422.71 Q 975.6 423.65 976.07 424.2 Q 976.53 424.76 977.32 424.76 Q 978.03 424.76 978.78 424.45 L 978.78 425.55 M 978.78 425.55"/></g><line x1="1105.59" y1="414" x2="1105.59" y2="409" style="stroke-width: 0.5;stroke: rgb(192,208,224);stroke-opacity: 1;" transform="matrix(1,0,0,1,0,0)" clip-path="url(#clip-0)"/><g transform="matrix(1,0,0,1,0,0)"><text x="578.5" y="473.84" style="fill: rgb(77,117,158); font-family: Lucida Sans; font-size: 15px; font-weight: bold; " text-rendering="auto" clip-path="url(#clip-0)">Partie</text></g><g transform="matrix(1,0,0,1,0,0)"><text x="37" y="363.88" style="fill: rgb(102,102,102); font-family: Lucida Sans; font-size: 11px; font-weight: bold; " text-rendering="auto" clip-path="url(#clip-0)">-6</text></g><g transform="matrix(1,0,0,1,0,0)"><text x="37" y="335.72" style="fill: rgb(102,102,102); font-family: Lucida Sans; font-size: 11px; font-weight: bold; " text-rendering="auto" clip-path="url(#clip-0)">-4</text></g><g transform="matrix(1,0,0,1,0,0)"><text x="37" y="307.55" style="fill: rgb(102,102,102); font-family: Lucida Sans; font-size: 11px; font-weight: bold; " text-rendering="auto" clip-path="url(#clip-0)">-2</text></g><g transform="matrix(1,0,0,1,0,0)"><text x="44" y="279.38" style="fill: rgb(102,102,102); font-family: Lucida Sans; font-size: 11px; font-weight: bold; " text-rendering="auto" clip-path="url(#clip-0)">0</text></g><g transform="matrix(1,0,0,1,0,0)"><text x="44" y="251.21" style="fill: rgb(102,102,102); font-family: Lucida Sans; font-size: 11px; font-weight: bold; " text-rendering="auto" clip-path="url(#clip-0)">2</text></g><g transform="matrix(1,0,0,1,0,0)"><text x="44" y="223.04" style="fill: rgb(102,102,102); font-family: Lucida Sans; font-size: 11px; font-weight: bold; " text-rendering="auto" clip-path="url(#clip-0)">4</text></g><g transform="matrix(1,0,0,1,0,0)"><text x="44" y="194.87" style="fill: rgb(102,102,102); font-family: Lucida Sans; font-size: 11px; font-weight: bold; " text-rendering="auto" clip-path="url(#clip-0)">6</text></g><g transform="matrix(1,0,0,1,0,0)"><text x="44" y="166.7" style="fill: rgb(102,102,102); font-family: Lucida Sans; font-size: 11px; font-weight: bold; " text-rendering="auto" clip-path="url(#clip-0)">8</text></g><g transform="matrix(1,0,0,1,0,0)"><text x="37" y="138.54" style="fill: rgb(102,102,102); font-family: Lucida Sans; font-size: 11px; font-weight: bold; " text-rendering="auto" clip-path="url(#clip-0)">10</text></g><g transform="matrix(1,0,0,1,0,0)"><text x="37" y="110.37" style="fill: rgb(102,102,102); font-family: Lucida Sans; font-size: 11px; font-weight: bold; " text-rendering="auto" clip-path="url(#clip-0)">12</text></g><g transform="matrix(1,0,0,1,0,0)"><text x="37" y="82.2" style="fill: rgb(102,102,102); font-family: Lucida Sans; font-size: 11px; font-weight: bold; " text-rendering="auto" clip-path="url(#clip-0)">14</text></g><g transform="matrix(1,0,0,1,0,0)"><text x="37" y="54.03" style="fill: rgb(102,102,102); font-family: Lucida Sans; font-size: 11px; font-weight: bold; " text-rendering="auto" clip-path="url(#clip-0)">16</text></g><g style="fill: rgb(77,117,158);fill-opacity: 1; stroke: none" transform="matrix(0,-1,1,0,-187,232)" clip-path="url(#clip-5)"><path d="M 0.36 215.84 L 0.36 204.99 L 2.61 204.99 L 2.61 215.84 L 0.36 215.84 M 0.36 215.84 M 5.36 215.84 L 5.36 207.79 L 7.52 207.79 L 7.52 209.3 Q 8.58 207.62 10.27 207.62 Q 11.34 207.62 11.96 208.3 Q 12.58 208.98 12.58 210.15 L 12.58 215.84 L 10.42 215.84 L 10.42 210.68 Q 10.42 209.32 9.52 209.32 Q 8.47 209.32 7.52 210.77 L 7.52 215.84 L 5.36 215.84 M 5.36 215.84 M 20.42 215.84 L 20.42 214.32 Q 19.58 216.02 17.78 216.02 Q 16.34 216.02 15.52 214.96 Q 14.69 213.9 14.69 212.04 Q 14.69 210.01 15.62 208.81 Q 16.55 207.62 18.12 207.62 Q 19.39 207.62 20.42 208.6 L 20.42 204.27 L 22.59 204.27 L 22.59 215.84 L 20.42 215.84 M 20.42 215.84 M 20.42 209.9 Q 19.62 209.02 18.73 209.02 Q 17.94 209.02 17.46 209.79 Q 16.98 210.55 16.98 211.85 Q 16.98 214.32 18.58 214.32 Q 19.53 214.32 20.42 213.09 L 20.42 209.9 M 20.42 209.9 M 25.36 215.84 L 25.36 207.79 L 27.52 207.79 L 27.52 215.84 L 25.36 215.84 M 25.36 215.84 M 25.36 206.45 L 25.36 204.63 L 27.52 204.63 L 27.52 206.45 L 25.36 206.45 M 25.36 206.45 M 36.28 215.66 Q 34.94 216.02 33.8 216.02 Q 31.86 216.02 30.74 214.89 Q 29.62 213.76 29.62 211.8 Q 29.62 209.84 30.78 208.73 Q 31.94 207.62 33.95 207.62 Q 34.94 207.62 36.22 207.93 L 36.22 209.49 Q 34.89 209.05 34.09 209.05 Q 33.11 209.05 32.52 209.8 Q 31.94 210.55 31.94 211.79 Q 31.94 213.05 32.58 213.82 Q 33.22 214.59 34.28 214.59 Q 35.25 214.59 36.28 214.16 L 36.28 215.66 M 36.28 215.66 M 44.91 215.57 Q 43.36 216.02 41.97 216.02 Q 39.95 216.02 38.79 214.88 Q 37.62 213.73 37.62 211.76 Q 37.62 209.88 38.7 208.75 Q 39.77 207.62 41.52 207.62 Q 43.28 207.62 44.09 208.73 Q 44.91 209.84 44.91 212.24 L 39.92 212.24 Q 40.14 214.54 42.44 214.54 Q 43.53 214.54 44.91 214.04 L 44.91 215.57 M 44.91 215.57 M 39.89 211.02 L 42.77 211.02 Q 42.77 208.96 41.45 208.96 Q 40.09 208.96 39.89 211.02 M 39.89 211.02"/></g><line x1="57" y1="359.2" x2="1145" y2="359.2" style="stroke-width: 1.0;stroke: rgb(192,192,192);stroke-opacity: 1;" transform="matrix(1,0,0,1,0,0)" clip-path="url(#clip-6)"/><line x1="57" y1="331.04" x2="1145" y2="331.04" style="stroke-width: 1.0;stroke: rgb(192,192,192);stroke-opacity: 1;" transform="matrix(1,0,0,1,0,0)" clip-path="url(#clip-6)"/><line x1="57" y1="302.87" x2="1145" y2="302.87" style="stroke-width: 1.0;stroke: rgb(192,192,192);stroke-opacity: 1;" transform="matrix(1,0,0,1,0,0)" clip-path="url(#clip-6)"/><line x1="57" y1="246.53" x2="1145" y2="246.53" style="stroke-width: 1.0;stroke: rgb(192,192,192);stroke-opacity: 1;" transform="matrix(1,0,0,1,0,0)" clip-path="url(#clip-6)"/><line x1="57" y1="218.36" x2="1145" y2="218.36" style="stroke-width: 1.0;stroke: rgb(192,192,192);stroke-opacity: 1;" transform="matrix(1,0,0,1,0,0)" clip-path="url(#clip-6)"/><line x1="57" y1="190.19" x2="1145" y2="190.19" style="stroke-width: 1.0;stroke: rgb(192,192,192);stroke-opacity: 1;" transform="matrix(1,0,0,1,0,0)" clip-path="url(#clip-6)"/><line x1="57" y1="162.02" x2="1145" y2="162.02" style="stroke-width: 1.0;stroke: rgb(192,192,192);stroke-opacity: 1;" transform="matrix(1,0,0,1,0,0)" clip-path="url(#clip-6)"/><line x1="57" y1="133.86" x2="1145" y2="133.86" style="stroke-width: 1.0;stroke: rgb(192,192,192);stroke-opacity: 1;" transform="matrix(1,0,0,1,0,0)" clip-path="url(#clip-6)"/><line x1="57" y1="105.69" x2="1145" y2="105.69" style="stroke-width: 1.0;stroke: rgb(192,192,192);stroke-opacity: 1;" transform="matrix(1,0,0,1,0,0)" clip-path="url(#clip-6)"/><line x1="57" y1="77.52" x2="1145" y2="77.52" style="stroke-width: 1.0;stroke: rgb(192,192,192);stroke-opacity: 1;" transform="matrix(1,0,0,1,0,0)" clip-path="url(#clip-6)"/><line x1="57" y1="49.35" x2="1145" y2="49.35" style="stroke-width: 1.0;stroke: rgb(192,192,192);stroke-opacity: 1;" transform="matrix(1,0,0,1,0,0)" clip-path="url(#clip-6)"/><line x1="57" y1="274.7" x2="1145" y2="274.7" style="stroke-width: 0.5;stroke: rgb(134,145,156);stroke-opacity: 1;" transform="matrix(1,0,0,1,0,0)" clip-path="url(#clip-6)"/><rect x="293.2" y="274.7" width="17.66" height="6.91" style="fill: rgb(255,0,255);fill-opacity: 1" transform="matrix(1,0,0,1,0,0)" clip-path="url(#clip-6)"/><rect x="545.5" y="274.7" width="17.66" height="7.89" style="fill: rgb(255,0,255);fill-opacity: 1" transform="matrix(1,0,0,1,0,0)" clip-path="url(#clip-6)"/><rect x="797.79" y="274.7" width="17.66" height="57.35" style="fill: rgb(255,0,255);fill-opacity: 1" transform="matrix(1,0,0,1,0,0)" clip-path="url(#clip-6)"/><rect x="1050.08" y="213.04" width="17.66" height="61.66" style="fill: rgb(255,0,255);fill-opacity: 1" transform="matrix(1,0,0,1,0,0)" clip-path="url(#clip-6)"/><rect x="275.54" y="274.7" width="17.66" height="7.62" style="fill: rgb(255,185,15);fill-opacity: 1" transform="matrix(1,0,0,1,0,0)" clip-path="url(#clip-6)"/><rect x="527.83" y="274.7" width="17.66" height="7.28" style="fill: rgb(255,185,15);fill-opacity: 1" transform="matrix(1,0,0,1,0,0)" clip-path="url(#clip-6)"/><rect x="780.13" y="274.7" width="17.66" height="71.22" style="fill: rgb(255,185,15);fill-opacity: 1" transform="matrix(1,0,0,1,0,0)" clip-path="url(#clip-6)"/><rect x="1032.42" y="206.82" width="17.66" height="67.88" style="fill: rgb(255,185,15);fill-opacity: 1" transform="matrix(1,0,0,1,0,0)" clip-path="url(#clip-6)"/><rect x="257.88" y="274.7" width="17.66" height="9.19" style="fill: rgb(173,255,47);fill-opacity: 1" transform="matrix(1,0,0,1,0,0)" clip-path="url(#clip-6)"/><rect x="510.17" y="274.7" width="17.66" height="22.72" style="fill: rgb(173,255,47);fill-opacity: 1" transform="matrix(1,0,0,1,0,0)" clip-path="url(#clip-6)"/><rect x="762.47" y="274.7" width="17.66" height="31.3" style="fill: rgb(173,255,47);fill-opacity: 1" transform="matrix(1,0,0,1,0,0)" clip-path="url(#clip-6)"/><rect x="1014.76" y="206.81" width="17.66" height="67.89" style="fill: rgb(173,255,47);fill-opacity: 1" transform="matrix(1,0,0,1,0,0)" clip-path="url(#clip-6)"/><rect x="240.22" y="270.21" width="17.66" height="4.49" style="fill: rgb(0,191,255);fill-opacity: 1" transform="matrix(1,0,0,1,0,0)" clip-path="url(#clip-6)"/><rect x="492.51" y="274.7" width="17.66" height="32.42" style="fill: rgb(0,191,255);fill-opacity: 1" transform="matrix(1,0,0,1,0,0)" clip-path="url(#clip-6)"/><rect x="744.81" y="274.7" width="17.66" height="37.39" style="fill: rgb(0,191,255);fill-opacity: 1" transform="matrix(1,0,0,1,0,0)" clip-path="url(#clip-6)"/><rect x="997.1" y="203.11" width="17.66" height="71.59" style="fill: rgb(0,191,255);fill-opacity: 1" transform="matrix(1,0,0,1,0,0)" clip-path="url(#clip-6)"/><rect x="222.56" y="270.77" width="17.66" height="3.93" style="fill: rgb(178,34,34);fill-opacity: 1" transform="matrix(1,0,0,1,0,0)" clip-path="url(#clip-6)"/><rect x="474.85" y="274.7" width="17.66" height="37.05" style="fill: rgb(178,34,34);fill-opacity: 1" transform="matrix(1,0,0,1,0,0)" clip-path="url(#clip-6)"/><rect x="727.15" y="274.7" width="17.66" height="42.73" style="fill: rgb(178,34,34);fill-opacity: 1" transform="matrix(1,0,0,1,0,0)" clip-path="url(#clip-6)"/><rect x="979.44" y="190.94" width="17.66" height="83.76" style="fill: rgb(178,34,34);fill-opacity: 1" transform="matrix(1,0,0,1,0,0)" clip-path="url(#clip-6)"/><rect x="204.9" y="274.7" width="17.66" height="3.81" style="fill: rgb(255,20,147);fill-opacity: 1" transform="matrix(1,0,0,1,0,0)" clip-path="url(#clip-6)"/><rect x="457.19" y="274.7" width="17.66" height="30.87" style="fill: rgb(255,20,147);fill-opacity: 1" transform="matrix(1,0,0,1,0,0)" clip-path="url(#clip-6)"/><rect x="709.49" y="274.7" width="17.66" height="35.61" style="fill: rgb(255,20,147);fill-opacity: 1" transform="matrix(1,0,0,1,0,0)" clip-path="url(#clip-6)"/><rect x="961.78" y="188.37" width="17.66" height="86.33" style="fill: rgb(255,20,147);fill-opacity: 1" transform="matrix(1,0,0,1,0,0)" clip-path="url(#clip-6)"/><rect x="187.24" y="274.7" width="17.66" height="8.19" style="fill: rgb(255,215,0);fill-opacity: 1" transform="matrix(1,0,0,1,0,0)" clip-path="url(#clip-6)"/><rect x="439.53" y="274.7" width="17.66" height="39.01" style="fill: rgb(255,215,0);fill-opacity: 1" transform="matrix(1,0,0,1,0,0)" clip-path="url(#clip-6)"/><rect x="691.83" y="274.7" width="17.66" height="37.49" style="fill: rgb(255,215,0);fill-opacity: 1" transform="matrix(1,0,0,1,0,0)" clip-path="url(#clip-6)"/><rect x="944.12" y="174.91" width="17.66" height="99.79" style="fill: rgb(255,215,0);fill-opacity: 1" transform="matrix(1,0,0,1,0,0)" clip-path="url(#clip-6)"/><rect x="169.58" y="274.7" width="17.66" height="6.85" style="fill: rgb(0,139,0);fill-opacity: 1" transform="matrix(1,0,0,1,0,0)" clip-path="url(#clip-6)"/><rect x="421.87" y="274.7" width="17.66" height="22.25" style="fill: rgb(0,139,0);fill-opacity: 1" transform="matrix(1,0,0,1,0,0)" clip-path="url(#clip-6)"/><rect x="674.17" y="274.7" width="17.66" height="64.1" style="fill: rgb(0,139,0);fill-opacity: 1" transform="matrix(1,0,0,1,0,0)" clip-path="url(#clip-6)"/><rect x="926.46" y="174.57" width="17.66" height="100.13" style="fill: rgb(0,139,0);fill-opacity: 1" transform="matrix(1,0,0,1,0,0)" clip-path="url(#clip-6)"/><rect x="151.92" y="274.7" width="17.66" height="12.95" style="fill: rgb(0,0,255);fill-opacity: 1" transform="matrix(1,0,0,1,0,0)" clip-path="url(#clip-6)"/><rect x="404.21" y="274.7" width="17.66" height="50.89" style="fill: rgb(0,0,255);fill-opacity: 1" transform="matrix(1,0,0,1,0,0)" clip-path="url(#clip-6)"/><rect x="656.5" y="274.7" width="17.66" height="53.91" style="fill: rgb(0,0,255);fill-opacity: 1" transform="matrix(1,0,0,1,0,0)" clip-path="url(#clip-6)"/><rect x="908.8" y="134.05" width="17.66" height="140.65" style="fill: rgb(0,0,255);fill-opacity: 1" transform="matrix(1,0,0,1,0,0)" clip-path="url(#clip-6)"/><rect x="134.26" y="274.7" width="17.66" height="4.53" style="fill: rgb(255,0,0);fill-opacity: 1" transform="matrix(1,0,0,1,0,0)" clip-path="url(#clip-6)"/><rect x="386.55" y="274.7" width="17.66" height="103.02" style="fill: rgb(255,0,0);fill-opacity: 1" transform="matrix(1,0,0,1,0,0)" clip-path="url(#clip-6)"/><rect x="638.84" y="274.7" width="17.66" height="95.72" style="fill: rgb(255,0,0);fill-opacity: 1" transform="matrix(1,0,0,1,0,0)" clip-path="url(#clip-6)"/><rect x="891.14" y="41.28" width="17.66" height="233.42" style="fill: rgb(255,0,0);fill-opacity: 1" transform="matrix(1,0,0,1,0,0)" clip-path="url(#clip-6)"/><line x1="57" y1="246.53" x2="1145" y2="246.53" style="stroke-width: 0.5;stroke: rgb(255,0,0);stroke-opacity: 1;" transform="matrix(1,0,0,1,0,0)" clip-path="url(#clip-6)"/><rect x="1077" y="233.05" width="65" height="12" style="fill: rgb(100,100,100);fill-opacity: 0.392157" transform="matrix(1,0,0,1,0,0)" clip-path="url(#clip-6)"/><g transform="matrix(1,0,0,1,0,0)"><text x="1077" y="241.41" style="fill: rgb(0,0,0); font-family: sans-serif; font-size: 9px; " text-rendering="auto" clip-path="url(#clip-6)">Banalité : 2.0</text></g><line x1="57" y1="302.87" x2="1145" y2="302.87" style="stroke-width: 0.5;stroke: rgb(255,0,0);stroke-opacity: 1;" transform="matrix(1,0,0,1,0,0)" clip-path="url(#clip-6)"/><rect x="1074" y="289.39" width="68" height="12" style="fill: rgb(100,100,100);fill-opacity: 0.392157" transform="matrix(1,0,0,1,0,0)" clip-path="url(#clip-6)"/><g transform="matrix(1,0,0,1,0,0)"><text x="1074" y="297.74" style="fill: rgb(0,0,0); font-family: sans-serif; font-size: 9px; " text-rendering="auto" clip-path="url(#clip-6)">Banalité : -2.0</text></g></svg>
