<!DOCTYPE svg PUBLIC "-//W3C//DTD SVG 1.1//EN" "http://www.w3.org/Graphics/SVG/1.1/DTD/svg11.dtd">
<svg style="stroke-linecap:square;" xmlns="http://www.w3.org/2000/svg" xmlns:xlink="http://www.w3.org/1999/xlink" width="1269" height="490">
<defs><clipPath id="clip-0"><path d="M 0 0 L 1269 0 L 1269 490 L 0 490 L 0 0 M 0 0"/></clipPath>
<clipPath id="clip-1"><path d="M 614.5 227.5 L 614.5 1496.5 L 124.5 1496.5 L 124.5 227.5 L 614.5 227.5 M 614.5 227.5"/></clipPath>
<clipPath id="clip-2"><path d="M 887.5 -45.5 L 887.5 1223.5 L 397.5 1223.5 L 397.5 -45.5 L 887.5 -45.5 M 887.5 -45.5"/></clipPath>
<clipPath id="clip-3"><path d="M 1160.5 -318.5 L 1160.5 950.5 L 670.5 950.5 L 670.5 -318.5 L 1160.5 -318.5 M 1160.5 -318.5"/></clipPath>
<clipPath id="clip-4"><path d="M 1433.5 -591.5 L 1433.5 677.5 L 943.5 677.5 L 943.5 -591.5 L 1433.5 -591.5 M 1433.5 -591.5"/></clipPath>
<clipPath id="clip-5"><path d="M 232 187 L 232 1456 L -258 1456 L -258 187 L 232 187 M 232 187"/></clipPath>
<clipPath id="clip-6"><path d="M 57 10 L 57 409 L 1149 409 L 1149 10 M 57 10"/></clipPath>
</defs>
<rect x="0" y="0" width="1269" height="490" style="fill: rgb(255,255,255);fill-opacity: 1" transform="matrix(1,0,0,1,0,0)" clip-path="url(#clip-0)"/><rect x="1169" y="144" width="90" height="202" style="fill: rgb(255,255,255);fill-opacity: 1" transform="matrix(1,0,0,1,0,0)" clip-path="url(#clip-0)"/><g style="stroke-width: 1.0;stroke: rgb(192,192,192);stroke-opacity: 1; fill: none" transform="matrix(1,0,0,1,0,0)" clip-path="url(#clip-0)"><path d="M 1169 149 L 1169 341 C 1169 343.76 1171.24 346 1174 346 L 1254 346 C 1256.76 346 1259 343.76 1259 341 L 1259 149 C 1259 146.24 1256.76 144 1254 144 L 1174 144 C 1171.24 144 1169 146.24 1169 149 M 1169 149"/></g><g style="fill: rgb(255,0,0);fill-opacity: 1; stroke: none" transform="matrix(1,0,0,1,0,0)" clip-path="url(#clip-0)"><path d="M 1173 150 L 1179 150 L 1179 160 L 1173 160 L 1173 150 M 1173 150"/></g><g transform="matrix(1,0,0,1,0,0)"><text x="1183" y="158.48" style="fill: rgb(39,75,109); font-family: Lucida Sans; font-size: 11px; font-weight: bold; " text-rendering="auto" clip-path="url(#clip-0)">Vous</text></g><g style="fill: rgb(0,0,255);fill-opacity: 1; stroke: none" transform="matrix(1,0,0,1,0,0)" clip-path="url(#clip-0)"><path d="M 1173 168 L 1179 168 L 1179 178 L 1173 178 L 1173 168 M 1173 168"/></g><g transform="matrix(1,0,0,1,0,0)"><text x="1183" y="176.48" style="fill: rgb(39,75,109); font-family: Lucida Sans; font-size: 11px; font-weight: bold; " text-rendering="auto" clip-path="url(#clip-0)">Date</text></g><g style="fill: rgb(0,205,0);fill-opacity: 1; stroke: none" transform="matrix(1,0,0,1,0,0)" clip-path="url(#clip-0)"><path d="M 1173 186 L 1179 186 L 1179 196 L 1173 196 L 1173 186 M 1173 186"/></g><g transform="matrix(1,0,0,1,0,0)"><text x="1183" y="194.48" style="fill: rgb(39,75,109); font-family: Lucida Sans; font-size: 11px; font-weight: bold; " text-rendering="auto" clip-path="url(#clip-0)">avez</text></g><g style="fill: rgb(255,215,0);fill-opacity: 1; stroke: none" transform="matrix(1,0,0,1,0,0)" clip-path="url(#clip-0)"><path d="M 1173 204 L 1179 204 L 1179 214 L 1173 214 L 1173 204 M 1173 204"/></g><g transform="matrix(1,0,0,1,0,0)"><text x="1183" y="212.48" style="fill: rgb(39,75,109); font-family: Lucida Sans; font-size: 11px; font-weight: bold; " text-rendering="auto" clip-path="url(#clip-0)">offre</text></g><g style="fill: rgb(255,20,147);fill-opacity: 1; stroke: none" transform="matrix(1,0,0,1,0,0)" clip-path="url(#clip-0)"><path d="M 1173 222 L 1179 222 L 1179 232 L 1173 232 L 1173 222 M 1173 222"/></g><g transform="matrix(1,0,0,1,0,0)"><text x="1183" y="230.48" style="fill: rgb(39,75,109); font-family: Lucida Sans; font-size: 11px; font-weight: bold; " text-rendering="auto" clip-path="url(#clip-0)">souhaitez</text></g><g style="fill: rgb(178,34,34);fill-opacity: 1; stroke: none" transform="matrix(1,0,0,1,0,0)" clip-path="url(#clip-0)"><path d="M 1173 240 L 1179 240 L 1179 250 L 1173 250 L 1173 240 M 1173 240"/></g><g transform="matrix(1,0,0,1,0,0)"><text x="1183" y="248.48" style="fill: rgb(39,75,109); font-family: Lucida Sans; font-size: 11px; font-weight: bold; " text-rendering="auto" clip-path="url(#clip-0)">Nom</text></g><g style="fill: rgb(0,0,128);fill-opacity: 1; stroke: none" transform="matrix(1,0,0,1,0,0)" clip-path="url(#clip-0)"><path d="M 1173 258 L 1179 258 L 1179 268 L 1173 268 L 1173 258 M 1173 258"/></g><g transform="matrix(1,0,0,1,0,0)"><text x="1183" y="266.48" style="fill: rgb(39,75,109); font-family: Lucida Sans; font-size: 11px; font-weight: bold; " text-rendering="auto" clip-path="url(#clip-0)">Nous</text></g><g style="fill: rgb(0,139,0);fill-opacity: 1; stroke: none" transform="matrix(1,0,0,1,0,0)" clip-path="url(#clip-0)"><path d="M 1173 276 L 1179 276 L 1179 286 L 1173 286 L 1173 276 M 1173 276"/></g><g transform="matrix(1,0,0,1,0,0)"><text x="1183" y="284.48" style="fill: rgb(39,75,109); font-family: Lucida Sans; font-size: 11px; font-weight: bold; " text-rendering="auto" clip-path="url(#clip-0)">poissonnerie</text></g><g style="fill: rgb(255,185,15);fill-opacity: 1; stroke: none" transform="matrix(1,0,0,1,0,0)" clip-path="url(#clip-0)"><path d="M 1173 294 L 1179 294 L 1179 304 L 1173 304 L 1173 294 M 1173 294"/></g><g transform="matrix(1,0,0,1,0,0)"><text x="1183" y="302.48" style="fill: rgb(39,75,109); font-family: Lucida Sans; font-size: 11px; font-weight: bold; " text-rendering="auto" clip-path="url(#clip-0)">êtes</text></g><g style="fill: rgb(255,0,255);fill-opacity: 1; stroke: none" transform="matrix(1,0,0,1,0,0)" clip-path="url(#clip-0)"><path d="M 1173 312 L 1179 312 L 1179 322 L 1173 322 L 1173 312 M 1173 312"/></g><g transform="matrix(1,0,0,1,0,0)"><text x="1183" y="320.48" style="fill: rgb(39,75,109); font-family: Lucida Sans; font-size: 11px; font-weight: bold; " text-rendering="auto" clip-path="url(#clip-0)">Adresse</text></g><g style="fill: rgb(0,191,255);fill-opacity: 1; stroke: none" transform="matrix(1,0,0,1,0,0)" clip-path="url(#clip-0)"><path d="M 1173 330 L 1179 330 L 1179 340 L 1173 340 L 1173 330 M 1173 330"/></g><g transform="matrix(1,0,0,1,0,0)"><text x="1183" y="338.48" style="fill: rgb(39,75,109); font-family: Lucida Sans; font-size: 11px; font-weight: bold; " text-rendering="auto" clip-path="url(#clip-0)">sommes</text></g><rect x="57" y="10" width="1092" height="399" style="fill: rgb(255,255,255);fill-opacity: 1" transform="matrix(1,0,0,1,0,0)" clip-path="url(#clip-0)"/><line x1="57" y1="409" x2="1149" y2="409" style="stroke-width: 0.5;stroke: rgb(192,208,224);stroke-opacity: 1;" transform="matrix(1,0,0,1,0,0)" clip-path="url(#clip-0)"/><g style="fill: rgb(102,102,102);fill-opacity: 1; stroke: none" transform="matrix(0,-1,1,0,-227.5,614.5)" clip-path="url(#clip-1)"><path d="M 167.62 425.68 L 170.72 417.73 L 172.38 417.73 L 175.47 425.68 L 173.77 425.68 L 172.94 423.55 L 169.66 423.55 L 168.83 425.68 L 167.62 425.68 M 167.62 425.68 M 170.06 422.49 L 172.53 422.49 L 171.3 419.34 L 170.06 422.49 M 170.06 422.49 M 176.5 425.68 L 176.5 419.79 L 178.02 419.79 L 178.02 420.9 Q 178.72 419.65 180 419.65 Q 180.67 419.65 181.1 419.98 Q 181.53 420.3 181.62 420.9 Q 182.45 419.65 183.62 419.65 Q 185.25 419.65 185.25 421.43 L 185.25 425.68 L 183.72 425.68 L 183.72 421.95 Q 183.72 420.9 183.02 420.9 Q 182.31 420.9 181.62 421.93 L 181.62 425.68 L 180.11 425.68 L 180.11 421.95 Q 180.11 420.9 179.41 420.9 Q 178.7 420.9 178.02 421.93 L 178.02 425.68 L 176.5 425.68 M 176.5 425.68 M 187.5 425.68 L 187.5 417.2 L 189.08 417.2 L 189.08 420.9 Q 189.7 419.65 191.02 419.65 Q 192.08 419.65 192.69 420.43 Q 193.3 421.21 193.3 422.57 Q 193.3 424.04 192.61 424.93 Q 191.92 425.82 190.77 425.82 Q 189.78 425.82 189.08 425.09 L 188.78 425.68 L 187.5 425.68 M 187.5 425.68 M 189.08 424.13 Q 189.66 424.79 190.31 424.79 Q 190.91 424.79 191.26 424.22 Q 191.61 423.65 191.61 422.71 Q 191.61 420.9 190.44 420.9 Q 189.73 420.9 189.08 421.8 L 189.08 424.13 M 189.08 424.13"/></g><line x1="330" y1="414" x2="330" y2="409" style="stroke-width: 0.5;stroke: rgb(192,208,224);stroke-opacity: 1;" transform="matrix(1,0,0,1,0,0)" clip-path="url(#clip-0)"/><line x1="57" y1="414" x2="57" y2="409" style="stroke-width: 0.5;stroke: rgb(192,208,224);stroke-opacity: 1;" transform="matrix(1,0,0,1,0,0)" clip-path="url(#clip-0)"/><g style="fill: rgb(102,102,102);fill-opacity: 1; stroke: none" transform="matrix(0,-1,1,0,45.5,887.5)" clip-path="url(#clip-2)"><path d="M 431.5 425.68 L 431.5 417.73 L 432.95 417.73 L 436.64 423.16 L 436.64 417.73 L 437.95 417.73 L 437.95 425.68 L 436.48 425.68 L 432.83 420.24 L 432.83 425.68 L 431.5 425.68 M 431.5 425.68 M 444.3 425.48 Q 443.16 425.82 442.14 425.82 Q 440.67 425.82 439.82 424.98 Q 438.97 424.13 438.97 422.7 Q 438.97 421.32 439.75 420.48 Q 440.53 419.65 441.81 419.65 Q 443.11 419.65 443.7 420.46 Q 444.3 421.27 444.3 423.05 L 440.64 423.05 Q 440.8 424.73 442.48 424.73 Q 443.3 424.73 444.3 424.37 L 444.3 425.48 M 444.3 425.48 M 440.61 422.15 L 442.73 422.15 Q 442.73 420.65 441.77 420.65 Q 440.77 420.65 440.61 422.15 M 440.61 422.15 M 449.14 425.68 L 449.14 424.57 Q 448.38 425.82 447.12 425.82 Q 446.34 425.82 445.88 425.32 Q 445.42 424.82 445.42 423.95 L 445.42 419.79 L 447.02 419.79 L 447.02 423.55 Q 447.02 424.55 447.69 424.55 Q 448.44 424.55 449.14 423.49 L 449.14 419.79 L 450.73 419.79 L 450.73 425.68 L 449.14 425.68 M 449.14 425.68 M 455.53 425.65 Q 454.97 425.82 454.64 425.82 Q 452.56 425.82 452.56 423.88 L 452.56 420.77 L 451.91 420.77 L 451.91 419.79 L 452.56 419.79 L 452.56 418.79 L 454.16 418.6 L 454.16 419.79 L 455.42 419.79 L 455.42 420.77 L 454.16 420.77 L 454.16 423.66 Q 454.16 424.76 455.05 424.76 Q 455.25 424.76 455.53 424.68 L 455.53 425.65 M 455.53 425.65 M 456.5 425.68 L 456.5 419.79 L 458.08 419.79 L 458.08 420.9 Q 458.7 419.65 459.97 419.65 Q 460.11 419.65 460.27 419.68 L 460.27 421.1 Q 459.92 420.98 459.62 420.98 Q 458.69 420.98 458.08 421.93 L 458.08 425.68 L 456.5 425.68 M 456.5 425.68 M 466.3 425.48 Q 465.16 425.82 464.14 425.82 Q 462.67 425.82 461.82 424.98 Q 460.97 424.13 460.97 422.7 Q 460.97 421.32 461.75 420.48 Q 462.53 419.65 463.81 419.65 Q 465.11 419.65 465.7 420.46 Q 466.3 421.27 466.3 423.05 L 462.64 423.05 Q 462.8 424.73 464.48 424.73 Q 465.3 424.73 466.3 424.37 L 466.3 425.48 M 466.3 425.48 M 462.61 422.15 L 464.73 422.15 Q 464.73 420.65 463.77 420.65 Q 462.77 420.65 462.61 422.15 M 462.61 422.15"/></g><line x1="603" y1="414" x2="603" y2="409" style="stroke-width: 0.5;stroke: rgb(192,208,224);stroke-opacity: 1;" transform="matrix(1,0,0,1,0,0)" clip-path="url(#clip-0)"/><g style="fill: rgb(102,102,102);fill-opacity: 1; stroke: none" transform="matrix(0,-1,1,0,318.5,1160.5)" clip-path="url(#clip-3)"><path d="M 717.5 425.68 L 717.5 417.73 L 722.5 417.73 L 722.5 418.82 L 719.14 418.82 L 719.14 421.24 L 721.89 421.24 L 721.89 422.34 L 719.14 422.34 L 719.14 425.68 L 717.5 425.68 M 717.5 425.68 M 728.3 425.48 Q 727.16 425.82 726.14 425.82 Q 724.67 425.82 723.82 424.98 Q 722.97 424.13 722.97 422.7 Q 722.97 421.32 723.75 420.48 Q 724.53 419.65 725.81 419.65 Q 727.11 419.65 727.7 420.46 Q 728.3 421.27 728.3 423.05 L 724.64 423.05 Q 724.8 424.73 726.48 424.73 Q 727.3 424.73 728.3 424.37 L 728.3 425.48 M 728.3 425.48 M 724.61 422.15 L 726.73 422.15 Q 726.73 420.65 725.77 420.65 Q 724.77 420.65 724.61 422.15 M 724.61 422.15 M 729.5 425.68 L 729.5 419.79 L 731.02 419.79 L 731.02 420.9 Q 731.72 419.65 733 419.65 Q 733.67 419.65 734.1 419.98 Q 734.53 420.3 734.62 420.9 Q 735.45 419.65 736.62 419.65 Q 738.25 419.65 738.25 421.43 L 738.25 425.68 L 736.72 425.68 L 736.72 421.95 Q 736.72 420.9 736.02 420.9 Q 735.31 420.9 734.62 421.93 L 734.62 425.68 L 733.11 425.68 L 733.11 421.95 Q 733.11 420.9 732.41 420.9 Q 731.7 420.9 731.02 421.93 L 731.02 425.68 L 729.5 425.68 M 729.5 425.68"/></g><line x1="876" y1="414" x2="876" y2="409" style="stroke-width: 0.5;stroke: rgb(192,208,224);stroke-opacity: 1;" transform="matrix(1,0,0,1,0,0)" clip-path="url(#clip-0)"/><g style="fill: rgb(102,102,102);fill-opacity: 1; stroke: none" transform="matrix(0,-1,1,0,591.5,1433.5)" clip-path="url(#clip-4)"><path d="M 985.5 425.68 L 985.5 417.73 L 987.69 417.73 L 989.59 423.32 L 991.56 417.73 L 993.48 417.73 L 993.48 425.68 L 991.97 425.68 L 991.97 419.68 L 990.03 425.15 L 988.69 425.15 L 986.8 419.6 L 986.8 425.68 L 985.5 425.68 M 985.5 425.68 M 998.39 425.04 Q 997.59 425.82 996.69 425.82 Q 995.91 425.82 995.42 425.34 Q 994.94 424.87 994.94 424.12 Q 994.94 423.13 995.72 422.61 Q 996.5 422.09 997.95 422.09 L 998.39 422.09 L 998.39 421.54 Q 998.39 420.63 997.34 420.63 Q 996.41 420.63 995.45 421.15 L 995.45 420.05 Q 996.53 419.65 997.59 419.65 Q 999.91 419.65 999.91 421.49 L 999.91 424.1 Q 999.91 424.79 1000.36 424.79 Q 1000.44 424.79 1000.56 424.77 L 1000.61 425.66 Q 1000.09 425.82 999.7 425.82 Q 998.73 425.82 998.45 425.04 L 998.39 425.04 M 998.39 425.04 M 998.39 424.2 L 998.39 422.99 L 998 422.99 Q 996.47 422.99 996.47 423.96 Q 996.47 424.29 996.69 424.51 Q 996.91 424.73 997.23 424.73 Q 997.8 424.73 998.39 424.2 M 998.39 424.2 M 1001.34 425.49 L 1001.34 424.32 Q 1002.52 424.82 1003.36 424.82 Q 1004.33 424.82 1004.33 424.15 Q 1004.33 423.73 1003.53 423.4 L 1003 423.18 Q 1002.11 422.84 1001.73 422.43 Q 1001.36 422.02 1001.36 421.41 Q 1001.36 420.57 1002 420.11 Q 1002.64 419.65 1003.8 419.65 Q 1004.52 419.65 1005.5 419.85 L 1005.5 420.98 Q 1004.55 420.65 1003.92 420.65 Q 1002.94 420.65 1002.94 421.26 Q 1002.94 421.66 1003.66 421.93 L 1004.12 422.12 Q 1005.16 422.51 1005.56 422.91 Q 1005.97 423.3 1005.97 423.95 Q 1005.97 424.77 1005.28 425.3 Q 1004.59 425.82 1003.48 425.82 Q 1002.42 425.82 1001.34 425.49 M 1001.34 425.49 M 1011.84 425.55 Q 1010.86 425.82 1010.02 425.82 Q 1008.59 425.82 1007.78 424.98 Q 1006.97 424.15 1006.97 422.73 Q 1006.97 421.27 1007.81 420.46 Q 1008.66 419.65 1010.14 419.65 Q 1010.86 419.65 1011.8 419.88 L 1011.8 421.02 Q 1010.81 420.71 1010.23 420.71 Q 1009.52 420.71 1009.09 421.26 Q 1008.66 421.8 1008.66 422.71 Q 1008.66 423.65 1009.12 424.2 Q 1009.59 424.76 1010.38 424.76 Q 1011.09 424.76 1011.84 424.45 L 1011.84 425.55 M 1011.84 425.55"/></g><line x1="1149" y1="414" x2="1149" y2="409" style="stroke-width: 0.5;stroke: rgb(192,208,224);stroke-opacity: 1;" transform="matrix(1,0,0,1,0,0)" clip-path="url(#clip-0)"/><g transform="matrix(1,0,0,1,0,0)"><text x="580.5" y="473.84" style="fill: rgb(77,117,158); font-family: Lucida Sans; font-size: 15px; font-weight: bold; " text-rendering="auto" clip-path="url(#clip-0)">Partie</text></g><g transform="matrix(1,0,0,1,0,0)"><text x="37" y="372.62" style="fill: rgb(102,102,102); font-family: Lucida Sans; font-size: 11px; font-weight: bold; " text-rendering="auto" clip-path="url(#clip-0)">-4</text></g><g transform="matrix(1,0,0,1,0,0)"><text x="37" y="340.84" style="fill: rgb(102,102,102); font-family: Lucida Sans; font-size: 11px; font-weight: bold; " text-rendering="auto" clip-path="url(#clip-0)">-2</text></g><g transform="matrix(1,0,0,1,0,0)"><text x="44" y="309.07" style="fill: rgb(102,102,102); font-family: Lucida Sans; font-size: 11px; font-weight: bold; " text-rendering="auto" clip-path="url(#clip-0)">0</text></g><g transform="matrix(1,0,0,1,0,0)"><text x="44" y="277.29" style="fill: rgb(102,102,102); font-family: Lucida Sans; font-size: 11px; font-weight: bold; " text-rendering="auto" clip-path="url(#clip-0)">2</text></g><g transform="matrix(1,0,0,1,0,0)"><text x="44" y="245.52" style="fill: rgb(102,102,102); font-family: Lucida Sans; font-size: 11px; font-weight: bold; " text-rendering="auto" clip-path="url(#clip-0)">4</text></g><g transform="matrix(1,0,0,1,0,0)"><text x="44" y="213.74" style="fill: rgb(102,102,102); font-family: Lucida Sans; font-size: 11px; font-weight: bold; " text-rendering="auto" clip-path="url(#clip-0)">6</text></g><g transform="matrix(1,0,0,1,0,0)"><text x="44" y="181.96" style="fill: rgb(102,102,102); font-family: Lucida Sans; font-size: 11px; font-weight: bold; " text-rendering="auto" clip-path="url(#clip-0)">8</text></g><g transform="matrix(1,0,0,1,0,0)"><text x="37" y="150.19" style="fill: rgb(102,102,102); font-family: Lucida Sans; font-size: 11px; font-weight: bold; " text-rendering="auto" clip-path="url(#clip-0)">10</text></g><g transform="matrix(1,0,0,1,0,0)"><text x="37" y="118.41" style="fill: rgb(102,102,102); font-family: Lucida Sans; font-size: 11px; font-weight: bold; " text-rendering="auto" clip-path="url(#clip-0)">12</text></g><g transform="matrix(1,0,0,1,0,0)"><text x="37" y="86.64" style="fill: rgb(102,102,102); font-family: Lucida Sans; font-size: 11px; font-weight: bold; " text-rendering="auto" clip-path="url(#clip-0)">14</text></g><g transform="matrix(1,0,0,1,0,0)"><text x="37" y="54.86" style="fill: rgb(102,102,102); font-family: Lucida Sans; font-size: 11px; font-weight: bold; " text-rendering="auto" clip-path="url(#clip-0)">16</text></g><g style="fill: rgb(77,117,158);fill-opacity: 1; stroke: none" transform="matrix(0,-1,1,0,-187,232)" clip-path="url(#clip-5)"><path d="M 0.36 215.84 L 0.36 204.99 L 2.61 204.99 L 2.61 215.84 L 0.36 215.84 M 0.36 215.84 M 5.36 215.84 L 5.36 207.79 L 7.52 207.79 L 7.52 209.3 Q 8.58 207.62 10.27 207.62 Q 11.34 207.62 11.96 208.3 Q 12.58 208.98 12.58 210.15 L 12.58 215.84 L 10.42 215.84 L 10.42 210.68 Q 10.42 209.32 9.52 209.32 Q 8.47 209.32 7.52 210.77 L 7.52 215.84 L 5.36 215.84 M 5.36 215.84 M 20.42 215.84 L 20.42 214.32 Q 19.58 216.02 17.78 216.02 Q 16.34 216.02 15.52 214.96 Q 14.69 213.9 14.69 212.04 Q 14.69 210.01 15.62 208.81 Q 16.55 207.62 18.12 207.62 Q 19.39 207.62 20.42 208.6 L 20.42 204.27 L 22.59 204.27 L 22.59 215.84 L 20.42 215.84 M 20.42 215.84 M 20.42 209.9 Q 19.62 209.02 18.73 209.02 Q 17.94 209.02 17.46 209.79 Q 16.98 210.55 16.98 211.85 Q 16.98 214.32 18.58 214.32 Q 19.53 214.32 20.42 213.09 L 20.42 209.9 M 20.42 209.9 M 25.36 215.84 L 25.36 207.79 L 27.52 207.79 L 27.52 215.84 L 25.36 215.84 M 25.36 215.84 M 25.36 206.45 L 25.36 204.63 L 27.52 204.63 L 27.52 206.45 L 25.36 206.45 M 25.36 206.45 M 36.28 215.66 Q 34.94 216.02 33.8 216.02 Q 31.86 216.02 30.74 214.89 Q 29.62 213.76 29.62 211.8 Q 29.62 209.84 30.78 208.73 Q 31.94 207.62 33.95 207.62 Q 34.94 207.62 36.22 207.93 L 36.22 209.49 Q 34.89 209.05 34.09 209.05 Q 33.11 209.05 32.52 209.8 Q 31.94 210.55 31.94 211.79 Q 31.94 213.05 32.58 213.82 Q 33.22 214.59 34.28 214.59 Q 35.25 214.59 36.28 214.16 L 36.28 215.66 M 36.28 215.66 M 44.91 215.57 Q 43.36 216.02 41.97 216.02 Q 39.95 216.02 38.79 214.88 Q 37.62 213.73 37.62 211.76 Q 37.62 209.88 38.7 208.75 Q 39.77 207.62 41.52 207.62 Q 43.28 207.62 44.09 208.73 Q 44.91 209.84 44.91 212.24 L 39.92 212.24 Q 40.14 214.54 42.44 214.54 Q 43.53 214.54 44.91 214.04 L 44.91 215.57 M 44.91 215.57 M 39.89 211.02 L 42.77 211.02 Q 42.77 208.96 41.45 208.96 Q 40.09 208.96 39.89 211.02 M 39.89 211.02"/></g><line x1="57" y1="367.94" x2="1149" y2="367.94" style="stroke-width: 1.0;stroke: rgb(192,192,192);stroke-opacity: 1;" transform="matrix(1,0,0,1,0,0)" clip-path="url(#clip-6)"/><line x1="57" y1="336.16" x2="1149" y2="336.16" style="stroke-width: 1.0;stroke: rgb(192,192,192);stroke-opacity: 1;" transform="matrix(1,0,0,1,0,0)" clip-path="url(#clip-6)"/><line x1="57" y1="272.61" x2="1149" y2="272.61" style="stroke-width: 1.0;stroke: rgb(192,192,192);stroke-opacity: 1;" transform="matrix(1,0,0,1,0,0)" clip-path="url(#clip-6)"/><line x1="57" y1="240.84" x2="1149" y2="240.84" style="stroke-width: 1.0;stroke: rgb(192,192,192);stroke-opacity: 1;" transform="matrix(1,0,0,1,0,0)" clip-path="url(#clip-6)"/><line x1="57" y1="209.06" x2="1149" y2="209.06" style="stroke-width: 1.0;stroke: rgb(192,192,192);stroke-opacity: 1;" transform="matrix(1,0,0,1,0,0)" clip-path="url(#clip-6)"/><line x1="57" y1="177.28" x2="1149" y2="177.28" style="stroke-width: 1.0;stroke: rgb(192,192,192);stroke-opacity: 1;" transform="matrix(1,0,0,1,0,0)" clip-path="url(#clip-6)"/><line x1="57" y1="145.51" x2="1149" y2="145.51" style="stroke-width: 1.0;stroke: rgb(192,192,192);stroke-opacity: 1;" transform="matrix(1,0,0,1,0,0)" clip-path="url(#clip-6)"/><line x1="57" y1="113.73" x2="1149" y2="113.73" style="stroke-width: 1.0;stroke: rgb(192,192,192);stroke-opacity: 1;" transform="matrix(1,0,0,1,0,0)" clip-path="url(#clip-6)"/><line x1="57" y1="81.96" x2="1149" y2="81.96" style="stroke-width: 1.0;stroke: rgb(192,192,192);stroke-opacity: 1;" transform="matrix(1,0,0,1,0,0)" clip-path="url(#clip-6)"/><line x1="57" y1="50.18" x2="1149" y2="50.18" style="stroke-width: 1.0;stroke: rgb(192,192,192);stroke-opacity: 1;" transform="matrix(1,0,0,1,0,0)" clip-path="url(#clip-6)"/><line x1="57" y1="304.39" x2="1149" y2="304.39" style="stroke-width: 0.5;stroke: rgb(134,145,156);stroke-opacity: 1;" transform="matrix(1,0,0,1,0,0)" clip-path="url(#clip-6)"/><rect x="271.68" y="304.39" width="17.37" height="1.29" style="fill: rgb(0,191,255);fill-opacity: 1" transform="matrix(1,0,0,1,0,0)" clip-path="url(#clip-6)"/><rect x="544.68" y="242.26" width="17.37" height="62.13" style="fill: rgb(0,191,255);fill-opacity: 1" transform="matrix(1,0,0,1,0,0)" clip-path="url(#clip-6)"/><rect x="817.68" y="304.39" width="17.37" height="12.05" style="fill: rgb(0,191,255);fill-opacity: 1" transform="matrix(1,0,0,1,0,0)" clip-path="url(#clip-6)"/><rect x="1090.68" y="304.39" width="17.37" height="28.19" style="fill: rgb(0,191,255);fill-opacity: 1" transform="matrix(1,0,0,1,0,0)" clip-path="url(#clip-6)"/><rect x="254.3" y="304.39" width="17.37" height="3.22" style="fill: rgb(255,0,255);fill-opacity: 1" transform="matrix(1,0,0,1,0,0)" clip-path="url(#clip-6)"/><rect x="527.3" y="234" width="17.37" height="70.38" style="fill: rgb(255,0,255);fill-opacity: 1" transform="matrix(1,0,0,1,0,0)" clip-path="url(#clip-6)"/><rect x="800.3" y="304.39" width="17.37" height="30.12" style="fill: rgb(255,0,255);fill-opacity: 1" transform="matrix(1,0,0,1,0,0)" clip-path="url(#clip-6)"/><rect x="1073.3" y="304.39" width="17.37" height="18.85" style="fill: rgb(255,0,255);fill-opacity: 1" transform="matrix(1,0,0,1,0,0)" clip-path="url(#clip-6)"/><rect x="236.93" y="296.18" width="17.37" height="8.21" style="fill: rgb(255,185,15);fill-opacity: 1" transform="matrix(1,0,0,1,0,0)" clip-path="url(#clip-6)"/><rect x="509.93" y="231.6" width="17.37" height="72.79" style="fill: rgb(255,185,15);fill-opacity: 1" transform="matrix(1,0,0,1,0,0)" clip-path="url(#clip-6)"/><rect x="782.93" y="300.1" width="17.37" height="4.28" style="fill: rgb(255,185,15);fill-opacity: 1" transform="matrix(1,0,0,1,0,0)" clip-path="url(#clip-6)"/><rect x="1055.93" y="304.39" width="17.37" height="72.28" style="fill: rgb(255,185,15);fill-opacity: 1" transform="matrix(1,0,0,1,0,0)" clip-path="url(#clip-6)"/><rect x="219.56" y="304.39" width="17.37" height="12.79" style="fill: rgb(0,139,0);fill-opacity: 1" transform="matrix(1,0,0,1,0,0)" clip-path="url(#clip-6)"/><rect x="492.56" y="231.16" width="17.37" height="73.23" style="fill: rgb(0,139,0);fill-opacity: 1" transform="matrix(1,0,0,1,0,0)" clip-path="url(#clip-6)"/><rect x="765.56" y="304.39" width="17.37" height="4.13" style="fill: rgb(0,139,0);fill-opacity: 1" transform="matrix(1,0,0,1,0,0)" clip-path="url(#clip-6)"/><rect x="1038.56" y="304.39" width="17.37" height="49.97" style="fill: rgb(0,139,0);fill-opacity: 1" transform="matrix(1,0,0,1,0,0)" clip-path="url(#clip-6)"/><rect x="202.19" y="304.39" width="17.37" height="6.44" style="fill: rgb(0,0,128);fill-opacity: 1" transform="matrix(1,0,0,1,0,0)" clip-path="url(#clip-6)"/><rect x="475.19" y="224.54" width="17.37" height="79.84" style="fill: rgb(0,0,128);fill-opacity: 1" transform="matrix(1,0,0,1,0,0)" clip-path="url(#clip-6)"/><rect x="748.19" y="304.39" width="17.37" height="43.62" style="fill: rgb(0,0,128);fill-opacity: 1" transform="matrix(1,0,0,1,0,0)" clip-path="url(#clip-6)"/><rect x="1021.19" y="304.39" width="17.37" height="15.07" style="fill: rgb(0,0,128);fill-opacity: 1" transform="matrix(1,0,0,1,0,0)" clip-path="url(#clip-6)"/><rect x="184.81" y="295.88" width="17.37" height="8.51" style="fill: rgb(178,34,34);fill-opacity: 1" transform="matrix(1,0,0,1,0,0)" clip-path="url(#clip-6)"/><rect x="457.81" y="223.82" width="17.37" height="80.57" style="fill: rgb(178,34,34);fill-opacity: 1" transform="matrix(1,0,0,1,0,0)" clip-path="url(#clip-6)"/><rect x="730.81" y="304.39" width="17.37" height="22.52" style="fill: rgb(178,34,34);fill-opacity: 1" transform="matrix(1,0,0,1,0,0)" clip-path="url(#clip-6)"/><rect x="1003.81" y="304.39" width="17.37" height="38.61" style="fill: rgb(178,34,34);fill-opacity: 1" transform="matrix(1,0,0,1,0,0)" clip-path="url(#clip-6)"/><rect x="167.44" y="301.21" width="17.37" height="3.18" style="fill: rgb(255,20,147);fill-opacity: 1" transform="matrix(1,0,0,1,0,0)" clip-path="url(#clip-6)"/><rect x="440.44" y="222.08" width="17.37" height="82.3" style="fill: rgb(255,20,147);fill-opacity: 1" transform="matrix(1,0,0,1,0,0)" clip-path="url(#clip-6)"/><rect x="713.44" y="304.39" width="17.37" height="9.11" style="fill: rgb(255,20,147);fill-opacity: 1" transform="matrix(1,0,0,1,0,0)" clip-path="url(#clip-6)"/><rect x="986.44" y="304.39" width="17.37" height="55.05" style="fill: rgb(255,20,147);fill-opacity: 1" transform="matrix(1,0,0,1,0,0)" clip-path="url(#clip-6)"/><rect x="150.07" y="304.39" width="17.37" height="8.6" style="fill: rgb(255,215,0);fill-opacity: 1" transform="matrix(1,0,0,1,0,0)" clip-path="url(#clip-6)"/><rect x="423.07" y="219.93" width="17.37" height="84.46" style="fill: rgb(255,215,0);fill-opacity: 1" transform="matrix(1,0,0,1,0,0)" clip-path="url(#clip-6)"/><rect x="696.07" y="304.39" width="17.37" height="27.26" style="fill: rgb(255,215,0);fill-opacity: 1" transform="matrix(1,0,0,1,0,0)" clip-path="url(#clip-6)"/><rect x="969.07" y="304.39" width="17.37" height="22.04" style="fill: rgb(255,215,0);fill-opacity: 1" transform="matrix(1,0,0,1,0,0)" clip-path="url(#clip-6)"/><rect x="132.7" y="304.39" width="17.37" height="13.53" style="fill: rgb(0,205,0);fill-opacity: 1" transform="matrix(1,0,0,1,0,0)" clip-path="url(#clip-6)"/><rect x="405.7" y="206.52" width="17.37" height="97.87" style="fill: rgb(0,205,0);fill-opacity: 1" transform="matrix(1,0,0,1,0,0)" clip-path="url(#clip-6)"/><rect x="678.7" y="304.39" width="17.37" height="25.06" style="fill: rgb(0,205,0);fill-opacity: 1" transform="matrix(1,0,0,1,0,0)" clip-path="url(#clip-6)"/><rect x="951.7" y="304.39" width="17.37" height="29.22" style="fill: rgb(0,205,0);fill-opacity: 1" transform="matrix(1,0,0,1,0,0)" clip-path="url(#clip-6)"/><rect x="115.32" y="304.39" width="17.37" height="3.22" style="fill: rgb(0,0,255);fill-opacity: 1" transform="matrix(1,0,0,1,0,0)" clip-path="url(#clip-6)"/><rect x="388.32" y="198.68" width="17.37" height="105.7" style="fill: rgb(0,0,255);fill-opacity: 1" transform="matrix(1,0,0,1,0,0)" clip-path="url(#clip-6)"/><rect x="661.32" y="304.39" width="17.37" height="17.68" style="fill: rgb(0,0,255);fill-opacity: 1" transform="matrix(1,0,0,1,0,0)" clip-path="url(#clip-6)"/><rect x="934.32" y="304.39" width="17.37" height="51.51" style="fill: rgb(0,0,255);fill-opacity: 1" transform="matrix(1,0,0,1,0,0)" clip-path="url(#clip-6)"/><rect x="97.95" y="304.39" width="17.37" height="11.32" style="fill: rgb(255,0,0);fill-opacity: 1" transform="matrix(1,0,0,1,0,0)" clip-path="url(#clip-6)"/><rect x="370.95" y="28.14" width="17.37" height="276.25" style="fill: rgb(255,0,0);fill-opacity: 1" transform="matrix(1,0,0,1,0,0)" clip-path="url(#clip-6)"/><rect x="643.95" y="304.39" width="17.37" height="86.48" style="fill: rgb(255,0,0);fill-opacity: 1" transform="matrix(1,0,0,1,0,0)" clip-path="url(#clip-6)"/><rect x="916.95" y="304.39" width="17.37" height="73.97" style="fill: rgb(255,0,0);fill-opacity: 1" transform="matrix(1,0,0,1,0,0)" clip-path="url(#clip-6)"/><line x1="57" y1="272.61" x2="1149" y2="272.61" style="stroke-width: 0.5;stroke: rgb(255,0,0);stroke-opacity: 1;" transform="matrix(1,0,0,1,0,0)" clip-path="url(#clip-6)"/><rect x="1081" y="259.14" width="65" height="12" style="fill: rgb(100,100,100);fill-opacity: 0.392157" transform="matrix(1,0,0,1,0,0)" clip-path="url(#clip-6)"/><g transform="matrix(1,0,0,1,0,0)"><text x="1081" y="267.49" style="fill: rgb(0,0,0); font-family: sans-serif; font-size: 9px; " text-rendering="auto" clip-path="url(#clip-6)">Banalité : 2.0</text></g><line x1="57" y1="336.16" x2="1149" y2="336.16" style="stroke-width: 0.5;stroke: rgb(255,0,0);stroke-opacity: 1;" transform="matrix(1,0,0,1,0,0)" clip-path="url(#clip-6)"/><rect x="1078" y="322.69" width="68" height="12" style="fill: rgb(100,100,100);fill-opacity: 0.392157" transform="matrix(1,0,0,1,0,0)" clip-path="url(#clip-6)"/><g transform="matrix(1,0,0,1,0,0)"><text x="1078" y="331.04" style="fill: rgb(0,0,0); font-family: sans-serif; font-size: 9px; " text-rendering="auto" clip-path="url(#clip-6)">Banalité : -2.0</text></g></svg>
