<!DOCTYPE svg PUBLIC "-//W3C//DTD SVG 1.1//EN" "http://www.w3.org/Graphics/SVG/1.1/DTD/svg11.dtd">
<svg style="stroke-linecap:square;" xmlns="http://www.w3.org/2000/svg" xmlns:xlink="http://www.w3.org/1999/xlink" width="1269" height="490">
<defs><clipPath id="clip-0"><path d="M 0 0 L 1269 0 L 1269 490 L 0 490 L 0 0 M 0 0"/></clipPath>
<clipPath id="clip-1"><path d="M 614.62 227.38 L 614.62 1496.38 L 124.62 1496.38 L 124.62 227.38 L 614.62 227.38 M 614.62 227.38"/></clipPath>
<clipPath id="clip-2"><path d="M 887.88 -45.88 L 887.88 1223.12 L 397.88 1223.12 L 397.88 -45.88 L 887.88 -45.88 M 887.88 -45.88"/></clipPath>
<clipPath id="clip-3"><path d="M 1161.12 -319.12 L 1161.12 949.88 L 671.12 949.88 L 671.12 -319.12 L 1161.12 -319.12 M 1161.12 -319.12"/></clipPath>
<clipPath id="clip-4"><path d="M 1434.38 -592.38 L 1434.38 676.62 L 944.38 676.62 L 944.38 -592.38 L 1434.38 -592.38 M 1434.38 -592.38"/></clipPath>
<clipPath id="clip-5"><path d="M 232 187 L 232 1456 L -258 1456 L -258 187 L 232 187 M 232 187"/></clipPath>
<clipPath id="clip-6"><path d="M 57 10 L 57 409 L 1150 409 L 1150 10 M 57 10"/></clipPath>
</defs>
<rect x="0" y="0" width="1269" height="490" style="fill: rgb(255,255,255);fill-opacity: 1" transform="matrix(1,0,0,1,0,0)" clip-path="url(#clip-0)"/><rect x="1170" y="153" width="89" height="184" style="fill: rgb(255,255,255);fill-opacity: 1" transform="matrix(1,0,0,1,0,0)" clip-path="url(#clip-0)"/><g style="stroke-width: 1.0;stroke: rgb(192,192,192);stroke-opacity: 1; fill: none" transform="matrix(1,0,0,1,0,0)" clip-path="url(#clip-0)"><path d="M 1170 158 L 1170 332 C 1170 334.76 1172.24 337 1175 337 L 1254 337 C 1256.76 337 1259 334.76 1259 332 L 1259 158 C 1259 155.24 1256.76 153 1254 153 L 1175 153 C 1172.24 153 1170 155.24 1170 158 M 1170 158"/></g><g style="fill: rgb(255,0,0);fill-opacity: 1; stroke: none" transform="matrix(1,0,0,1,0,0)" clip-path="url(#clip-0)"><path d="M 1174 159 L 1180 159 L 1180 169 L 1174 169 L 1174 159 M 1174 159"/></g><g transform="matrix(1,0,0,1,0,0)"><text x="1184" y="167.48" style="fill: rgb(39,75,109); font-family: Lucida Sans; font-size: 11px; font-weight: bold; " text-rendering="auto" clip-path="url(#clip-0)">coiffure</text></g><g style="fill: rgb(0,0,255);fill-opacity: 1; stroke: none" transform="matrix(1,0,0,1,0,0)" clip-path="url(#clip-0)"><path d="M 1174 177 L 1180 177 L 1180 187 L 1174 187 L 1174 177 M 1174 177"/></g><g transform="matrix(1,0,0,1,0,0)"><text x="1184" y="185.48" style="fill: rgb(39,75,109); font-family: Lucida Sans; font-size: 11px; font-weight: bold; " text-rendering="auto" clip-path="url(#clip-0)">sérieuse</text></g><g style="fill: rgb(0,139,0);fill-opacity: 1; stroke: none" transform="matrix(1,0,0,1,0,0)" clip-path="url(#clip-0)"><path d="M 1174 195 L 1180 195 L 1180 205 L 1174 205 L 1174 195 M 1174 195"/></g><g transform="matrix(1,0,0,1,0,0)"><text x="1184" y="203.48" style="fill: rgb(39,75,109); font-family: Lucida Sans; font-size: 11px; font-weight: bold; " text-rendering="auto" clip-path="url(#clip-0)">femme</text></g><g style="fill: rgb(255,215,0);fill-opacity: 1; stroke: none" transform="matrix(1,0,0,1,0,0)" clip-path="url(#clip-0)"><path d="M 1174 213 L 1180 213 L 1180 223 L 1174 223 L 1174 213 M 1174 213"/></g><g transform="matrix(1,0,0,1,0,0)"><text x="1184" y="221.48" style="fill: rgb(39,75,109); font-family: Lucida Sans; font-size: 11px; font-weight: bold; " text-rendering="auto" clip-path="url(#clip-0)">diététicienne</text></g><g style="fill: rgb(255,20,147);fill-opacity: 1; stroke: none" transform="matrix(1,0,0,1,0,0)" clip-path="url(#clip-0)"><path d="M 1174 231 L 1180 231 L 1180 241 L 1174 241 L 1174 231 M 1174 231"/></g><g transform="matrix(1,0,0,1,0,0)"><text x="1184" y="239.48" style="fill: rgb(39,75,109); font-family: Lucida Sans; font-size: 11px; font-weight: bold; " text-rendering="auto" clip-path="url(#clip-0)">dynamique</text></g><g style="fill: rgb(178,34,34);fill-opacity: 1; stroke: none" transform="matrix(1,0,0,1,0,0)" clip-path="url(#clip-0)"><path d="M 1174 249 L 1180 249 L 1180 259 L 1174 259 L 1174 249 M 1174 249"/></g><g transform="matrix(1,0,0,1,0,0)"><text x="1184" y="257.48" style="fill: rgb(39,75,109); font-family: Lucida Sans; font-size: 11px; font-weight: bold; " text-rendering="auto" clip-path="url(#clip-0)">étudiante</text></g><g style="fill: rgb(0,191,255);fill-opacity: 1; stroke: none" transform="matrix(1,0,0,1,0,0)" clip-path="url(#clip-0)"><path d="M 1174 267 L 1180 267 L 1180 277 L 1174 277 L 1174 267 M 1174 267"/></g><g transform="matrix(1,0,0,1,0,0)"><text x="1184" y="275.48" style="fill: rgb(39,75,109); font-family: Lucida Sans; font-size: 11px; font-weight: bold; " text-rendering="auto" clip-path="url(#clip-0)">coiffeuse</text></g><g style="fill: rgb(173,255,47);fill-opacity: 1; stroke: none" transform="matrix(1,0,0,1,0,0)" clip-path="url(#clip-0)"><path d="M 1174 285 L 1180 285 L 1180 295 L 1174 295 L 1174 285 M 1174 285"/></g><g transform="matrix(1,0,0,1,0,0)"><text x="1184" y="293.48" style="fill: rgb(39,75,109); font-family: Lucida Sans; font-size: 11px; font-weight: bold; " text-rendering="auto" clip-path="url(#clip-0)">motivée</text></g><g style="fill: rgb(255,185,15);fill-opacity: 1; stroke: none" transform="matrix(1,0,0,1,0,0)" clip-path="url(#clip-0)"><path d="M 1174 303 L 1180 303 L 1180 313 L 1174 313 L 1174 303 M 1174 303"/></g><g transform="matrix(1,0,0,1,0,0)"><text x="1184" y="311.48" style="fill: rgb(39,75,109); font-family: Lucida Sans; font-size: 11px; font-weight: bold; " text-rendering="auto" clip-path="url(#clip-0)">aime</text></g><g style="fill: rgb(255,0,255);fill-opacity: 1; stroke: none" transform="matrix(1,0,0,1,0,0)" clip-path="url(#clip-0)"><path d="M 1174 321 L 1180 321 L 1180 331 L 1174 331 L 1174 321 M 1174 321"/></g><g transform="matrix(1,0,0,1,0,0)"><text x="1184" y="329.48" style="fill: rgb(39,75,109); font-family: Lucida Sans; font-size: 11px; font-weight: bold; " text-rendering="auto" clip-path="url(#clip-0)">polyvalente</text></g><rect x="57" y="10" width="1093" height="399" style="fill: rgb(255,255,255);fill-opacity: 1" transform="matrix(1,0,0,1,0,0)" clip-path="url(#clip-0)"/><line x1="57" y1="409" x2="1150" y2="409" style="stroke-width: 0.5;stroke: rgb(192,208,224);stroke-opacity: 1;" transform="matrix(1,0,0,1,0,0)" clip-path="url(#clip-0)"/><g style="fill: rgb(102,102,102);fill-opacity: 1; stroke: none" transform="matrix(0,-1,1,0,-227.375,614.625)" clip-path="url(#clip-1)"><path d="M 167.75 425.68 L 170.84 417.73 L 172.5 417.73 L 175.59 425.68 L 173.89 425.68 L 173.06 423.55 L 169.78 423.55 L 168.95 425.68 L 167.75 425.68 M 167.75 425.68 M 170.19 422.49 L 172.66 422.49 L 171.42 419.34 L 170.19 422.49 M 170.19 422.49 M 176.62 425.68 L 176.62 419.79 L 178.14 419.79 L 178.14 420.9 Q 178.84 419.65 180.12 419.65 Q 180.8 419.65 181.23 419.98 Q 181.66 420.3 181.75 420.9 Q 182.58 419.65 183.75 419.65 Q 185.38 419.65 185.38 421.43 L 185.38 425.68 L 183.84 425.68 L 183.84 421.95 Q 183.84 420.9 183.14 420.9 Q 182.44 420.9 181.75 421.93 L 181.75 425.68 L 180.23 425.68 L 180.23 421.95 Q 180.23 420.9 179.53 420.9 Q 178.83 420.9 178.14 421.93 L 178.14 425.68 L 176.62 425.68 M 176.62 425.68 M 187.62 425.68 L 187.62 417.2 L 189.2 417.2 L 189.2 420.9 Q 189.83 419.65 191.14 419.65 Q 192.2 419.65 192.81 420.43 Q 193.42 421.21 193.42 422.57 Q 193.42 424.04 192.73 424.93 Q 192.05 425.82 190.89 425.82 Q 189.91 425.82 189.2 425.09 L 188.91 425.68 L 187.62 425.68 M 187.62 425.68 M 189.2 424.13 Q 189.78 424.79 190.44 424.79 Q 191.03 424.79 191.38 424.22 Q 191.73 423.65 191.73 422.71 Q 191.73 420.9 190.56 420.9 Q 189.86 420.9 189.2 421.8 L 189.2 424.13 M 189.2 424.13"/></g><line x1="330.25" y1="414" x2="330.25" y2="409" style="stroke-width: 0.5;stroke: rgb(192,208,224);stroke-opacity: 1;" transform="matrix(1,0,0,1,0,0)" clip-path="url(#clip-0)"/><line x1="57" y1="414" x2="57" y2="409" style="stroke-width: 0.5;stroke: rgb(192,208,224);stroke-opacity: 1;" transform="matrix(1,0,0,1,0,0)" clip-path="url(#clip-0)"/><g style="fill: rgb(102,102,102);fill-opacity: 1; stroke: none" transform="matrix(0,-1,1,0,45.875,887.875)" clip-path="url(#clip-2)"><path d="M 431.88 425.68 L 431.88 417.73 L 433.33 417.73 L 437.02 423.16 L 437.02 417.73 L 438.33 417.73 L 438.33 425.68 L 436.86 425.68 L 433.2 420.24 L 433.2 425.68 L 431.88 425.68 M 431.88 425.68 M 444.67 425.48 Q 443.53 425.82 442.52 425.82 Q 441.05 425.82 440.2 424.98 Q 439.34 424.13 439.34 422.7 Q 439.34 421.32 440.12 420.48 Q 440.91 419.65 442.19 419.65 Q 443.48 419.65 444.08 420.46 Q 444.67 421.27 444.67 423.05 L 441.02 423.05 Q 441.17 424.73 442.86 424.73 Q 443.67 424.73 444.67 424.37 L 444.67 425.48 M 444.67 425.48 M 440.98 422.15 L 443.11 422.15 Q 443.11 420.65 442.14 420.65 Q 441.14 420.65 440.98 422.15 M 440.98 422.15 M 449.52 425.68 L 449.52 424.57 Q 448.75 425.82 447.5 425.82 Q 446.72 425.82 446.26 425.32 Q 445.8 424.82 445.8 423.95 L 445.8 419.79 L 447.39 419.79 L 447.39 423.55 Q 447.39 424.55 448.06 424.55 Q 448.81 424.55 449.52 423.49 L 449.52 419.79 L 451.11 419.79 L 451.11 425.68 L 449.52 425.68 M 449.52 425.68 M 455.91 425.65 Q 455.34 425.82 455.02 425.82 Q 452.94 425.82 452.94 423.88 L 452.94 420.77 L 452.28 420.77 L 452.28 419.79 L 452.94 419.79 L 452.94 418.79 L 454.53 418.6 L 454.53 419.79 L 455.8 419.79 L 455.8 420.77 L 454.53 420.77 L 454.53 423.66 Q 454.53 424.76 455.42 424.76 Q 455.62 424.76 455.91 424.68 L 455.91 425.65 M 455.91 425.65 M 456.88 425.68 L 456.88 419.79 L 458.45 419.79 L 458.45 420.9 Q 459.08 419.65 460.34 419.65 Q 460.48 419.65 460.64 419.68 L 460.64 421.1 Q 460.3 420.98 460 420.98 Q 459.06 420.98 458.45 421.93 L 458.45 425.68 L 456.88 425.68 M 456.88 425.68 M 466.67 425.48 Q 465.53 425.82 464.52 425.82 Q 463.05 425.82 462.2 424.98 Q 461.34 424.13 461.34 422.7 Q 461.34 421.32 462.12 420.48 Q 462.91 419.65 464.19 419.65 Q 465.48 419.65 466.08 420.46 Q 466.67 421.27 466.67 423.05 L 463.02 423.05 Q 463.17 424.73 464.86 424.73 Q 465.67 424.73 466.67 424.37 L 466.67 425.48 M 466.67 425.48 M 462.98 422.15 L 465.11 422.15 Q 465.11 420.65 464.14 420.65 Q 463.14 420.65 462.98 422.15 M 462.98 422.15"/></g><line x1="603.5" y1="414" x2="603.5" y2="409" style="stroke-width: 0.5;stroke: rgb(192,208,224);stroke-opacity: 1;" transform="matrix(1,0,0,1,0,0)" clip-path="url(#clip-0)"/><g style="fill: rgb(102,102,102);fill-opacity: 1; stroke: none" transform="matrix(0,-1,1,0,319.125,1161.125)" clip-path="url(#clip-3)"><path d="M 718.12 425.68 L 718.12 417.73 L 723.12 417.73 L 723.12 418.82 L 719.77 418.82 L 719.77 421.24 L 722.52 421.24 L 722.52 422.34 L 719.77 422.34 L 719.77 425.68 L 718.12 425.68 M 718.12 425.68 M 728.92 425.48 Q 727.78 425.82 726.77 425.82 Q 725.3 425.82 724.45 424.98 Q 723.59 424.13 723.59 422.7 Q 723.59 421.32 724.38 420.48 Q 725.16 419.65 726.44 419.65 Q 727.73 419.65 728.33 420.46 Q 728.92 421.27 728.92 423.05 L 725.27 423.05 Q 725.42 424.73 727.11 424.73 Q 727.92 424.73 728.92 424.37 L 728.92 425.48 M 728.92 425.48 M 725.23 422.15 L 727.36 422.15 Q 727.36 420.65 726.39 420.65 Q 725.39 420.65 725.23 422.15 M 725.23 422.15 M 730.12 425.68 L 730.12 419.79 L 731.64 419.79 L 731.64 420.9 Q 732.34 419.65 733.62 419.65 Q 734.3 419.65 734.73 419.98 Q 735.16 420.3 735.25 420.9 Q 736.08 419.65 737.25 419.65 Q 738.88 419.65 738.88 421.43 L 738.88 425.68 L 737.34 425.68 L 737.34 421.95 Q 737.34 420.9 736.64 420.9 Q 735.94 420.9 735.25 421.93 L 735.25 425.68 L 733.73 425.68 L 733.73 421.95 Q 733.73 420.9 733.03 420.9 Q 732.33 420.9 731.64 421.93 L 731.64 425.68 L 730.12 425.68 M 730.12 425.68"/></g><line x1="876.75" y1="414" x2="876.75" y2="409" style="stroke-width: 0.5;stroke: rgb(192,208,224);stroke-opacity: 1;" transform="matrix(1,0,0,1,0,0)" clip-path="url(#clip-0)"/><g style="fill: rgb(102,102,102);fill-opacity: 1; stroke: none" transform="matrix(0,-1,1,0,592.375,1434.375)" clip-path="url(#clip-4)"><path d="M 986.38 425.68 L 986.38 417.73 L 988.56 417.73 L 990.47 423.32 L 992.44 417.73 L 994.36 417.73 L 994.36 425.68 L 992.84 425.68 L 992.84 419.68 L 990.91 425.15 L 989.56 425.15 L 987.67 419.6 L 987.67 425.68 L 986.38 425.68 M 986.38 425.68 M 999.27 425.04 Q 998.47 425.82 997.56 425.82 Q 996.78 425.82 996.3 425.34 Q 995.81 424.87 995.81 424.12 Q 995.81 423.13 996.59 422.61 Q 997.38 422.09 998.83 422.09 L 999.27 422.09 L 999.27 421.54 Q 999.27 420.63 998.22 420.63 Q 997.28 420.63 996.33 421.15 L 996.33 420.05 Q 997.41 419.65 998.47 419.65 Q 1000.78 419.65 1000.78 421.49 L 1000.78 424.1 Q 1000.78 424.79 1001.23 424.79 Q 1001.31 424.79 1001.44 424.77 L 1001.48 425.66 Q 1000.97 425.82 1000.58 425.82 Q 999.61 425.82 999.33 425.04 L 999.27 425.04 M 999.27 425.04 M 999.27 424.2 L 999.27 422.99 L 998.88 422.99 Q 997.34 422.99 997.34 423.96 Q 997.34 424.29 997.56 424.51 Q 997.78 424.73 998.11 424.73 Q 998.67 424.73 999.27 424.2 M 999.27 424.2 M 1002.22 425.49 L 1002.22 424.32 Q 1003.39 424.82 1004.23 424.82 Q 1005.2 424.82 1005.2 424.15 Q 1005.2 423.73 1004.41 423.4 L 1003.88 423.18 Q 1002.98 422.84 1002.61 422.43 Q 1002.23 422.02 1002.23 421.41 Q 1002.23 420.57 1002.88 420.11 Q 1003.52 419.65 1004.67 419.65 Q 1005.39 419.65 1006.38 419.85 L 1006.38 420.98 Q 1005.42 420.65 1004.8 420.65 Q 1003.81 420.65 1003.81 421.26 Q 1003.81 421.66 1004.53 421.93 L 1005 422.12 Q 1006.03 422.51 1006.44 422.91 Q 1006.84 423.3 1006.84 423.95 Q 1006.84 424.77 1006.16 425.3 Q 1005.47 425.82 1004.36 425.82 Q 1003.3 425.82 1002.22 425.49 M 1002.22 425.49 M 1012.72 425.55 Q 1011.73 425.82 1010.89 425.82 Q 1009.47 425.82 1008.66 424.98 Q 1007.84 424.15 1007.84 422.73 Q 1007.84 421.27 1008.69 420.46 Q 1009.53 419.65 1011.02 419.65 Q 1011.73 419.65 1012.67 419.88 L 1012.67 421.02 Q 1011.69 420.71 1011.11 420.71 Q 1010.39 420.71 1009.96 421.26 Q 1009.53 421.8 1009.53 422.71 Q 1009.53 423.65 1010 424.2 Q 1010.47 424.76 1011.25 424.76 Q 1011.97 424.76 1012.72 424.45 L 1012.72 425.55 M 1012.72 425.55"/></g><line x1="1150" y1="414" x2="1150" y2="409" style="stroke-width: 0.5;stroke: rgb(192,208,224);stroke-opacity: 1;" transform="matrix(1,0,0,1,0,0)" clip-path="url(#clip-0)"/><g transform="matrix(1,0,0,1,0,0)"><text x="581" y="473.84" style="fill: rgb(77,117,158); font-family: Lucida Sans; font-size: 15px; font-weight: bold; " text-rendering="auto" clip-path="url(#clip-0)">Partie</text></g><g transform="matrix(1,0,0,1,0,0)"><text x="37" y="378.01" style="fill: rgb(102,102,102); font-family: Lucida Sans; font-size: 11px; font-weight: bold; " text-rendering="auto" clip-path="url(#clip-0)">-8</text></g><g transform="matrix(1,0,0,1,0,0)"><text x="37" y="351.85" style="fill: rgb(102,102,102); font-family: Lucida Sans; font-size: 11px; font-weight: bold; " text-rendering="auto" clip-path="url(#clip-0)">-6</text></g><g transform="matrix(1,0,0,1,0,0)"><text x="37" y="325.69" style="fill: rgb(102,102,102); font-family: Lucida Sans; font-size: 11px; font-weight: bold; " text-rendering="auto" clip-path="url(#clip-0)">-4</text></g><g transform="matrix(1,0,0,1,0,0)"><text x="37" y="299.53" style="fill: rgb(102,102,102); font-family: Lucida Sans; font-size: 11px; font-weight: bold; " text-rendering="auto" clip-path="url(#clip-0)">-2</text></g><g transform="matrix(1,0,0,1,0,0)"><text x="44" y="273.37" style="fill: rgb(102,102,102); font-family: Lucida Sans; font-size: 11px; font-weight: bold; " text-rendering="auto" clip-path="url(#clip-0)">0</text></g><g transform="matrix(1,0,0,1,0,0)"><text x="44" y="247.21" style="fill: rgb(102,102,102); font-family: Lucida Sans; font-size: 11px; font-weight: bold; " text-rendering="auto" clip-path="url(#clip-0)">2</text></g><g transform="matrix(1,0,0,1,0,0)"><text x="44" y="221.05" style="fill: rgb(102,102,102); font-family: Lucida Sans; font-size: 11px; font-weight: bold; " text-rendering="auto" clip-path="url(#clip-0)">4</text></g><g transform="matrix(1,0,0,1,0,0)"><text x="44" y="194.89" style="fill: rgb(102,102,102); font-family: Lucida Sans; font-size: 11px; font-weight: bold; " text-rendering="auto" clip-path="url(#clip-0)">6</text></g><g transform="matrix(1,0,0,1,0,0)"><text x="44" y="168.74" style="fill: rgb(102,102,102); font-family: Lucida Sans; font-size: 11px; font-weight: bold; " text-rendering="auto" clip-path="url(#clip-0)">8</text></g><g transform="matrix(1,0,0,1,0,0)"><text x="37" y="142.58" style="fill: rgb(102,102,102); font-family: Lucida Sans; font-size: 11px; font-weight: bold; " text-rendering="auto" clip-path="url(#clip-0)">10</text></g><g transform="matrix(1,0,0,1,0,0)"><text x="37" y="116.42" style="fill: rgb(102,102,102); font-family: Lucida Sans; font-size: 11px; font-weight: bold; " text-rendering="auto" clip-path="url(#clip-0)">12</text></g><g transform="matrix(1,0,0,1,0,0)"><text x="37" y="90.26" style="fill: rgb(102,102,102); font-family: Lucida Sans; font-size: 11px; font-weight: bold; " text-rendering="auto" clip-path="url(#clip-0)">14</text></g><g transform="matrix(1,0,0,1,0,0)"><text x="37" y="64.1" style="fill: rgb(102,102,102); font-family: Lucida Sans; font-size: 11px; font-weight: bold; " text-rendering="auto" clip-path="url(#clip-0)">16</text></g><g transform="matrix(1,0,0,1,0,0)"><text x="37" y="37.94" style="fill: rgb(102,102,102); font-family: Lucida Sans; font-size: 11px; font-weight: bold; " text-rendering="auto" clip-path="url(#clip-0)">18</text></g><g style="fill: rgb(77,117,158);fill-opacity: 1; stroke: none" transform="matrix(0,-1,1,0,-187,232)" clip-path="url(#clip-5)"><path d="M 0.36 215.84 L 0.36 204.99 L 2.61 204.99 L 2.61 215.84 L 0.36 215.84 M 0.36 215.84 M 5.36 215.84 L 5.36 207.79 L 7.52 207.79 L 7.52 209.3 Q 8.58 207.62 10.27 207.62 Q 11.34 207.62 11.96 208.3 Q 12.58 208.98 12.58 210.15 L 12.58 215.84 L 10.42 215.84 L 10.42 210.68 Q 10.42 209.32 9.52 209.32 Q 8.47 209.32 7.52 210.77 L 7.52 215.84 L 5.36 215.84 M 5.36 215.84 M 20.42 215.84 L 20.42 214.32 Q 19.58 216.02 17.78 216.02 Q 16.34 216.02 15.52 214.96 Q 14.69 213.9 14.69 212.04 Q 14.69 210.01 15.62 208.81 Q 16.55 207.62 18.12 207.62 Q 19.39 207.62 20.42 208.6 L 20.42 204.27 L 22.59 204.27 L 22.59 215.84 L 20.42 215.84 M 20.42 215.84 M 20.42 209.9 Q 19.62 209.02 18.73 209.02 Q 17.94 209.02 17.46 209.79 Q 16.98 210.55 16.98 211.85 Q 16.98 214.32 18.58 214.32 Q 19.53 214.32 20.42 213.09 L 20.42 209.9 M 20.42 209.9 M 25.36 215.84 L 25.36 207.79 L 27.52 207.79 L 27.52 215.84 L 25.36 215.84 M 25.36 215.84 M 25.36 206.45 L 25.36 204.63 L 27.52 204.63 L 27.52 206.45 L 25.36 206.45 M 25.36 206.45 M 36.28 215.66 Q 34.94 216.02 33.8 216.02 Q 31.86 216.02 30.74 214.89 Q 29.62 213.76 29.62 211.8 Q 29.62 209.84 30.78 208.73 Q 31.94 207.62 33.95 207.62 Q 34.94 207.62 36.22 207.93 L 36.22 209.49 Q 34.89 209.05 34.09 209.05 Q 33.11 209.05 32.52 209.8 Q 31.94 210.55 31.94 211.79 Q 31.94 213.05 32.58 213.82 Q 33.22 214.59 34.28 214.59 Q 35.25 214.59 36.28 214.16 L 36.28 215.66 M 36.28 215.66 M 44.91 215.57 Q 43.36 216.02 41.97 216.02 Q 39.95 216.02 38.79 214.88 Q 37.62 213.73 37.62 211.76 Q 37.62 209.88 38.7 208.75 Q 39.77 207.62 41.52 207.62 Q 43.28 207.62 44.09 208.73 Q 44.91 209.84 44.91 212.24 L 39.92 212.24 Q 40.14 214.54 42.44 214.54 Q 43.53 214.54 44.91 214.04 L 44.91 215.57 M 44.91 215.57 M 39.89 211.02 L 42.77 211.02 Q 42.77 208.96 41.45 208.96 Q 40.09 208.96 39.89 211.02 M 39.89 211.02"/></g><line x1="57" y1="373.33" x2="1150" y2="373.33" style="stroke-width: 1.0;stroke: rgb(192,192,192);stroke-opacity: 1;" transform="matrix(1,0,0,1,0,0)" clip-path="url(#clip-6)"/><line x1="57" y1="347.17" x2="1150" y2="347.17" style="stroke-width: 1.0;stroke: rgb(192,192,192);stroke-opacity: 1;" transform="matrix(1,0,0,1,0,0)" clip-path="url(#clip-6)"/><line x1="57" y1="321.01" x2="1150" y2="321.01" style="stroke-width: 1.0;stroke: rgb(192,192,192);stroke-opacity: 1;" transform="matrix(1,0,0,1,0,0)" clip-path="url(#clip-6)"/><line x1="57" y1="294.85" x2="1150" y2="294.85" style="stroke-width: 1.0;stroke: rgb(192,192,192);stroke-opacity: 1;" transform="matrix(1,0,0,1,0,0)" clip-path="url(#clip-6)"/><line x1="57" y1="242.53" x2="1150" y2="242.53" style="stroke-width: 1.0;stroke: rgb(192,192,192);stroke-opacity: 1;" transform="matrix(1,0,0,1,0,0)" clip-path="url(#clip-6)"/><line x1="57" y1="216.37" x2="1150" y2="216.37" style="stroke-width: 1.0;stroke: rgb(192,192,192);stroke-opacity: 1;" transform="matrix(1,0,0,1,0,0)" clip-path="url(#clip-6)"/><line x1="57" y1="190.22" x2="1150" y2="190.22" style="stroke-width: 1.0;stroke: rgb(192,192,192);stroke-opacity: 1;" transform="matrix(1,0,0,1,0,0)" clip-path="url(#clip-6)"/><line x1="57" y1="164.06" x2="1150" y2="164.06" style="stroke-width: 1.0;stroke: rgb(192,192,192);stroke-opacity: 1;" transform="matrix(1,0,0,1,0,0)" clip-path="url(#clip-6)"/><line x1="57" y1="137.9" x2="1150" y2="137.9" style="stroke-width: 1.0;stroke: rgb(192,192,192);stroke-opacity: 1;" transform="matrix(1,0,0,1,0,0)" clip-path="url(#clip-6)"/><line x1="57" y1="111.74" x2="1150" y2="111.74" style="stroke-width: 1.0;stroke: rgb(192,192,192);stroke-opacity: 1;" transform="matrix(1,0,0,1,0,0)" clip-path="url(#clip-6)"/><line x1="57" y1="85.58" x2="1150" y2="85.58" style="stroke-width: 1.0;stroke: rgb(192,192,192);stroke-opacity: 1;" transform="matrix(1,0,0,1,0,0)" clip-path="url(#clip-6)"/><line x1="57" y1="59.42" x2="1150" y2="59.42" style="stroke-width: 1.0;stroke: rgb(192,192,192);stroke-opacity: 1;" transform="matrix(1,0,0,1,0,0)" clip-path="url(#clip-6)"/><line x1="57" y1="33.26" x2="1150" y2="33.26" style="stroke-width: 1.0;stroke: rgb(192,192,192);stroke-opacity: 1;" transform="matrix(1,0,0,1,0,0)" clip-path="url(#clip-6)"/><line x1="57" y1="268.69" x2="1150" y2="268.69" style="stroke-width: 0.5;stroke: rgb(134,145,156);stroke-opacity: 1;" transform="matrix(1,0,0,1,0,0)" clip-path="url(#clip-6)"/><rect x="270.13" y="268.69" width="19.13" height="2.83" style="fill: rgb(255,0,255);fill-opacity: 1" transform="matrix(1,0,0,1,0,0)" clip-path="url(#clip-6)"/><rect x="543.38" y="268.69" width="19.13" height="22.94" style="fill: rgb(255,0,255);fill-opacity: 1" transform="matrix(1,0,0,1,0,0)" clip-path="url(#clip-6)"/><rect x="816.63" y="165.62" width="19.13" height="103.08" style="fill: rgb(255,0,255);fill-opacity: 1" transform="matrix(1,0,0,1,0,0)" clip-path="url(#clip-6)"/><rect x="1089.88" y="268.69" width="19.13" height="45.93" style="fill: rgb(255,0,255);fill-opacity: 1" transform="matrix(1,0,0,1,0,0)" clip-path="url(#clip-6)"/><rect x="251.01" y="268.69" width="19.13" height="5.83" style="fill: rgb(255,185,15);fill-opacity: 1" transform="matrix(1,0,0,1,0,0)" clip-path="url(#clip-6)"/><rect x="524.26" y="268.69" width="19.13" height="66" style="fill: rgb(255,185,15);fill-opacity: 1" transform="matrix(1,0,0,1,0,0)" clip-path="url(#clip-6)"/><rect x="797.51" y="162.14" width="19.13" height="106.55" style="fill: rgb(255,185,15);fill-opacity: 1" transform="matrix(1,0,0,1,0,0)" clip-path="url(#clip-6)"/><rect x="1070.76" y="268.69" width="19.13" height="17.63" style="fill: rgb(255,185,15);fill-opacity: 1" transform="matrix(1,0,0,1,0,0)" clip-path="url(#clip-6)"/><rect x="231.88" y="216.93" width="19.13" height="51.77" style="fill: rgb(173,255,47);fill-opacity: 1" transform="matrix(1,0,0,1,0,0)" clip-path="url(#clip-6)"/><rect x="505.13" y="268.69" width="19.13" height="40.67" style="fill: rgb(173,255,47);fill-opacity: 1" transform="matrix(1,0,0,1,0,0)" clip-path="url(#clip-6)"/><rect x="778.38" y="155.32" width="19.13" height="113.37" style="fill: rgb(173,255,47);fill-opacity: 1" transform="matrix(1,0,0,1,0,0)" clip-path="url(#clip-6)"/><rect x="1051.63" y="268.69" width="19.13" height="86.94" style="fill: rgb(173,255,47);fill-opacity: 1" transform="matrix(1,0,0,1,0,0)" clip-path="url(#clip-6)"/><rect x="212.75" y="263.89" width="19.13" height="4.81" style="fill: rgb(0,191,255);fill-opacity: 1" transform="matrix(1,0,0,1,0,0)" clip-path="url(#clip-6)"/><rect x="486" y="268.69" width="19.13" height="25.8" style="fill: rgb(0,191,255);fill-opacity: 1" transform="matrix(1,0,0,1,0,0)" clip-path="url(#clip-6)"/><rect x="759.25" y="150.63" width="19.13" height="118.06" style="fill: rgb(0,191,255);fill-opacity: 1" transform="matrix(1,0,0,1,0,0)" clip-path="url(#clip-6)"/><rect x="1032.5" y="268.69" width="19.13" height="69.63" style="fill: rgb(0,191,255);fill-opacity: 1" transform="matrix(1,0,0,1,0,0)" clip-path="url(#clip-6)"/><rect x="193.62" y="236.69" width="19.13" height="32.01" style="fill: rgb(178,34,34);fill-opacity: 1" transform="matrix(1,0,0,1,0,0)" clip-path="url(#clip-6)"/><rect x="466.88" y="268.69" width="19.13" height="48.74" style="fill: rgb(178,34,34);fill-opacity: 1" transform="matrix(1,0,0,1,0,0)" clip-path="url(#clip-6)"/><rect x="740.12" y="147.68" width="19.13" height="121.01" style="fill: rgb(178,34,34);fill-opacity: 1" transform="matrix(1,0,0,1,0,0)" clip-path="url(#clip-6)"/><rect x="1013.38" y="268.69" width="19.13" height="81.99" style="fill: rgb(178,34,34);fill-opacity: 1" transform="matrix(1,0,0,1,0,0)" clip-path="url(#clip-6)"/><rect x="174.5" y="254.25" width="19.13" height="14.44" style="fill: rgb(255,20,147);fill-opacity: 1" transform="matrix(1,0,0,1,0,0)" clip-path="url(#clip-6)"/><rect x="447.75" y="268.69" width="19.13" height="55.67" style="fill: rgb(255,20,147);fill-opacity: 1" transform="matrix(1,0,0,1,0,0)" clip-path="url(#clip-6)"/><rect x="721" y="142.67" width="19.13" height="126.02" style="fill: rgb(255,20,147);fill-opacity: 1" transform="matrix(1,0,0,1,0,0)" clip-path="url(#clip-6)"/><rect x="994.25" y="268.69" width="19.13" height="44.72" style="fill: rgb(255,20,147);fill-opacity: 1" transform="matrix(1,0,0,1,0,0)" clip-path="url(#clip-6)"/><rect x="155.37" y="268.69" width="19.13" height="4.24" style="fill: rgb(255,215,0);fill-opacity: 1" transform="matrix(1,0,0,1,0,0)" clip-path="url(#clip-6)"/><rect x="428.62" y="268.69" width="19.13" height="34.41" style="fill: rgb(255,215,0);fill-opacity: 1" transform="matrix(1,0,0,1,0,0)" clip-path="url(#clip-6)"/><rect x="701.87" y="125.44" width="19.13" height="143.26" style="fill: rgb(255,215,0);fill-opacity: 1" transform="matrix(1,0,0,1,0,0)" clip-path="url(#clip-6)"/><rect x="975.12" y="268.69" width="19.13" height="60.69" style="fill: rgb(255,215,0);fill-opacity: 1" transform="matrix(1,0,0,1,0,0)" clip-path="url(#clip-6)"/><rect x="136.24" y="268.69" width="19.13" height="5.48" style="fill: rgb(0,139,0);fill-opacity: 1" transform="matrix(1,0,0,1,0,0)" clip-path="url(#clip-6)"/><rect x="409.49" y="268.69" width="19.13" height="44.44" style="fill: rgb(0,139,0);fill-opacity: 1" transform="matrix(1,0,0,1,0,0)" clip-path="url(#clip-6)"/><rect x="682.74" y="92.73" width="19.13" height="175.96" style="fill: rgb(0,139,0);fill-opacity: 1" transform="matrix(1,0,0,1,0,0)" clip-path="url(#clip-6)"/><rect x="955.99" y="268.69" width="19.13" height="71.95" style="fill: rgb(0,139,0);fill-opacity: 1" transform="matrix(1,0,0,1,0,0)" clip-path="url(#clip-6)"/><rect x="117.11" y="253.98" width="19.13" height="14.72" style="fill: rgb(0,0,255);fill-opacity: 1" transform="matrix(1,0,0,1,0,0)" clip-path="url(#clip-6)"/><rect x="390.37" y="268.69" width="19.13" height="53.79" style="fill: rgb(0,0,255);fill-opacity: 1" transform="matrix(1,0,0,1,0,0)" clip-path="url(#clip-6)"/><rect x="663.62" y="39.11" width="19.13" height="229.58" style="fill: rgb(0,0,255);fill-opacity: 1" transform="matrix(1,0,0,1,0,0)" clip-path="url(#clip-6)"/><rect x="936.87" y="268.69" width="19.13" height="122.17" style="fill: rgb(0,0,255);fill-opacity: 1" transform="matrix(1,0,0,1,0,0)" clip-path="url(#clip-6)"/><rect x="97.99" y="268.69" width="19.13" height="5.49" style="fill: rgb(255,0,0);fill-opacity: 1" transform="matrix(1,0,0,1,0,0)" clip-path="url(#clip-6)"/><rect x="371.24" y="268.69" width="19.13" height="40.4" style="fill: rgb(255,0,0);fill-opacity: 1" transform="matrix(1,0,0,1,0,0)" clip-path="url(#clip-6)"/><rect x="644.49" y="28.14" width="19.13" height="240.56" style="fill: rgb(255,0,0);fill-opacity: 1" transform="matrix(1,0,0,1,0,0)" clip-path="url(#clip-6)"/><rect x="917.74" y="268.69" width="19.13" height="109.3" style="fill: rgb(255,0,0);fill-opacity: 1" transform="matrix(1,0,0,1,0,0)" clip-path="url(#clip-6)"/><line x1="57" y1="242.53" x2="1150" y2="242.53" style="stroke-width: 0.5;stroke: rgb(255,0,0);stroke-opacity: 1;" transform="matrix(1,0,0,1,0,0)" clip-path="url(#clip-6)"/><rect x="1082" y="229.06" width="65" height="12" style="fill: rgb(100,100,100);fill-opacity: 0.392157" transform="matrix(1,0,0,1,0,0)" clip-path="url(#clip-6)"/><g transform="matrix(1,0,0,1,0,0)"><text x="1082" y="237.41" style="fill: rgb(0,0,0); font-family: sans-serif; font-size: 9px; " text-rendering="auto" clip-path="url(#clip-6)">Banalité : 2.0</text></g><line x1="57" y1="294.85" x2="1150" y2="294.85" style="stroke-width: 0.5;stroke: rgb(255,0,0);stroke-opacity: 1;" transform="matrix(1,0,0,1,0,0)" clip-path="url(#clip-6)"/><rect x="1079" y="281.38" width="68" height="12" style="fill: rgb(100,100,100);fill-opacity: 0.392157" transform="matrix(1,0,0,1,0,0)" clip-path="url(#clip-6)"/><g transform="matrix(1,0,0,1,0,0)"><text x="1079" y="289.73" style="fill: rgb(0,0,0); font-family: sans-serif; font-size: 9px; " text-rendering="auto" clip-path="url(#clip-6)">Banalité : -2.0</text></g></svg>
