<!DOCTYPE svg PUBLIC "-//W3C//DTD SVG 1.1//EN" "http://www.w3.org/Graphics/SVG/1.1/DTD/svg11.dtd">
<svg style="stroke-linecap:square;" xmlns="http://www.w3.org/2000/svg" xmlns:xlink="http://www.w3.org/1999/xlink" width="1269" height="490">
<defs><clipPath id="clip-0"><path d="M 0 0 L 1269 0 L 1269 490 L 0 490 L 0 0 M 0 0"/></clipPath>
<clipPath id="clip-1"><path d="M 614.38 227.62 L 614.38 1496.62 L 124.38 1496.62 L 124.38 227.62 L 614.38 227.62 M 614.38 227.62"/></clipPath>
<clipPath id="clip-2"><path d="M 887.12 -45.12 L 887.12 1223.88 L 397.12 1223.88 L 397.12 -45.12 L 887.12 -45.12 M 887.12 -45.12"/></clipPath>
<clipPath id="clip-3"><path d="M 1159.88 -317.88 L 1159.88 951.12 L 669.88 951.12 L 669.88 -317.88 L 1159.88 -317.88 M 1159.88 -317.88"/></clipPath>
<clipPath id="clip-4"><path d="M 1432.62 -590.62 L 1432.62 678.38 L 942.62 678.38 L 942.62 -590.62 L 1432.62 -590.62 M 1432.62 -590.62"/></clipPath>
<clipPath id="clip-5"><path d="M 232 187 L 232 1456 L -258 1456 L -258 187 L 232 187 M 232 187"/></clipPath>
<clipPath id="clip-6"><path d="M 57 10 L 57 409 L 1148 409 L 1148 10 M 57 10"/></clipPath>
</defs>
<rect x="0" y="0" width="1269" height="490" style="fill: rgb(255,255,255);fill-opacity: 1" transform="matrix(1,0,0,1,0,0)" clip-path="url(#clip-0)"/><rect x="1168" y="144" width="91" height="202" style="fill: rgb(255,255,255);fill-opacity: 1" transform="matrix(1,0,0,1,0,0)" clip-path="url(#clip-0)"/><g style="stroke-width: 1.0;stroke: rgb(192,192,192);stroke-opacity: 1; fill: none" transform="matrix(1,0,0,1,0,0)" clip-path="url(#clip-0)"><path d="M 1168 149 L 1168 341 C 1168 343.76 1170.24 346 1173 346 L 1254 346 C 1256.76 346 1259 343.76 1259 341 L 1259 149 C 1259 146.24 1256.76 144 1254 144 L 1173 144 C 1170.24 144 1168 146.24 1168 149 M 1168 149"/></g><g style="fill: rgb(255,0,0);fill-opacity: 1; stroke: none" transform="matrix(1,0,0,1,0,0)" clip-path="url(#clip-0)"><path d="M 1172 150 L 1178 150 L 1178 160 L 1172 160 L 1172 150 M 1172 150"/></g><g transform="matrix(1,0,0,1,0,0)"><text x="1182" y="158.48" style="fill: rgb(39,75,109); font-family: Lucida Sans; font-size: 11px; font-weight: bold; " text-rendering="auto" clip-path="url(#clip-0)">génie</text></g><g style="fill: rgb(0,0,255);fill-opacity: 1; stroke: none" transform="matrix(1,0,0,1,0,0)" clip-path="url(#clip-0)"><path d="M 1172 168 L 1178 168 L 1178 178 L 1172 178 L 1172 168 M 1172 168"/></g><g transform="matrix(1,0,0,1,0,0)"><text x="1182" y="176.48" style="fill: rgb(39,75,109); font-family: Lucida Sans; font-size: 11px; font-weight: bold; " text-rendering="auto" clip-path="url(#clip-0)">vue</text></g><g style="fill: rgb(0,205,0);fill-opacity: 1; stroke: none" transform="matrix(1,0,0,1,0,0)" clip-path="url(#clip-0)"><path d="M 1172 186 L 1178 186 L 1178 196 L 1172 196 L 1172 186 M 1172 186"/></g><g transform="matrix(1,0,0,1,0,0)"><text x="1182" y="194.48" style="fill: rgb(39,75,109); font-family: Lucida Sans; font-size: 11px; font-weight: bold; " text-rendering="auto" clip-path="url(#clip-0)">motivée</text></g><g style="fill: rgb(255,215,0);fill-opacity: 1; stroke: none" transform="matrix(1,0,0,1,0,0)" clip-path="url(#clip-0)"><path d="M 1172 204 L 1178 204 L 1178 214 L 1172 214 L 1172 204 M 1172 204"/></g><g transform="matrix(1,0,0,1,0,0)"><text x="1182" y="212.48" style="fill: rgb(39,75,109); font-family: Lucida Sans; font-size: 11px; font-weight: bold; " text-rendering="auto" clip-path="url(#clip-0)">civil</text></g><g style="fill: rgb(255,20,147);fill-opacity: 1; stroke: none" transform="matrix(1,0,0,1,0,0)" clip-path="url(#clip-0)"><path d="M 1172 222 L 1178 222 L 1178 232 L 1172 232 L 1172 222 M 1172 222"/></g><g transform="matrix(1,0,0,1,0,0)"><text x="1182" y="230.48" style="fill: rgb(39,75,109); font-family: Lucida Sans; font-size: 11px; font-weight: bold; " text-rendering="auto" clip-path="url(#clip-0)">projet</text></g><g style="fill: rgb(178,34,34);fill-opacity: 1; stroke: none" transform="matrix(1,0,0,1,0,0)" clip-path="url(#clip-0)"><path d="M 1172 240 L 1178 240 L 1178 250 L 1172 250 L 1172 240 M 1172 240"/></g><g transform="matrix(1,0,0,1,0,0)"><text x="1182" y="248.48" style="fill: rgb(39,75,109); font-family: Lucida Sans; font-size: 11px; font-weight: bold; " text-rendering="auto" clip-path="url(#clip-0)">informatique</text></g><g style="fill: rgb(0,0,128);fill-opacity: 1; stroke: none" transform="matrix(1,0,0,1,0,0)" clip-path="url(#clip-0)"><path d="M 1172 258 L 1178 258 L 1178 268 L 1172 268 L 1172 258 M 1172 258"/></g><g transform="matrix(1,0,0,1,0,0)"><text x="1182" y="266.48" style="fill: rgb(39,75,109); font-family: Lucida Sans; font-size: 11px; font-weight: bold; " text-rendering="auto" clip-path="url(#clip-0)">écoles</text></g><g style="fill: rgb(0,139,0);fill-opacity: 1; stroke: none" transform="matrix(1,0,0,1,0,0)" clip-path="url(#clip-0)"><path d="M 1172 276 L 1178 276 L 1178 286 L 1172 286 L 1172 276 M 1172 276"/></g><g transform="matrix(1,0,0,1,0,0)"><text x="1182" y="284.48" style="fill: rgb(39,75,109); font-family: Lucida Sans; font-size: 11px; font-weight: bold; " text-rendering="auto" clip-path="url(#clip-0)">notamment</text></g><g style="fill: rgb(255,185,15);fill-opacity: 1; stroke: none" transform="matrix(1,0,0,1,0,0)" clip-path="url(#clip-0)"><path d="M 1172 294 L 1178 294 L 1178 304 L 1172 304 L 1172 294 M 1172 294"/></g><g transform="matrix(1,0,0,1,0,0)"><text x="1182" y="302.48" style="fill: rgb(39,75,109); font-family: Lucida Sans; font-size: 11px; font-weight: bold; " text-rendering="auto" clip-path="url(#clip-0)">monteur</text></g><g style="fill: rgb(255,0,255);fill-opacity: 1; stroke: none" transform="matrix(1,0,0,1,0,0)" clip-path="url(#clip-0)"><path d="M 1172 312 L 1178 312 L 1178 322 L 1172 322 L 1172 312 M 1172 312"/></g><g transform="matrix(1,0,0,1,0,0)"><text x="1182" y="320.48" style="fill: rgb(39,75,109); font-family: Lucida Sans; font-size: 11px; font-weight: bold; " text-rendering="auto" clip-path="url(#clip-0)">neutre</text></g><g style="fill: rgb(0,191,255);fill-opacity: 1; stroke: none" transform="matrix(1,0,0,1,0,0)" clip-path="url(#clip-0)"><path d="M 1172 330 L 1178 330 L 1178 340 L 1172 340 L 1172 330 M 1172 330"/></g><g transform="matrix(1,0,0,1,0,0)"><text x="1182" y="338.48" style="fill: rgb(39,75,109); font-family: Lucida Sans; font-size: 11px; font-weight: bold; " text-rendering="auto" clip-path="url(#clip-0)">motivées</text></g><rect x="57" y="10" width="1091" height="399" style="fill: rgb(255,255,255);fill-opacity: 1" transform="matrix(1,0,0,1,0,0)" clip-path="url(#clip-0)"/><line x1="57" y1="409" x2="1148" y2="409" style="stroke-width: 0.5;stroke: rgb(192,208,224);stroke-opacity: 1;" transform="matrix(1,0,0,1,0,0)" clip-path="url(#clip-0)"/><g style="fill: rgb(102,102,102);fill-opacity: 1; stroke: none" transform="matrix(0,-1,1,0,-227.625,614.375)" clip-path="url(#clip-1)"><path d="M 167.5 425.68 L 170.59 417.73 L 172.25 417.73 L 175.34 425.68 L 173.64 425.68 L 172.81 423.55 L 169.53 423.55 L 168.7 425.68 L 167.5 425.68 M 167.5 425.68 M 169.94 422.49 L 172.41 422.49 L 171.17 419.34 L 169.94 422.49 M 169.94 422.49 M 176.38 425.68 L 176.38 419.79 L 177.89 419.79 L 177.89 420.9 Q 178.59 419.65 179.88 419.65 Q 180.55 419.65 180.98 419.98 Q 181.41 420.3 181.5 420.9 Q 182.33 419.65 183.5 419.65 Q 185.12 419.65 185.12 421.43 L 185.12 425.68 L 183.59 425.68 L 183.59 421.95 Q 183.59 420.9 182.89 420.9 Q 182.19 420.9 181.5 421.93 L 181.5 425.68 L 179.98 425.68 L 179.98 421.95 Q 179.98 420.9 179.28 420.9 Q 178.58 420.9 177.89 421.93 L 177.89 425.68 L 176.38 425.68 M 176.38 425.68 M 187.38 425.68 L 187.38 417.2 L 188.95 417.2 L 188.95 420.9 Q 189.58 419.65 190.89 419.65 Q 191.95 419.65 192.56 420.43 Q 193.17 421.21 193.17 422.57 Q 193.17 424.04 192.48 424.93 Q 191.8 425.82 190.64 425.82 Q 189.66 425.82 188.95 425.09 L 188.66 425.68 L 187.38 425.68 M 187.38 425.68 M 188.95 424.13 Q 189.53 424.79 190.19 424.79 Q 190.78 424.79 191.13 424.22 Q 191.48 423.65 191.48 422.71 Q 191.48 420.9 190.31 420.9 Q 189.61 420.9 188.95 421.8 L 188.95 424.13 M 188.95 424.13"/></g><line x1="329.75" y1="414" x2="329.75" y2="409" style="stroke-width: 0.5;stroke: rgb(192,208,224);stroke-opacity: 1;" transform="matrix(1,0,0,1,0,0)" clip-path="url(#clip-0)"/><line x1="57" y1="414" x2="57" y2="409" style="stroke-width: 0.5;stroke: rgb(192,208,224);stroke-opacity: 1;" transform="matrix(1,0,0,1,0,0)" clip-path="url(#clip-0)"/><g style="fill: rgb(102,102,102);fill-opacity: 1; stroke: none" transform="matrix(0,-1,1,0,45.125,887.125)" clip-path="url(#clip-2)"><path d="M 431.12 425.68 L 431.12 417.73 L 432.58 417.73 L 436.27 423.16 L 436.27 417.73 L 437.58 417.73 L 437.58 425.68 L 436.11 425.68 L 432.45 420.24 L 432.45 425.68 L 431.12 425.68 M 431.12 425.68 M 443.92 425.48 Q 442.78 425.82 441.77 425.82 Q 440.3 425.82 439.45 424.98 Q 438.59 424.13 438.59 422.7 Q 438.59 421.32 439.38 420.48 Q 440.16 419.65 441.44 419.65 Q 442.73 419.65 443.33 420.46 Q 443.92 421.27 443.92 423.05 L 440.27 423.05 Q 440.42 424.73 442.11 424.73 Q 442.92 424.73 443.92 424.37 L 443.92 425.48 M 443.92 425.48 M 440.23 422.15 L 442.36 422.15 Q 442.36 420.65 441.39 420.65 Q 440.39 420.65 440.23 422.15 M 440.23 422.15 M 448.77 425.68 L 448.77 424.57 Q 448 425.82 446.75 425.82 Q 445.97 425.82 445.51 425.32 Q 445.05 424.82 445.05 423.95 L 445.05 419.79 L 446.64 419.79 L 446.64 423.55 Q 446.64 424.55 447.31 424.55 Q 448.06 424.55 448.77 423.49 L 448.77 419.79 L 450.36 419.79 L 450.36 425.68 L 448.77 425.68 M 448.77 425.68 M 455.16 425.65 Q 454.59 425.82 454.27 425.82 Q 452.19 425.82 452.19 423.88 L 452.19 420.77 L 451.53 420.77 L 451.53 419.79 L 452.19 419.79 L 452.19 418.79 L 453.78 418.6 L 453.78 419.79 L 455.05 419.79 L 455.05 420.77 L 453.78 420.77 L 453.78 423.66 Q 453.78 424.76 454.67 424.76 Q 454.88 424.76 455.16 424.68 L 455.16 425.65 M 455.16 425.65 M 456.12 425.68 L 456.12 419.79 L 457.7 419.79 L 457.7 420.9 Q 458.33 419.65 459.59 419.65 Q 459.73 419.65 459.89 419.68 L 459.89 421.1 Q 459.55 420.98 459.25 420.98 Q 458.31 420.98 457.7 421.93 L 457.7 425.68 L 456.12 425.68 M 456.12 425.68 M 465.92 425.48 Q 464.78 425.82 463.77 425.82 Q 462.3 425.82 461.45 424.98 Q 460.59 424.13 460.59 422.7 Q 460.59 421.32 461.38 420.48 Q 462.16 419.65 463.44 419.65 Q 464.73 419.65 465.33 420.46 Q 465.92 421.27 465.92 423.05 L 462.27 423.05 Q 462.42 424.73 464.11 424.73 Q 464.92 424.73 465.92 424.37 L 465.92 425.48 M 465.92 425.48 M 462.23 422.15 L 464.36 422.15 Q 464.36 420.65 463.39 420.65 Q 462.39 420.65 462.23 422.15 M 462.23 422.15"/></g><line x1="602.5" y1="414" x2="602.5" y2="409" style="stroke-width: 0.5;stroke: rgb(192,208,224);stroke-opacity: 1;" transform="matrix(1,0,0,1,0,0)" clip-path="url(#clip-0)"/><g style="fill: rgb(102,102,102);fill-opacity: 1; stroke: none" transform="matrix(0,-1,1,0,317.875,1159.875)" clip-path="url(#clip-3)"><path d="M 716.88 425.68 L 716.88 417.73 L 721.88 417.73 L 721.88 418.82 L 718.52 418.82 L 718.52 421.24 L 721.27 421.24 L 721.27 422.34 L 718.52 422.34 L 718.52 425.68 L 716.88 425.68 M 716.88 425.68 M 727.67 425.48 Q 726.53 425.82 725.52 425.82 Q 724.05 425.82 723.2 424.98 Q 722.34 424.13 722.34 422.7 Q 722.34 421.32 723.12 420.48 Q 723.91 419.65 725.19 419.65 Q 726.48 419.65 727.08 420.46 Q 727.67 421.27 727.67 423.05 L 724.02 423.05 Q 724.17 424.73 725.86 424.73 Q 726.67 424.73 727.67 424.37 L 727.67 425.48 M 727.67 425.48 M 723.98 422.15 L 726.11 422.15 Q 726.11 420.65 725.14 420.65 Q 724.14 420.65 723.98 422.15 M 723.98 422.15 M 728.88 425.68 L 728.88 419.79 L 730.39 419.79 L 730.39 420.9 Q 731.09 419.65 732.38 419.65 Q 733.05 419.65 733.48 419.98 Q 733.91 420.3 734 420.9 Q 734.83 419.65 736 419.65 Q 737.62 419.65 737.62 421.43 L 737.62 425.68 L 736.09 425.68 L 736.09 421.95 Q 736.09 420.9 735.39 420.9 Q 734.69 420.9 734 421.93 L 734 425.68 L 732.48 425.68 L 732.48 421.95 Q 732.48 420.9 731.78 420.9 Q 731.08 420.9 730.39 421.93 L 730.39 425.68 L 728.88 425.68 M 728.88 425.68"/></g><line x1="875.25" y1="414" x2="875.25" y2="409" style="stroke-width: 0.5;stroke: rgb(192,208,224);stroke-opacity: 1;" transform="matrix(1,0,0,1,0,0)" clip-path="url(#clip-0)"/><g style="fill: rgb(102,102,102);fill-opacity: 1; stroke: none" transform="matrix(0,-1,1,0,590.625,1432.625)" clip-path="url(#clip-4)"><path d="M 984.62 425.68 L 984.62 417.73 L 986.81 417.73 L 988.72 423.32 L 990.69 417.73 L 992.61 417.73 L 992.61 425.68 L 991.09 425.68 L 991.09 419.68 L 989.16 425.15 L 987.81 425.15 L 985.92 419.6 L 985.92 425.68 L 984.62 425.68 M 984.62 425.68 M 997.52 425.04 Q 996.72 425.82 995.81 425.82 Q 995.03 425.82 994.55 425.34 Q 994.06 424.87 994.06 424.12 Q 994.06 423.13 994.84 422.61 Q 995.62 422.09 997.08 422.09 L 997.52 422.09 L 997.52 421.54 Q 997.52 420.63 996.47 420.63 Q 995.53 420.63 994.58 421.15 L 994.58 420.05 Q 995.66 419.65 996.72 419.65 Q 999.03 419.65 999.03 421.49 L 999.03 424.1 Q 999.03 424.79 999.48 424.79 Q 999.56 424.79 999.69 424.77 L 999.73 425.66 Q 999.22 425.82 998.83 425.82 Q 997.86 425.82 997.58 425.04 L 997.52 425.04 M 997.52 425.04 M 997.52 424.2 L 997.52 422.99 L 997.12 422.99 Q 995.59 422.99 995.59 423.96 Q 995.59 424.29 995.81 424.51 Q 996.03 424.73 996.36 424.73 Q 996.92 424.73 997.52 424.2 M 997.52 424.2 M 1000.47 425.49 L 1000.47 424.32 Q 1001.64 424.82 1002.48 424.82 Q 1003.45 424.82 1003.45 424.15 Q 1003.45 423.73 1002.66 423.4 L 1002.12 423.18 Q 1001.23 422.84 1000.86 422.43 Q 1000.48 422.02 1000.48 421.41 Q 1000.48 420.57 1001.12 420.11 Q 1001.77 419.65 1002.92 419.65 Q 1003.64 419.65 1004.62 419.85 L 1004.62 420.98 Q 1003.67 420.65 1003.05 420.65 Q 1002.06 420.65 1002.06 421.26 Q 1002.06 421.66 1002.78 421.93 L 1003.25 422.12 Q 1004.28 422.51 1004.69 422.91 Q 1005.09 423.3 1005.09 423.95 Q 1005.09 424.77 1004.41 425.3 Q 1003.72 425.82 1002.61 425.82 Q 1001.55 425.82 1000.47 425.49 M 1000.47 425.49 M 1010.97 425.55 Q 1009.98 425.82 1009.14 425.82 Q 1007.72 425.82 1006.91 424.98 Q 1006.09 424.15 1006.09 422.73 Q 1006.09 421.27 1006.94 420.46 Q 1007.78 419.65 1009.27 419.65 Q 1009.98 419.65 1010.92 419.88 L 1010.92 421.02 Q 1009.94 420.71 1009.36 420.71 Q 1008.64 420.71 1008.21 421.26 Q 1007.78 421.8 1007.78 422.71 Q 1007.78 423.65 1008.25 424.2 Q 1008.72 424.76 1009.5 424.76 Q 1010.22 424.76 1010.97 424.45 L 1010.97 425.55 M 1010.97 425.55"/></g><line x1="1148" y1="414" x2="1148" y2="409" style="stroke-width: 0.5;stroke: rgb(192,208,224);stroke-opacity: 1;" transform="matrix(1,0,0,1,0,0)" clip-path="url(#clip-0)"/><g transform="matrix(1,0,0,1,0,0)"><text x="580" y="473.84" style="fill: rgb(77,117,158); font-family: Lucida Sans; font-size: 15px; font-weight: bold; " text-rendering="auto" clip-path="url(#clip-0)">Partie</text></g><g transform="matrix(1,0,0,1,0,0)"><text x="37" y="377.96" style="fill: rgb(102,102,102); font-family: Lucida Sans; font-size: 11px; font-weight: bold; " text-rendering="auto" clip-path="url(#clip-0)">-8</text></g><g transform="matrix(1,0,0,1,0,0)"><text x="37" y="357.25" style="fill: rgb(102,102,102); font-family: Lucida Sans; font-size: 11px; font-weight: bold; " text-rendering="auto" clip-path="url(#clip-0)">-7</text></g><g transform="matrix(1,0,0,1,0,0)"><text x="37" y="336.54" style="fill: rgb(102,102,102); font-family: Lucida Sans; font-size: 11px; font-weight: bold; " text-rendering="auto" clip-path="url(#clip-0)">-6</text></g><g transform="matrix(1,0,0,1,0,0)"><text x="37" y="315.84" style="fill: rgb(102,102,102); font-family: Lucida Sans; font-size: 11px; font-weight: bold; " text-rendering="auto" clip-path="url(#clip-0)">-5</text></g><g transform="matrix(1,0,0,1,0,0)"><text x="37" y="295.13" style="fill: rgb(102,102,102); font-family: Lucida Sans; font-size: 11px; font-weight: bold; " text-rendering="auto" clip-path="url(#clip-0)">-4</text></g><g transform="matrix(1,0,0,1,0,0)"><text x="37" y="274.42" style="fill: rgb(102,102,102); font-family: Lucida Sans; font-size: 11px; font-weight: bold; " text-rendering="auto" clip-path="url(#clip-0)">-3</text></g><g transform="matrix(1,0,0,1,0,0)"><text x="37" y="253.71" style="fill: rgb(102,102,102); font-family: Lucida Sans; font-size: 11px; font-weight: bold; " text-rendering="auto" clip-path="url(#clip-0)">-2</text></g><g transform="matrix(1,0,0,1,0,0)"><text x="37" y="233.01" style="fill: rgb(102,102,102); font-family: Lucida Sans; font-size: 11px; font-weight: bold; " text-rendering="auto" clip-path="url(#clip-0)">-1</text></g><g transform="matrix(1,0,0,1,0,0)"><text x="44" y="212.3" style="fill: rgb(102,102,102); font-family: Lucida Sans; font-size: 11px; font-weight: bold; " text-rendering="auto" clip-path="url(#clip-0)">0</text></g><g transform="matrix(1,0,0,1,0,0)"><text x="44" y="191.59" style="fill: rgb(102,102,102); font-family: Lucida Sans; font-size: 11px; font-weight: bold; " text-rendering="auto" clip-path="url(#clip-0)">1</text></g><g transform="matrix(1,0,0,1,0,0)"><text x="44" y="170.88" style="fill: rgb(102,102,102); font-family: Lucida Sans; font-size: 11px; font-weight: bold; " text-rendering="auto" clip-path="url(#clip-0)">2</text></g><g transform="matrix(1,0,0,1,0,0)"><text x="44" y="150.18" style="fill: rgb(102,102,102); font-family: Lucida Sans; font-size: 11px; font-weight: bold; " text-rendering="auto" clip-path="url(#clip-0)">3</text></g><g transform="matrix(1,0,0,1,0,0)"><text x="44" y="129.47" style="fill: rgb(102,102,102); font-family: Lucida Sans; font-size: 11px; font-weight: bold; " text-rendering="auto" clip-path="url(#clip-0)">4</text></g><g transform="matrix(1,0,0,1,0,0)"><text x="44" y="108.76" style="fill: rgb(102,102,102); font-family: Lucida Sans; font-size: 11px; font-weight: bold; " text-rendering="auto" clip-path="url(#clip-0)">5</text></g><g transform="matrix(1,0,0,1,0,0)"><text x="44" y="88.05" style="fill: rgb(102,102,102); font-family: Lucida Sans; font-size: 11px; font-weight: bold; " text-rendering="auto" clip-path="url(#clip-0)">6</text></g><g transform="matrix(1,0,0,1,0,0)"><text x="44" y="67.35" style="fill: rgb(102,102,102); font-family: Lucida Sans; font-size: 11px; font-weight: bold; " text-rendering="auto" clip-path="url(#clip-0)">7</text></g><g transform="matrix(1,0,0,1,0,0)"><text x="44" y="46.64" style="fill: rgb(102,102,102); font-family: Lucida Sans; font-size: 11px; font-weight: bold; " text-rendering="auto" clip-path="url(#clip-0)">8</text></g><g style="fill: rgb(77,117,158);fill-opacity: 1; stroke: none" transform="matrix(0,-1,1,0,-187,232)" clip-path="url(#clip-5)"><path d="M 0.36 215.84 L 0.36 204.99 L 2.61 204.99 L 2.61 215.84 L 0.36 215.84 M 0.36 215.84 M 5.36 215.84 L 5.36 207.79 L 7.52 207.79 L 7.52 209.3 Q 8.58 207.62 10.27 207.62 Q 11.34 207.62 11.96 208.3 Q 12.58 208.98 12.58 210.15 L 12.58 215.84 L 10.42 215.84 L 10.42 210.68 Q 10.42 209.32 9.52 209.32 Q 8.47 209.32 7.52 210.77 L 7.52 215.84 L 5.36 215.84 M 5.36 215.84 M 20.42 215.84 L 20.42 214.32 Q 19.58 216.02 17.78 216.02 Q 16.34 216.02 15.52 214.96 Q 14.69 213.9 14.69 212.04 Q 14.69 210.01 15.62 208.81 Q 16.55 207.62 18.12 207.62 Q 19.39 207.62 20.42 208.6 L 20.42 204.27 L 22.59 204.27 L 22.59 215.84 L 20.42 215.84 M 20.42 215.84 M 20.42 209.9 Q 19.62 209.02 18.73 209.02 Q 17.94 209.02 17.46 209.79 Q 16.98 210.55 16.98 211.85 Q 16.98 214.32 18.58 214.32 Q 19.53 214.32 20.42 213.09 L 20.42 209.9 M 20.42 209.9 M 25.36 215.84 L 25.36 207.79 L 27.52 207.79 L 27.52 215.84 L 25.36 215.84 M 25.36 215.84 M 25.36 206.45 L 25.36 204.63 L 27.52 204.63 L 27.52 206.45 L 25.36 206.45 M 25.36 206.45 M 36.28 215.66 Q 34.94 216.02 33.8 216.02 Q 31.86 216.02 30.74 214.89 Q 29.62 213.76 29.62 211.8 Q 29.62 209.84 30.78 208.73 Q 31.94 207.62 33.95 207.62 Q 34.94 207.62 36.22 207.93 L 36.22 209.49 Q 34.89 209.05 34.09 209.05 Q 33.11 209.05 32.52 209.8 Q 31.94 210.55 31.94 211.79 Q 31.94 213.05 32.58 213.82 Q 33.22 214.59 34.28 214.59 Q 35.25 214.59 36.28 214.16 L 36.28 215.66 M 36.28 215.66 M 44.91 215.57 Q 43.36 216.02 41.97 216.02 Q 39.95 216.02 38.79 214.88 Q 37.62 213.73 37.62 211.76 Q 37.62 209.88 38.7 208.75 Q 39.77 207.62 41.52 207.62 Q 43.28 207.62 44.09 208.73 Q 44.91 209.84 44.91 212.24 L 39.92 212.24 Q 40.14 214.54 42.44 214.54 Q 43.53 214.54 44.91 214.04 L 44.91 215.57 M 44.91 215.57 M 39.89 211.02 L 42.77 211.02 Q 42.77 208.96 41.45 208.96 Q 40.09 208.96 39.89 211.02 M 39.89 211.02"/></g><line x1="57" y1="373.28" x2="1148" y2="373.28" style="stroke-width: 1.0;stroke: rgb(192,192,192);stroke-opacity: 1;" transform="matrix(1,0,0,1,0,0)" clip-path="url(#clip-6)"/><line x1="57" y1="352.57" x2="1148" y2="352.57" style="stroke-width: 1.0;stroke: rgb(192,192,192);stroke-opacity: 1;" transform="matrix(1,0,0,1,0,0)" clip-path="url(#clip-6)"/><line x1="57" y1="331.86" x2="1148" y2="331.86" style="stroke-width: 1.0;stroke: rgb(192,192,192);stroke-opacity: 1;" transform="matrix(1,0,0,1,0,0)" clip-path="url(#clip-6)"/><line x1="57" y1="311.16" x2="1148" y2="311.16" style="stroke-width: 1.0;stroke: rgb(192,192,192);stroke-opacity: 1;" transform="matrix(1,0,0,1,0,0)" clip-path="url(#clip-6)"/><line x1="57" y1="290.45" x2="1148" y2="290.45" style="stroke-width: 1.0;stroke: rgb(192,192,192);stroke-opacity: 1;" transform="matrix(1,0,0,1,0,0)" clip-path="url(#clip-6)"/><line x1="57" y1="269.74" x2="1148" y2="269.74" style="stroke-width: 1.0;stroke: rgb(192,192,192);stroke-opacity: 1;" transform="matrix(1,0,0,1,0,0)" clip-path="url(#clip-6)"/><line x1="57" y1="249.03" x2="1148" y2="249.03" style="stroke-width: 1.0;stroke: rgb(192,192,192);stroke-opacity: 1;" transform="matrix(1,0,0,1,0,0)" clip-path="url(#clip-6)"/><line x1="57" y1="228.33" x2="1148" y2="228.33" style="stroke-width: 1.0;stroke: rgb(192,192,192);stroke-opacity: 1;" transform="matrix(1,0,0,1,0,0)" clip-path="url(#clip-6)"/><line x1="57" y1="186.91" x2="1148" y2="186.91" style="stroke-width: 1.0;stroke: rgb(192,192,192);stroke-opacity: 1;" transform="matrix(1,0,0,1,0,0)" clip-path="url(#clip-6)"/><line x1="57" y1="166.2" x2="1148" y2="166.2" style="stroke-width: 1.0;stroke: rgb(192,192,192);stroke-opacity: 1;" transform="matrix(1,0,0,1,0,0)" clip-path="url(#clip-6)"/><line x1="57" y1="145.5" x2="1148" y2="145.5" style="stroke-width: 1.0;stroke: rgb(192,192,192);stroke-opacity: 1;" transform="matrix(1,0,0,1,0,0)" clip-path="url(#clip-6)"/><line x1="57" y1="124.79" x2="1148" y2="124.79" style="stroke-width: 1.0;stroke: rgb(192,192,192);stroke-opacity: 1;" transform="matrix(1,0,0,1,0,0)" clip-path="url(#clip-6)"/><line x1="57" y1="104.08" x2="1148" y2="104.08" style="stroke-width: 1.0;stroke: rgb(192,192,192);stroke-opacity: 1;" transform="matrix(1,0,0,1,0,0)" clip-path="url(#clip-6)"/><line x1="57" y1="83.37" x2="1148" y2="83.37" style="stroke-width: 1.0;stroke: rgb(192,192,192);stroke-opacity: 1;" transform="matrix(1,0,0,1,0,0)" clip-path="url(#clip-6)"/><line x1="57" y1="62.67" x2="1148" y2="62.67" style="stroke-width: 1.0;stroke: rgb(192,192,192);stroke-opacity: 1;" transform="matrix(1,0,0,1,0,0)" clip-path="url(#clip-6)"/><line x1="57" y1="41.96" x2="1148" y2="41.96" style="stroke-width: 1.0;stroke: rgb(192,192,192);stroke-opacity: 1;" transform="matrix(1,0,0,1,0,0)" clip-path="url(#clip-6)"/><line x1="57" y1="207.62" x2="1148" y2="207.62" style="stroke-width: 0.5;stroke: rgb(134,145,156);stroke-opacity: 1;" transform="matrix(1,0,0,1,0,0)" clip-path="url(#clip-6)"/><rect x="271.48" y="144.93" width="17.36" height="62.69" style="fill: rgb(0,191,255);fill-opacity: 1" transform="matrix(1,0,0,1,0,0)" clip-path="url(#clip-6)"/><rect x="544.23" y="207.62" width="17.36" height="4.54" style="fill: rgb(0,191,255);fill-opacity: 1" transform="matrix(1,0,0,1,0,0)" clip-path="url(#clip-6)"/><rect x="816.98" y="207.62" width="17.36" height="5.23" style="fill: rgb(0,191,255);fill-opacity: 1" transform="matrix(1,0,0,1,0,0)" clip-path="url(#clip-6)"/><rect x="1089.73" y="207.62" width="17.36" height="12.25" style="fill: rgb(0,191,255);fill-opacity: 1" transform="matrix(1,0,0,1,0,0)" clip-path="url(#clip-6)"/><rect x="254.12" y="144.93" width="17.36" height="62.69" style="fill: rgb(255,0,255);fill-opacity: 1" transform="matrix(1,0,0,1,0,0)" clip-path="url(#clip-6)"/><rect x="526.87" y="207.62" width="17.36" height="4.54" style="fill: rgb(255,0,255);fill-opacity: 1" transform="matrix(1,0,0,1,0,0)" clip-path="url(#clip-6)"/><rect x="799.62" y="207.62" width="17.36" height="5.23" style="fill: rgb(255,0,255);fill-opacity: 1" transform="matrix(1,0,0,1,0,0)" clip-path="url(#clip-6)"/><rect x="1072.37" y="207.62" width="17.36" height="12.25" style="fill: rgb(255,0,255);fill-opacity: 1" transform="matrix(1,0,0,1,0,0)" clip-path="url(#clip-6)"/><rect x="236.77" y="144.72" width="17.36" height="62.9" style="fill: rgb(255,185,15);fill-opacity: 1" transform="matrix(1,0,0,1,0,0)" clip-path="url(#clip-6)"/><rect x="509.52" y="207.62" width="17.36" height="15.88" style="fill: rgb(255,185,15);fill-opacity: 1" transform="matrix(1,0,0,1,0,0)" clip-path="url(#clip-6)"/><rect x="782.27" y="207.62" width="17.36" height="18.32" style="fill: rgb(255,185,15);fill-opacity: 1" transform="matrix(1,0,0,1,0,0)" clip-path="url(#clip-6)"/><rect x="1055.02" y="201.14" width="17.36" height="6.48" style="fill: rgb(255,185,15);fill-opacity: 1" transform="matrix(1,0,0,1,0,0)" clip-path="url(#clip-6)"/><rect x="219.41" y="144.71" width="17.36" height="62.91" style="fill: rgb(0,139,0);fill-opacity: 1" transform="matrix(1,0,0,1,0,0)" clip-path="url(#clip-6)"/><rect x="492.16" y="207.62" width="17.36" height="5.2" style="fill: rgb(0,139,0);fill-opacity: 1" transform="matrix(1,0,0,1,0,0)" clip-path="url(#clip-6)"/><rect x="764.91" y="207.62" width="17.36" height="23.05" style="fill: rgb(0,139,0);fill-opacity: 1" transform="matrix(1,0,0,1,0,0)" clip-path="url(#clip-6)"/><rect x="1037.66" y="207.62" width="17.36" height="5.89" style="fill: rgb(0,139,0);fill-opacity: 1" transform="matrix(1,0,0,1,0,0)" clip-path="url(#clip-6)"/><rect x="202.05" y="142.14" width="17.36" height="65.48" style="fill: rgb(0,0,128);fill-opacity: 1" transform="matrix(1,0,0,1,0,0)" clip-path="url(#clip-6)"/><rect x="474.8" y="207.62" width="17.36" height="17.26" style="fill: rgb(0,0,128);fill-opacity: 1" transform="matrix(1,0,0,1,0,0)" clip-path="url(#clip-6)"/><rect x="747.55" y="207.62" width="17.36" height="11.64" style="fill: rgb(0,0,128);fill-opacity: 1" transform="matrix(1,0,0,1,0,0)" clip-path="url(#clip-6)"/><rect x="1020.3" y="202.82" width="17.36" height="4.8" style="fill: rgb(0,0,128);fill-opacity: 1" transform="matrix(1,0,0,1,0,0)" clip-path="url(#clip-6)"/><rect x="184.7" y="131.55" width="17.36" height="76.07" style="fill: rgb(178,34,34);fill-opacity: 1" transform="matrix(1,0,0,1,0,0)" clip-path="url(#clip-6)"/><rect x="457.45" y="176.32" width="17.36" height="31.3" style="fill: rgb(178,34,34);fill-opacity: 1" transform="matrix(1,0,0,1,0,0)" clip-path="url(#clip-6)"/><rect x="730.2" y="207.62" width="17.36" height="183.24" style="fill: rgb(178,34,34);fill-opacity: 1" transform="matrix(1,0,0,1,0,0)" clip-path="url(#clip-6)"/><rect x="1002.95" y="185" width="17.36" height="22.61" style="fill: rgb(178,34,34);fill-opacity: 1" transform="matrix(1,0,0,1,0,0)" clip-path="url(#clip-6)"/><rect x="167.34" y="130.09" width="17.36" height="77.53" style="fill: rgb(255,20,147);fill-opacity: 1" transform="matrix(1,0,0,1,0,0)" clip-path="url(#clip-6)"/><rect x="440.09" y="207.62" width="17.36" height="15.88" style="fill: rgb(255,20,147);fill-opacity: 1" transform="matrix(1,0,0,1,0,0)" clip-path="url(#clip-6)"/><rect x="712.84" y="207.62" width="17.36" height="30.09" style="fill: rgb(255,20,147);fill-opacity: 1" transform="matrix(1,0,0,1,0,0)" clip-path="url(#clip-6)"/><rect x="985.59" y="194.67" width="17.36" height="12.94" style="fill: rgb(255,20,147);fill-opacity: 1" transform="matrix(1,0,0,1,0,0)" clip-path="url(#clip-6)"/><rect x="149.98" y="125.84" width="17.36" height="81.78" style="fill: rgb(255,215,0);fill-opacity: 1" transform="matrix(1,0,0,1,0,0)" clip-path="url(#clip-6)"/><rect x="422.73" y="207.62" width="17.36" height="9.08" style="fill: rgb(255,215,0);fill-opacity: 1" transform="matrix(1,0,0,1,0,0)" clip-path="url(#clip-6)"/><rect x="695.48" y="207.62" width="17.36" height="10.47" style="fill: rgb(255,215,0);fill-opacity: 1" transform="matrix(1,0,0,1,0,0)" clip-path="url(#clip-6)"/><rect x="968.23" y="207.62" width="17.36" height="10.2" style="fill: rgb(255,215,0);fill-opacity: 1" transform="matrix(1,0,0,1,0,0)" clip-path="url(#clip-6)"/><rect x="132.63" y="125.66" width="17.36" height="81.96" style="fill: rgb(0,205,0);fill-opacity: 1" transform="matrix(1,0,0,1,0,0)" clip-path="url(#clip-6)"/><rect x="405.38" y="207.62" width="17.36" height="64.39" style="fill: rgb(0,205,0);fill-opacity: 1" transform="matrix(1,0,0,1,0,0)" clip-path="url(#clip-6)"/><rect x="678.13" y="28.14" width="17.36" height="179.48" style="fill: rgb(0,205,0);fill-opacity: 1" transform="matrix(1,0,0,1,0,0)" clip-path="url(#clip-6)"/><rect x="950.88" y="207.62" width="17.36" height="137.63" style="fill: rgb(0,205,0);fill-opacity: 1" transform="matrix(1,0,0,1,0,0)" clip-path="url(#clip-6)"/><rect x="115.27" y="124.6" width="17.36" height="83.01" style="fill: rgb(0,0,255);fill-opacity: 1" transform="matrix(1,0,0,1,0,0)" clip-path="url(#clip-6)"/><rect x="388.02" y="197.49" width="17.36" height="10.13" style="fill: rgb(0,0,255);fill-opacity: 1" transform="matrix(1,0,0,1,0,0)" clip-path="url(#clip-6)"/><rect x="660.77" y="207.62" width="17.36" height="23.56" style="fill: rgb(0,0,255);fill-opacity: 1" transform="matrix(1,0,0,1,0,0)" clip-path="url(#clip-6)"/><rect x="933.52" y="207.62" width="17.36" height="21.07" style="fill: rgb(0,0,255);fill-opacity: 1" transform="matrix(1,0,0,1,0,0)" clip-path="url(#clip-6)"/><rect x="97.91" y="84.82" width="17.36" height="122.8" style="fill: rgb(255,0,0);fill-opacity: 1" transform="matrix(1,0,0,1,0,0)" clip-path="url(#clip-6)"/><rect x="370.66" y="207.62" width="17.36" height="29.5" style="fill: rgb(255,0,0);fill-opacity: 1" transform="matrix(1,0,0,1,0,0)" clip-path="url(#clip-6)"/><rect x="643.41" y="207.62" width="17.36" height="10.11" style="fill: rgb(255,0,0);fill-opacity: 1" transform="matrix(1,0,0,1,0,0)" clip-path="url(#clip-6)"/><rect x="916.16" y="207.62" width="17.36" height="10.64" style="fill: rgb(255,0,0);fill-opacity: 1" transform="matrix(1,0,0,1,0,0)" clip-path="url(#clip-6)"/><line x1="57" y1="166.2" x2="1148" y2="166.2" style="stroke-width: 0.5;stroke: rgb(255,0,0);stroke-opacity: 1;" transform="matrix(1,0,0,1,0,0)" clip-path="url(#clip-6)"/><rect x="1080" y="152.73" width="65" height="12" style="fill: rgb(100,100,100);fill-opacity: 0.392157" transform="matrix(1,0,0,1,0,0)" clip-path="url(#clip-6)"/><g transform="matrix(1,0,0,1,0,0)"><text x="1080" y="161.08" style="fill: rgb(0,0,0); font-family: sans-serif; font-size: 9px; " text-rendering="auto" clip-path="url(#clip-6)">Banalité : 2.0</text></g><line x1="57" y1="249.03" x2="1148" y2="249.03" style="stroke-width: 0.5;stroke: rgb(255,0,0);stroke-opacity: 1;" transform="matrix(1,0,0,1,0,0)" clip-path="url(#clip-6)"/><rect x="1077" y="235.56" width="68" height="12" style="fill: rgb(100,100,100);fill-opacity: 0.392157" transform="matrix(1,0,0,1,0,0)" clip-path="url(#clip-6)"/><g transform="matrix(1,0,0,1,0,0)"><text x="1077" y="243.91" style="fill: rgb(0,0,0); font-family: sans-serif; font-size: 9px; " text-rendering="auto" clip-path="url(#clip-6)">Banalité : -2.0</text></g></svg>
