<!DOCTYPE svg PUBLIC "-//W3C//DTD SVG 1.1//EN" "http://www.w3.org/Graphics/SVG/1.1/DTD/svg11.dtd">
<svg style="stroke-linecap:square;" xmlns="http://www.w3.org/2000/svg" xmlns:xlink="http://www.w3.org/1999/xlink" width="1269" height="324">
<defs><clipPath id="clip-0"><path d="M 0 0 L 1269 0 L 1269 324 L 0 324 L 0 0 M 0 0"/></clipPath>
<clipPath id="clip-1"><path d="M 464.12 29.88 L 464.12 1298.88 L 140.12 1298.88 L 140.12 29.88 L 464.12 29.88 M 464.12 29.88"/></clipPath>
<clipPath id="clip-2"><path d="M 734.38 -240.38 L 734.38 1028.62 L 410.38 1028.62 L 410.38 -240.38 L 734.38 -240.38 M 734.38 -240.38"/></clipPath>
<clipPath id="clip-3"><path d="M 1004.62 -510.62 L 1004.62 758.38 L 680.62 758.38 L 680.62 -510.62 L 1004.62 -510.62 M 1004.62 -510.62"/></clipPath>
<clipPath id="clip-4"><path d="M 1274.88 -780.88 L 1274.88 488.12 L 950.88 488.12 L 950.88 -780.88 L 1274.88 -780.88 M 1274.88 -780.88"/></clipPath>
<clipPath id="clip-5"><path d="M 145 100 L 145 1369 L -179 1369 L -179 100 L 145 100 M 145 100"/></clipPath>
<clipPath id="clip-6"><path d="M 82 10 L 82 235 L 1163 235 L 1163 10 M 82 10"/></clipPath>
</defs>
<rect x="0" y="0" width="1269" height="324" style="fill: rgb(255,255,255);fill-opacity: 1" transform="matrix(1,0,0,1,0,0)" clip-path="url(#clip-0)"/><rect x="1183" y="70" width="76" height="184" style="fill: rgb(255,255,255);fill-opacity: 1" transform="matrix(1,0,0,1,0,0)" clip-path="url(#clip-0)"/><g style="stroke-width: 1.0;stroke: rgb(192,192,192);stroke-opacity: 1; fill: none" transform="matrix(1,0,0,1,0,0)" clip-path="url(#clip-0)"><path d="M 1183 75 L 1183 249 C 1183 251.76 1185.24 254 1188 254 L 1254 254 C 1256.76 254 1259 251.76 1259 249 L 1259 75 C 1259 72.24 1256.76 70 1254 70 L 1188 70 C 1185.24 70 1183 72.24 1183 75 M 1183 75"/></g><g style="fill: rgb(255,0,0);fill-opacity: 1; stroke: none" transform="matrix(1,0,0,1,0,0)" clip-path="url(#clip-0)"><path d="M 1187 76 L 1193 76 L 1193 86 L 1187 86 L 1187 76 M 1187 76"/></g><g transform="matrix(1,0,0,1,0,0)"><text x="1197" y="84.48" style="fill: rgb(39,75,109); font-family: Lucida Sans; font-size: 11px; font-weight: bold; " text-rendering="auto" clip-path="url(#clip-0)">étudiante</text></g><g style="fill: rgb(0,0,255);fill-opacity: 1; stroke: none" transform="matrix(1,0,0,1,0,0)" clip-path="url(#clip-0)"><path d="M 1187 94 L 1193 94 L 1193 104 L 1187 104 L 1187 94 M 1187 94"/></g><g transform="matrix(1,0,0,1,0,0)"><text x="1197" y="102.48" style="fill: rgb(39,75,109); font-family: Lucida Sans; font-size: 11px; font-weight: bold; " text-rendering="auto" clip-path="url(#clip-0)">année</text></g><g style="fill: rgb(0,139,0);fill-opacity: 1; stroke: none" transform="matrix(1,0,0,1,0,0)" clip-path="url(#clip-0)"><path d="M 1187 112 L 1193 112 L 1193 122 L 1187 122 L 1187 112 M 1187 112"/></g><g transform="matrix(1,0,0,1,0,0)"><text x="1197" y="120.48" style="fill: rgb(39,75,109); font-family: Lucida Sans; font-size: 11px; font-weight: bold; " text-rendering="auto" clip-path="url(#clip-0)">mixologie</text></g><g style="fill: rgb(255,215,0);fill-opacity: 1; stroke: none" transform="matrix(1,0,0,1,0,0)" clip-path="url(#clip-0)"><path d="M 1187 130 L 1193 130 L 1193 140 L 1187 140 L 1187 130 M 1187 130"/></g><g transform="matrix(1,0,0,1,0,0)"><text x="1197" y="138.48" style="fill: rgb(39,75,109); font-family: Lucida Sans; font-size: 11px; font-weight: bold; " text-rendering="auto" clip-path="url(#clip-0)">philippe</text></g><g style="fill: rgb(255,20,147);fill-opacity: 1; stroke: none" transform="matrix(1,0,0,1,0,0)" clip-path="url(#clip-0)"><path d="M 1187 148 L 1193 148 L 1193 158 L 1187 158 L 1187 148 M 1187 148"/></g><g transform="matrix(1,0,0,1,0,0)"><text x="1197" y="156.48" style="fill: rgb(39,75,109); font-family: Lucida Sans; font-size: 11px; font-weight: bold; " text-rendering="auto" clip-path="url(#clip-0)">suis</text></g><g style="fill: rgb(178,34,34);fill-opacity: 1; stroke: none" transform="matrix(1,0,0,1,0,0)" clip-path="url(#clip-0)"><path d="M 1187 166 L 1193 166 L 1193 176 L 1187 176 L 1187 166 M 1187 166"/></g><g transform="matrix(1,0,0,1,0,0)"><text x="1197" y="174.48" style="fill: rgb(39,75,109); font-family: Lucida Sans; font-size: 11px; font-weight: bold; " text-rendering="auto" clip-path="url(#clip-0)">titulaire</text></g><g style="fill: rgb(0,191,255);fill-opacity: 1; stroke: none" transform="matrix(1,0,0,1,0,0)" clip-path="url(#clip-0)"><path d="M 1187 184 L 1193 184 L 1193 194 L 1187 194 L 1187 184 M 1187 184"/></g><g transform="matrix(1,0,0,1,0,0)"><text x="1197" y="192.48" style="fill: rgb(39,75,109); font-family: Lucida Sans; font-size: 11px; font-weight: bold; " text-rendering="auto" clip-path="url(#clip-0)">guide</text></g><g style="fill: rgb(173,255,47);fill-opacity: 1; stroke: none" transform="matrix(1,0,0,1,0,0)" clip-path="url(#clip-0)"><path d="M 1187 202 L 1193 202 L 1193 212 L 1187 212 L 1187 202 M 1187 202"/></g><g transform="matrix(1,0,0,1,0,0)"><text x="1197" y="210.48" style="fill: rgb(39,75,109); font-family: Lucida Sans; font-size: 11px; font-weight: bold; " text-rendering="auto" clip-path="url(#clip-0)">motivée</text></g><g style="fill: rgb(255,185,15);fill-opacity: 1; stroke: none" transform="matrix(1,0,0,1,0,0)" clip-path="url(#clip-0)"><path d="M 1187 220 L 1193 220 L 1193 230 L 1187 230 L 1187 220 M 1187 220"/></g><g transform="matrix(1,0,0,1,0,0)"><text x="1197" y="228.48" style="fill: rgb(39,75,109); font-family: Lucida Sans; font-size: 11px; font-weight: bold; " text-rendering="auto" clip-path="url(#clip-0)">commerce</text></g><g style="fill: rgb(255,0,255);fill-opacity: 1; stroke: none" transform="matrix(1,0,0,1,0,0)" clip-path="url(#clip-0)"><path d="M 1187 238 L 1193 238 L 1193 248 L 1187 248 L 1187 238 M 1187 238"/></g><g transform="matrix(1,0,0,1,0,0)"><text x="1197" y="246.48" style="fill: rgb(39,75,109); font-family: Lucida Sans; font-size: 11px; font-weight: bold; " text-rendering="auto" clip-path="url(#clip-0)">intéressée</text></g><rect x="82" y="10" width="1081" height="225" style="fill: rgb(255,255,255);fill-opacity: 1" transform="matrix(1,0,0,1,0,0)" clip-path="url(#clip-0)"/><line x1="82" y1="235" x2="1163" y2="235" style="stroke-width: 0.5;stroke: rgb(192,208,224);stroke-opacity: 1;" transform="matrix(1,0,0,1,0,0)" clip-path="url(#clip-0)"/><g style="fill: rgb(102,102,102);fill-opacity: 1; stroke: none" transform="matrix(0,-1,1,0,-29.875,464.125)" clip-path="url(#clip-1)"><path d="M 190.12 251.68 L 190.12 243.73 L 192.31 243.73 L 194.22 249.32 L 196.19 243.73 L 198.11 243.73 L 198.11 251.68 L 196.59 251.68 L 196.59 245.68 L 194.66 251.15 L 193.31 251.15 L 191.42 245.6 L 191.42 251.68 L 190.12 251.68 M 190.12 251.68 M 203.02 251.04 Q 202.22 251.82 201.31 251.82 Q 200.53 251.82 200.05 251.34 Q 199.56 250.87 199.56 250.12 Q 199.56 249.13 200.34 248.61 Q 201.12 248.09 202.58 248.09 L 203.02 248.09 L 203.02 247.54 Q 203.02 246.63 201.97 246.63 Q 201.03 246.63 200.08 247.15 L 200.08 246.05 Q 201.16 245.65 202.22 245.65 Q 204.53 245.65 204.53 247.49 L 204.53 250.1 Q 204.53 250.79 204.98 250.79 Q 205.06 250.79 205.19 250.77 L 205.23 251.66 Q 204.72 251.82 204.33 251.82 Q 203.36 251.82 203.08 251.04 L 203.02 251.04 M 203.02 251.04 M 203.02 250.2 L 203.02 248.99 L 202.62 248.99 Q 201.09 248.99 201.09 249.96 Q 201.09 250.29 201.31 250.51 Q 201.53 250.73 201.86 250.73 Q 202.42 250.73 203.02 250.2 M 203.02 250.2 M 205.97 251.49 L 205.97 250.32 Q 207.14 250.82 207.98 250.82 Q 208.95 250.82 208.95 250.15 Q 208.95 249.73 208.16 249.4 L 207.62 249.18 Q 206.73 248.84 206.36 248.43 Q 205.98 248.02 205.98 247.41 Q 205.98 246.57 206.62 246.11 Q 207.27 245.65 208.42 245.65 Q 209.14 245.65 210.12 245.85 L 210.12 246.98 Q 209.17 246.65 208.55 246.65 Q 207.56 246.65 207.56 247.26 Q 207.56 247.66 208.28 247.93 L 208.75 248.12 Q 209.78 248.51 210.19 248.91 Q 210.59 249.3 210.59 249.95 Q 210.59 250.77 209.91 251.3 Q 209.22 251.82 208.11 251.82 Q 207.05 251.82 205.97 251.49 M 205.97 251.49 M 216.47 251.55 Q 215.48 251.82 214.64 251.82 Q 213.22 251.82 212.41 250.98 Q 211.59 250.15 211.59 248.73 Q 211.59 247.27 212.44 246.46 Q 213.28 245.65 214.77 245.65 Q 215.48 245.65 216.42 245.88 L 216.42 247.02 Q 215.44 246.71 214.86 246.71 Q 214.14 246.71 213.71 247.26 Q 213.28 247.8 213.28 248.71 Q 213.28 249.65 213.75 250.2 Q 214.22 250.76 215 250.76 Q 215.72 250.76 216.47 250.45 L 216.47 251.55 M 216.47 251.55"/></g><line x1="352.25" y1="240" x2="352.25" y2="235" style="stroke-width: 0.5;stroke: rgb(192,208,224);stroke-opacity: 1;" transform="matrix(1,0,0,1,0,0)" clip-path="url(#clip-0)"/><line x1="82" y1="240" x2="82" y2="235" style="stroke-width: 0.5;stroke: rgb(192,208,224);stroke-opacity: 1;" transform="matrix(1,0,0,1,0,0)" clip-path="url(#clip-0)"/><g style="fill: rgb(102,102,102);fill-opacity: 1; stroke: none" transform="matrix(0,-1,1,0,240.375,734.375)" clip-path="url(#clip-2)"><path d="M 465.38 251.68 L 465.38 243.73 L 470.38 243.73 L 470.38 244.82 L 467.02 244.82 L 467.02 247.24 L 469.77 247.24 L 469.77 248.34 L 467.02 248.34 L 467.02 251.68 L 465.38 251.68 M 465.38 251.68 M 476.17 251.48 Q 475.03 251.82 474.02 251.82 Q 472.55 251.82 471.7 250.98 Q 470.84 250.13 470.84 248.7 Q 470.84 247.32 471.62 246.48 Q 472.41 245.65 473.69 245.65 Q 474.98 245.65 475.58 246.46 Q 476.17 247.27 476.17 249.05 L 472.52 249.05 Q 472.67 250.73 474.36 250.73 Q 475.17 250.73 476.17 250.37 L 476.17 251.48 M 476.17 251.48 M 472.48 248.15 L 474.61 248.15 Q 474.61 246.65 473.64 246.65 Q 472.64 246.65 472.48 248.15 M 472.48 248.15 M 477.38 251.68 L 477.38 245.79 L 478.89 245.79 L 478.89 246.9 Q 479.59 245.65 480.88 245.65 Q 481.55 245.65 481.98 245.98 Q 482.41 246.3 482.5 246.9 Q 483.33 245.65 484.5 245.65 Q 486.12 245.65 486.12 247.43 L 486.12 251.68 L 484.59 251.68 L 484.59 247.95 Q 484.59 246.9 483.89 246.9 Q 483.19 246.9 482.5 247.93 L 482.5 251.68 L 480.98 251.68 L 480.98 247.95 Q 480.98 246.9 480.28 246.9 Q 479.58 246.9 478.89 247.93 L 478.89 251.68 L 477.38 251.68 M 477.38 251.68"/></g><line x1="622.5" y1="240" x2="622.5" y2="235" style="stroke-width: 0.5;stroke: rgb(192,208,224);stroke-opacity: 1;" transform="matrix(1,0,0,1,0,0)" clip-path="url(#clip-0)"/><g style="fill: rgb(102,102,102);fill-opacity: 1; stroke: none" transform="matrix(0,-1,1,0,510.625,1004.625)" clip-path="url(#clip-3)"><path d="M 722.62 251.68 L 722.62 243.73 L 724.08 243.73 L 727.77 249.16 L 727.77 243.73 L 729.08 243.73 L 729.08 251.68 L 727.61 251.68 L 723.95 246.24 L 723.95 251.68 L 722.62 251.68 M 722.62 251.68 M 735.42 251.48 Q 734.28 251.82 733.27 251.82 Q 731.8 251.82 730.95 250.98 Q 730.09 250.13 730.09 248.7 Q 730.09 247.32 730.88 246.48 Q 731.66 245.65 732.94 245.65 Q 734.23 245.65 734.83 246.46 Q 735.42 247.27 735.42 249.05 L 731.77 249.05 Q 731.92 250.73 733.61 250.73 Q 734.42 250.73 735.42 250.37 L 735.42 251.48 M 735.42 251.48 M 731.73 248.15 L 733.86 248.15 Q 733.86 246.65 732.89 246.65 Q 731.89 246.65 731.73 248.15 M 731.73 248.15 M 740.27 251.68 L 740.27 250.57 Q 739.5 251.82 738.25 251.82 Q 737.47 251.82 737.01 251.32 Q 736.55 250.82 736.55 249.95 L 736.55 245.79 L 738.14 245.79 L 738.14 249.55 Q 738.14 250.55 738.81 250.55 Q 739.56 250.55 740.27 249.49 L 740.27 245.79 L 741.86 245.79 L 741.86 251.68 L 740.27 251.68 M 740.27 251.68 M 746.66 251.65 Q 746.09 251.82 745.77 251.82 Q 743.69 251.82 743.69 249.88 L 743.69 246.77 L 743.03 246.77 L 743.03 245.79 L 743.69 245.79 L 743.69 244.79 L 745.28 244.6 L 745.28 245.79 L 746.55 245.79 L 746.55 246.77 L 745.28 246.77 L 745.28 249.66 Q 745.28 250.76 746.17 250.76 Q 746.38 250.76 746.66 250.68 L 746.66 251.65 M 746.66 251.65 M 747.62 251.68 L 747.62 245.79 L 749.2 245.79 L 749.2 246.9 Q 749.83 245.65 751.09 245.65 Q 751.23 245.65 751.39 245.68 L 751.39 247.1 Q 751.05 246.98 750.75 246.98 Q 749.81 246.98 749.2 247.93 L 749.2 251.68 L 747.62 251.68 M 747.62 251.68 M 757.42 251.48 Q 756.28 251.82 755.27 251.82 Q 753.8 251.82 752.95 250.98 Q 752.09 250.13 752.09 248.7 Q 752.09 247.32 752.88 246.48 Q 753.66 245.65 754.94 245.65 Q 756.23 245.65 756.83 246.46 Q 757.42 247.27 757.42 249.05 L 753.77 249.05 Q 753.92 250.73 755.61 250.73 Q 756.42 250.73 757.42 250.37 L 757.42 251.48 M 757.42 251.48 M 753.73 248.15 L 755.86 248.15 Q 755.86 246.65 754.89 246.65 Q 753.89 246.65 753.73 248.15 M 753.73 248.15"/></g><line x1="892.75" y1="240" x2="892.75" y2="235" style="stroke-width: 0.5;stroke: rgb(192,208,224);stroke-opacity: 1;" transform="matrix(1,0,0,1,0,0)" clip-path="url(#clip-0)"/><g style="fill: rgb(102,102,102);fill-opacity: 1; stroke: none" transform="matrix(0,-1,1,0,780.875,1274.875)" clip-path="url(#clip-4)"><path d="M 984 251.68 L 987.09 243.73 L 988.75 243.73 L 991.84 251.68 L 990.14 251.68 L 989.31 249.55 L 986.03 249.55 L 985.2 251.68 L 984 251.68 M 984 251.68 M 986.44 248.49 L 988.91 248.49 L 987.67 245.34 L 986.44 248.49 M 986.44 248.49 M 992.88 251.68 L 992.88 245.79 L 994.39 245.79 L 994.39 246.9 Q 995.09 245.65 996.38 245.65 Q 997.05 245.65 997.48 245.98 Q 997.91 246.3 998 246.9 Q 998.83 245.65 1000 245.65 Q 1001.62 245.65 1001.62 247.43 L 1001.62 251.68 L 1000.09 251.68 L 1000.09 247.95 Q 1000.09 246.9 999.39 246.9 Q 998.69 246.9 998 247.93 L 998 251.68 L 996.48 251.68 L 996.48 247.95 Q 996.48 246.9 995.78 246.9 Q 995.08 246.9 994.39 247.93 L 994.39 251.68 L 992.88 251.68 M 992.88 251.68 M 1003.88 251.68 L 1003.88 243.2 L 1005.45 243.2 L 1005.45 246.9 Q 1006.08 245.65 1007.39 245.65 Q 1008.45 245.65 1009.06 246.43 Q 1009.67 247.21 1009.67 248.57 Q 1009.67 250.04 1008.98 250.93 Q 1008.3 251.82 1007.14 251.82 Q 1006.16 251.82 1005.45 251.09 L 1005.16 251.68 L 1003.88 251.68 M 1003.88 251.68 M 1005.45 250.13 Q 1006.03 250.79 1006.69 250.79 Q 1007.28 250.79 1007.63 250.22 Q 1007.98 249.65 1007.98 248.71 Q 1007.98 246.9 1006.81 246.9 Q 1006.11 246.9 1005.45 247.8 L 1005.45 250.13 M 1005.45 250.13 M 1010.88 251.68 L 1010.88 245.79 L 1012.45 245.79 L 1012.45 251.68 L 1010.88 251.68 M 1010.88 251.68 M 1010.88 244.79 L 1010.88 243.46 L 1012.45 243.46 L 1012.45 244.79 L 1010.88 244.79 M 1010.88 244.79 M 1014.91 253.51 L 1015.05 252.35 Q 1016.03 252.8 1016.92 252.8 Q 1017.8 252.8 1018.19 252.43 Q 1018.58 252.05 1018.58 251.21 L 1018.58 250.41 Q 1018 251.68 1016.66 251.68 Q 1015.61 251.68 1014.99 250.89 Q 1014.38 250.1 1014.38 248.76 Q 1014.38 247.35 1015.07 246.5 Q 1015.77 245.65 1016.91 245.65 Q 1017.81 245.65 1018.58 246.38 L 1018.75 245.79 L 1020.17 245.79 L 1020.17 250.29 Q 1020.17 251.63 1020.01 252.23 Q 1019.84 252.82 1019.38 253.24 Q 1018.58 253.93 1017.14 253.93 Q 1016.11 253.93 1014.91 253.51 M 1014.91 253.51 M 1018.58 249.48 L 1018.58 247.3 Q 1018 246.66 1017.38 246.66 Q 1016.78 246.66 1016.42 247.21 Q 1016.06 247.76 1016.06 248.68 Q 1016.06 250.41 1017.17 250.41 Q 1017.95 250.41 1018.58 249.48 M 1018.58 249.48 M 1025.52 251.68 L 1025.52 250.57 Q 1024.75 251.82 1023.5 251.82 Q 1022.72 251.82 1022.26 251.32 Q 1021.8 250.82 1021.8 249.95 L 1021.8 245.79 L 1023.39 245.79 L 1023.39 249.55 Q 1023.39 250.55 1024.06 250.55 Q 1024.81 250.55 1025.52 249.49 L 1025.52 245.79 L 1027.11 245.79 L 1027.11 251.68 L 1025.52 251.68 M 1025.52 251.68"/></g><line x1="1163" y1="240" x2="1163" y2="235" style="stroke-width: 0.5;stroke: rgb(192,208,224);stroke-opacity: 1;" transform="matrix(1,0,0,1,0,0)" clip-path="url(#clip-0)"/><g transform="matrix(1,0,0,1,0,0)"><text x="600" y="307.84" style="fill: rgb(77,117,158); font-family: Lucida Sans; font-size: 15px; font-weight: bold; " text-rendering="auto" clip-path="url(#clip-0)">Partie</text></g><g transform="matrix(1,0,0,1,0,0)"><text x="37" y="229.45" style="fill: rgb(102,102,102); font-family: Lucida Sans; font-size: 11px; font-weight: bold; " text-rendering="auto" clip-path="url(#clip-0)">-1 000</text></g><g transform="matrix(1,0,0,1,0,0)"><text x="48" y="209" style="fill: rgb(102,102,102); font-family: Lucida Sans; font-size: 11px; font-weight: bold; " text-rendering="auto" clip-path="url(#clip-0)">-800</text></g><g transform="matrix(1,0,0,1,0,0)"><text x="48" y="188.54" style="fill: rgb(102,102,102); font-family: Lucida Sans; font-size: 11px; font-weight: bold; " text-rendering="auto" clip-path="url(#clip-0)">-600</text></g><g transform="matrix(1,0,0,1,0,0)"><text x="48" y="168.09" style="fill: rgb(102,102,102); font-family: Lucida Sans; font-size: 11px; font-weight: bold; " text-rendering="auto" clip-path="url(#clip-0)">-400</text></g><g transform="matrix(1,0,0,1,0,0)"><text x="48" y="147.63" style="fill: rgb(102,102,102); font-family: Lucida Sans; font-size: 11px; font-weight: bold; " text-rendering="auto" clip-path="url(#clip-0)">-200</text></g><g transform="matrix(1,0,0,1,0,0)"><text x="69" y="127.18" style="fill: rgb(102,102,102); font-family: Lucida Sans; font-size: 11px; font-weight: bold; " text-rendering="auto" clip-path="url(#clip-0)">0</text></g><g transform="matrix(1,0,0,1,0,0)"><text x="55" y="106.73" style="fill: rgb(102,102,102); font-family: Lucida Sans; font-size: 11px; font-weight: bold; " text-rendering="auto" clip-path="url(#clip-0)">200</text></g><g transform="matrix(1,0,0,1,0,0)"><text x="55" y="86.27" style="fill: rgb(102,102,102); font-family: Lucida Sans; font-size: 11px; font-weight: bold; " text-rendering="auto" clip-path="url(#clip-0)">400</text></g><g transform="matrix(1,0,0,1,0,0)"><text x="55" y="65.82" style="fill: rgb(102,102,102); font-family: Lucida Sans; font-size: 11px; font-weight: bold; " text-rendering="auto" clip-path="url(#clip-0)">600</text></g><g transform="matrix(1,0,0,1,0,0)"><text x="55" y="45.36" style="fill: rgb(102,102,102); font-family: Lucida Sans; font-size: 11px; font-weight: bold; " text-rendering="auto" clip-path="url(#clip-0)">800</text></g><g transform="matrix(1,0,0,1,0,0)"><text x="44" y="24.91" style="fill: rgb(102,102,102); font-family: Lucida Sans; font-size: 11px; font-weight: bold; " text-rendering="auto" clip-path="url(#clip-0)">1 000</text></g><g style="fill: rgb(77,117,158);fill-opacity: 1; stroke: none" transform="matrix(0,-1,1,0,-100,145)" clip-path="url(#clip-5)"><path d="M 0.36 128.84 L 0.36 117.99 L 2.61 117.99 L 2.61 128.84 L 0.36 128.84 M 0.36 128.84 M 5.36 128.84 L 5.36 120.79 L 7.52 120.79 L 7.52 122.3 Q 8.58 120.62 10.27 120.62 Q 11.34 120.62 11.96 121.3 Q 12.58 121.98 12.58 123.15 L 12.58 128.84 L 10.42 128.84 L 10.42 123.68 Q 10.42 122.32 9.52 122.32 Q 8.47 122.32 7.52 123.77 L 7.52 128.84 L 5.36 128.84 M 5.36 128.84 M 20.42 128.84 L 20.42 127.32 Q 19.58 129.02 17.78 129.02 Q 16.34 129.02 15.52 127.96 Q 14.69 126.9 14.69 125.04 Q 14.69 123.01 15.62 121.81 Q 16.55 120.62 18.12 120.62 Q 19.39 120.62 20.42 121.6 L 20.42 117.27 L 22.59 117.27 L 22.59 128.84 L 20.42 128.84 M 20.42 128.84 M 20.42 122.9 Q 19.62 122.02 18.73 122.02 Q 17.94 122.02 17.46 122.79 Q 16.98 123.55 16.98 124.85 Q 16.98 127.32 18.58 127.32 Q 19.53 127.32 20.42 126.09 L 20.42 122.9 M 20.42 122.9 M 25.36 128.84 L 25.36 120.79 L 27.52 120.79 L 27.52 128.84 L 25.36 128.84 M 25.36 128.84 M 25.36 119.45 L 25.36 117.63 L 27.52 117.63 L 27.52 119.45 L 25.36 119.45 M 25.36 119.45 M 36.28 128.66 Q 34.94 129.02 33.8 129.02 Q 31.86 129.02 30.74 127.89 Q 29.62 126.76 29.62 124.8 Q 29.62 122.84 30.78 121.73 Q 31.94 120.62 33.95 120.62 Q 34.94 120.62 36.22 120.93 L 36.22 122.49 Q 34.89 122.05 34.09 122.05 Q 33.11 122.05 32.52 122.8 Q 31.94 123.55 31.94 124.79 Q 31.94 126.05 32.58 126.82 Q 33.22 127.59 34.28 127.59 Q 35.25 127.59 36.28 127.16 L 36.28 128.66 M 36.28 128.66 M 44.91 128.57 Q 43.36 129.02 41.97 129.02 Q 39.95 129.02 38.79 127.88 Q 37.62 126.73 37.62 124.76 Q 37.62 122.88 38.7 121.75 Q 39.77 120.62 41.52 120.62 Q 43.28 120.62 44.09 121.73 Q 44.91 122.84 44.91 125.24 L 39.92 125.24 Q 40.14 127.54 42.44 127.54 Q 43.53 127.54 44.91 127.04 L 44.91 128.57 M 44.91 128.57 M 39.89 124.02 L 42.77 124.02 Q 42.77 121.96 41.45 121.96 Q 40.09 121.96 39.89 124.02 M 39.89 124.02"/></g><line x1="82" y1="224.77" x2="1163" y2="224.77" style="stroke-width: 1.0;stroke: rgb(192,192,192);stroke-opacity: 1;" transform="matrix(1,0,0,1,0,0)" clip-path="url(#clip-6)"/><line x1="82" y1="204.32" x2="1163" y2="204.32" style="stroke-width: 1.0;stroke: rgb(192,192,192);stroke-opacity: 1;" transform="matrix(1,0,0,1,0,0)" clip-path="url(#clip-6)"/><line x1="82" y1="183.86" x2="1163" y2="183.86" style="stroke-width: 1.0;stroke: rgb(192,192,192);stroke-opacity: 1;" transform="matrix(1,0,0,1,0,0)" clip-path="url(#clip-6)"/><line x1="82" y1="163.41" x2="1163" y2="163.41" style="stroke-width: 1.0;stroke: rgb(192,192,192);stroke-opacity: 1;" transform="matrix(1,0,0,1,0,0)" clip-path="url(#clip-6)"/><line x1="82" y1="142.95" x2="1163" y2="142.95" style="stroke-width: 1.0;stroke: rgb(192,192,192);stroke-opacity: 1;" transform="matrix(1,0,0,1,0,0)" clip-path="url(#clip-6)"/><line x1="82" y1="102.05" x2="1163" y2="102.05" style="stroke-width: 1.0;stroke: rgb(192,192,192);stroke-opacity: 1;" transform="matrix(1,0,0,1,0,0)" clip-path="url(#clip-6)"/><line x1="82" y1="81.59" x2="1163" y2="81.59" style="stroke-width: 1.0;stroke: rgb(192,192,192);stroke-opacity: 1;" transform="matrix(1,0,0,1,0,0)" clip-path="url(#clip-6)"/><line x1="82" y1="61.14" x2="1163" y2="61.14" style="stroke-width: 1.0;stroke: rgb(192,192,192);stroke-opacity: 1;" transform="matrix(1,0,0,1,0,0)" clip-path="url(#clip-6)"/><line x1="82" y1="40.68" x2="1163" y2="40.68" style="stroke-width: 1.0;stroke: rgb(192,192,192);stroke-opacity: 1;" transform="matrix(1,0,0,1,0,0)" clip-path="url(#clip-6)"/><line x1="82" y1="20.23" x2="1163" y2="20.23" style="stroke-width: 1.0;stroke: rgb(192,192,192);stroke-opacity: 1;" transform="matrix(1,0,0,1,0,0)" clip-path="url(#clip-6)"/><line x1="82" y1="122.5" x2="1163" y2="122.5" style="stroke-width: 0.5;stroke: rgb(134,145,156);stroke-opacity: 1;" transform="matrix(1,0,0,1,0,0)" clip-path="url(#clip-6)"/><rect x="292.79" y="122.5" width="18.92" height="11.43" style="fill: rgb(255,0,255);fill-opacity: 1" transform="matrix(1,0,0,1,0,0)" clip-path="url(#clip-6)"/><rect x="563.05" y="97.18" width="18.92" height="25.32" style="fill: rgb(255,0,255);fill-opacity: 1" transform="matrix(1,0,0,1,0,0)" clip-path="url(#clip-6)"/><rect x="833.3" y="122.5" width="18.92" height="6.62" style="fill: rgb(255,0,255);fill-opacity: 1" transform="matrix(1,0,0,1,0,0)" clip-path="url(#clip-6)"/><rect x="1103.55" y="121.71" width="18.92" height="0.79" style="fill: rgb(255,0,255);fill-opacity: 1" transform="matrix(1,0,0,1,0,0)" clip-path="url(#clip-6)"/><rect x="273.88" y="122.5" width="18.92" height="0.81" style="fill: rgb(255,185,15);fill-opacity: 1" transform="matrix(1,0,0,1,0,0)" clip-path="url(#clip-6)"/><rect x="544.13" y="120.37" width="18.92" height="2.13" style="fill: rgb(255,185,15);fill-opacity: 1" transform="matrix(1,0,0,1,0,0)" clip-path="url(#clip-6)"/><rect x="814.38" y="122.5" width="18.92" height="0.84" style="fill: rgb(255,185,15);fill-opacity: 1" transform="matrix(1,0,0,1,0,0)" clip-path="url(#clip-6)"/><rect x="1084.63" y="121.69" width="18.92" height="0.81" style="fill: rgb(255,185,15);fill-opacity: 1" transform="matrix(1,0,0,1,0,0)" clip-path="url(#clip-6)"/><rect x="254.96" y="122.5" width="18.92" height="25.32" style="fill: rgb(173,255,47);fill-opacity: 1" transform="matrix(1,0,0,1,0,0)" clip-path="url(#clip-6)"/><rect x="525.21" y="20.23" width="18.92" height="102.27" style="fill: rgb(173,255,47);fill-opacity: 1" transform="matrix(1,0,0,1,0,0)" clip-path="url(#clip-6)"/><rect x="795.46" y="122.5" width="18.92" height="9.3" style="fill: rgb(173,255,47);fill-opacity: 1" transform="matrix(1,0,0,1,0,0)" clip-path="url(#clip-6)"/><rect x="1065.71" y="121.68" width="18.92" height="0.82" style="fill: rgb(173,255,47);fill-opacity: 1" transform="matrix(1,0,0,1,0,0)" clip-path="url(#clip-6)"/><rect x="236.04" y="122.5" width="18.92" height="0.07" style="fill: rgb(0,191,255);fill-opacity: 1" transform="matrix(1,0,0,1,0,0)" clip-path="url(#clip-6)"/><rect x="506.29" y="122.5" width="18.92" height="0.05" style="fill: rgb(0,191,255);fill-opacity: 1" transform="matrix(1,0,0,1,0,0)" clip-path="url(#clip-6)"/><rect x="776.54" y="122.5" width="18.92" height="0.14" style="fill: rgb(0,191,255);fill-opacity: 1" transform="matrix(1,0,0,1,0,0)" clip-path="url(#clip-6)"/><rect x="1046.79" y="121.67" width="18.92" height="0.83" style="fill: rgb(0,191,255);fill-opacity: 1" transform="matrix(1,0,0,1,0,0)" clip-path="url(#clip-6)"/><rect x="217.12" y="122.5" width="18.92" height="0.15" style="fill: rgb(178,34,34);fill-opacity: 1" transform="matrix(1,0,0,1,0,0)" clip-path="url(#clip-6)"/><rect x="487.38" y="122.27" width="18.92" height="0.23" style="fill: rgb(178,34,34);fill-opacity: 1" transform="matrix(1,0,0,1,0,0)" clip-path="url(#clip-6)"/><rect x="757.62" y="122.5" width="18.92" height="0.28" style="fill: rgb(178,34,34);fill-opacity: 1" transform="matrix(1,0,0,1,0,0)" clip-path="url(#clip-6)"/><rect x="1027.88" y="121.67" width="18.92" height="0.83" style="fill: rgb(178,34,34);fill-opacity: 1" transform="matrix(1,0,0,1,0,0)" clip-path="url(#clip-6)"/><rect x="198.21" y="113.91" width="18.92" height="8.59" style="fill: rgb(255,20,147);fill-opacity: 1" transform="matrix(1,0,0,1,0,0)" clip-path="url(#clip-6)"/><rect x="468.46" y="109.74" width="18.92" height="12.76" style="fill: rgb(255,20,147);fill-opacity: 1" transform="matrix(1,0,0,1,0,0)" clip-path="url(#clip-6)"/><rect x="738.71" y="122.5" width="18.92" height="102.27" style="fill: rgb(255,20,147);fill-opacity: 1" transform="matrix(1,0,0,1,0,0)" clip-path="url(#clip-6)"/><rect x="1008.96" y="121.55" width="18.92" height="0.95" style="fill: rgb(255,20,147);fill-opacity: 1" transform="matrix(1,0,0,1,0,0)" clip-path="url(#clip-6)"/><rect x="179.29" y="122.5" width="18.92" height="0.15" style="fill: rgb(255,215,0);fill-opacity: 1" transform="matrix(1,0,0,1,0,0)" clip-path="url(#clip-6)"/><rect x="449.54" y="122.5" width="18.92" height="0.1" style="fill: rgb(255,215,0);fill-opacity: 1" transform="matrix(1,0,0,1,0,0)" clip-path="url(#clip-6)"/><rect x="719.79" y="122.5" width="18.92" height="0.13" style="fill: rgb(255,215,0);fill-opacity: 1" transform="matrix(1,0,0,1,0,0)" clip-path="url(#clip-6)"/><rect x="990.04" y="121.39" width="18.92" height="1.11" style="fill: rgb(255,215,0);fill-opacity: 1" transform="matrix(1,0,0,1,0,0)" clip-path="url(#clip-6)"/><rect x="160.37" y="122.5" width="18.92" height="0.22" style="fill: rgb(0,139,0);fill-opacity: 1" transform="matrix(1,0,0,1,0,0)" clip-path="url(#clip-6)"/><rect x="430.62" y="122.5" width="18.92" height="0.09" style="fill: rgb(0,139,0);fill-opacity: 1" transform="matrix(1,0,0,1,0,0)" clip-path="url(#clip-6)"/><rect x="700.87" y="122.5" width="18.92" height="0.12" style="fill: rgb(0,139,0);fill-opacity: 1" transform="matrix(1,0,0,1,0,0)" clip-path="url(#clip-6)"/><rect x="971.12" y="121.29" width="18.92" height="1.21" style="fill: rgb(0,139,0);fill-opacity: 1" transform="matrix(1,0,0,1,0,0)" clip-path="url(#clip-6)"/><rect x="141.45" y="122.5" width="18.92" height="0.52" style="fill: rgb(0,0,255);fill-opacity: 1" transform="matrix(1,0,0,1,0,0)" clip-path="url(#clip-6)"/><rect x="411.71" y="118.34" width="18.92" height="4.16" style="fill: rgb(0,0,255);fill-opacity: 1" transform="matrix(1,0,0,1,0,0)" clip-path="url(#clip-6)"/><rect x="681.96" y="122.5" width="18.92" height="3.42" style="fill: rgb(0,0,255);fill-opacity: 1" transform="matrix(1,0,0,1,0,0)" clip-path="url(#clip-6)"/><rect x="952.21" y="121.23" width="18.92" height="1.27" style="fill: rgb(0,0,255);fill-opacity: 1" transform="matrix(1,0,0,1,0,0)" clip-path="url(#clip-6)"/><rect x="122.54" y="122.5" width="18.92" height="20.61" style="fill: rgb(255,0,0);fill-opacity: 1" transform="matrix(1,0,0,1,0,0)" clip-path="url(#clip-6)"/><rect x="392.79" y="20.23" width="18.92" height="102.27" style="fill: rgb(255,0,0);fill-opacity: 1" transform="matrix(1,0,0,1,0,0)" clip-path="url(#clip-6)"/><rect x="663.04" y="122.5" width="18.92" height="16.52" style="fill: rgb(255,0,0);fill-opacity: 1" transform="matrix(1,0,0,1,0,0)" clip-path="url(#clip-6)"/><rect x="933.29" y="120.59" width="18.92" height="1.91" style="fill: rgb(255,0,0);fill-opacity: 1" transform="matrix(1,0,0,1,0,0)" clip-path="url(#clip-6)"/><line x1="82" y1="122.3" x2="1163" y2="122.3" style="stroke-width: 0.5;stroke: rgb(255,0,0);stroke-opacity: 1;" transform="matrix(1,0,0,1,0,0)" clip-path="url(#clip-6)"/><rect x="1095" y="108.82" width="65" height="12" style="fill: rgb(100,100,100);fill-opacity: 0.392157" transform="matrix(1,0,0,1,0,0)" clip-path="url(#clip-6)"/><g transform="matrix(1,0,0,1,0,0)"><text x="1095" y="117.17" style="fill: rgb(0,0,0); font-family: sans-serif; font-size: 9px; " text-rendering="auto" clip-path="url(#clip-6)">Banalité : 2.0</text></g><line x1="82" y1="122.7" x2="1163" y2="122.7" style="stroke-width: 0.5;stroke: rgb(255,0,0);stroke-opacity: 1;" transform="matrix(1,0,0,1,0,0)" clip-path="url(#clip-6)"/><rect x="1092" y="109.23" width="68" height="12" style="fill: rgb(100,100,100);fill-opacity: 0.392157" transform="matrix(1,0,0,1,0,0)" clip-path="url(#clip-6)"/><g transform="matrix(1,0,0,1,0,0)"><text x="1092" y="117.58" style="fill: rgb(0,0,0); font-family: sans-serif; font-size: 9px; " text-rendering="auto" clip-path="url(#clip-6)">Banalité : -2.0</text></g></svg>
