<!DOCTYPE svg PUBLIC "-//W3C//DTD SVG 1.1//EN" "http://www.w3.org/Graphics/SVG/1.1/DTD/svg11.dtd">
<svg style="stroke-linecap:square;" xmlns="http://www.w3.org/2000/svg" xmlns:xlink="http://www.w3.org/1999/xlink" width="1269" height="324">
<defs><clipPath id="clip-0"><path d="M 0 0 L 1269 0 L 1269 324 L 0 324 L 0 0 M 0 0"/></clipPath>
<clipPath id="clip-1"><path d="M 463.62 30.38 L 463.62 1299.38 L 139.62 1299.38 L 139.62 30.38 L 463.62 30.38 M 463.62 30.38"/></clipPath>
<clipPath id="clip-2"><path d="M 732.88 -238.88 L 732.88 1030.12 L 408.88 1030.12 L 408.88 -238.88 L 732.88 -238.88 M 732.88 -238.88"/></clipPath>
<clipPath id="clip-3"><path d="M 1002.12 -508.12 L 1002.12 760.88 L 678.12 760.88 L 678.12 -508.12 L 1002.12 -508.12 M 1002.12 -508.12"/></clipPath>
<clipPath id="clip-4"><path d="M 1271.38 -777.38 L 1271.38 491.62 L 947.38 491.62 L 947.38 -777.38 L 1271.38 -777.38 M 1271.38 -777.38"/></clipPath>
<clipPath id="clip-5"><path d="M 145 100 L 145 1369 L -179 1369 L -179 100 L 145 100 M 145 100"/></clipPath>
<clipPath id="clip-6"><path d="M 82 10 L 82 235 L 1159 235 L 1159 10 M 82 10"/></clipPath>
</defs>
<rect x="0" y="0" width="1269" height="324" style="fill: rgb(255,255,255);fill-opacity: 1" transform="matrix(1,0,0,1,0,0)" clip-path="url(#clip-0)"/><rect x="1179" y="70" width="80" height="184" style="fill: rgb(255,255,255);fill-opacity: 1" transform="matrix(1,0,0,1,0,0)" clip-path="url(#clip-0)"/><g style="stroke-width: 1.0;stroke: rgb(192,192,192);stroke-opacity: 1; fill: none" transform="matrix(1,0,0,1,0,0)" clip-path="url(#clip-0)"><path d="M 1179 75 L 1179 249 C 1179 251.76 1181.24 254 1184 254 L 1254 254 C 1256.76 254 1259 251.76 1259 249 L 1259 75 C 1259 72.24 1256.76 70 1254 70 L 1184 70 C 1181.24 70 1179 72.24 1179 75 M 1179 75"/></g><g style="fill: rgb(255,0,0);fill-opacity: 1; stroke: none" transform="matrix(1,0,0,1,0,0)" clip-path="url(#clip-0)"><path d="M 1183 76 L 1189 76 L 1189 86 L 1183 86 L 1183 76 M 1183 76"/></g><g transform="matrix(1,0,0,1,0,0)"><text x="1193" y="84.48" style="fill: rgb(39,75,109); font-family: Lucida Sans; font-size: 11px; font-weight: bold; " text-rendering="auto" clip-path="url(#clip-0)">enfants</text></g><g style="fill: rgb(0,0,255);fill-opacity: 1; stroke: none" transform="matrix(1,0,0,1,0,0)" clip-path="url(#clip-0)"><path d="M 1183 94 L 1189 94 L 1189 104 L 1183 104 L 1183 94 M 1183 94"/></g><g transform="matrix(1,0,0,1,0,0)"><text x="1193" y="102.48" style="fill: rgb(39,75,109); font-family: Lucida Sans; font-size: 11px; font-weight: bold; " text-rendering="auto" clip-path="url(#clip-0)">sérieuse</text></g><g style="fill: rgb(0,139,0);fill-opacity: 1; stroke: none" transform="matrix(1,0,0,1,0,0)" clip-path="url(#clip-0)"><path d="M 1183 112 L 1189 112 L 1189 122 L 1183 122 L 1183 112 M 1183 112"/></g><g transform="matrix(1,0,0,1,0,0)"><text x="1193" y="120.48" style="fill: rgb(39,75,109); font-family: Lucida Sans; font-size: 11px; font-weight: bold; " text-rendering="auto" clip-path="url(#clip-0)">motivée</text></g><g style="fill: rgb(255,215,0);fill-opacity: 1; stroke: none" transform="matrix(1,0,0,1,0,0)" clip-path="url(#clip-0)"><path d="M 1183 130 L 1189 130 L 1189 140 L 1183 140 L 1183 130 M 1183 130"/></g><g transform="matrix(1,0,0,1,0,0)"><text x="1193" y="138.48" style="fill: rgb(39,75,109); font-family: Lucida Sans; font-size: 11px; font-weight: bold; " text-rendering="auto" clip-path="url(#clip-0)">étudiante</text></g><g style="fill: rgb(255,20,147);fill-opacity: 1; stroke: none" transform="matrix(1,0,0,1,0,0)" clip-path="url(#clip-0)"><path d="M 1183 148 L 1189 148 L 1189 158 L 1183 158 L 1183 148 M 1183 148"/></g><g transform="matrix(1,0,0,1,0,0)"><text x="1193" y="156.48" style="fill: rgb(39,75,109); font-family: Lucida Sans; font-size: 11px; font-weight: bold; " text-rendering="auto" clip-path="url(#clip-0)">assistante</text></g><g style="fill: rgb(178,34,34);fill-opacity: 1; stroke: none" transform="matrix(1,0,0,1,0,0)" clip-path="url(#clip-0)"><path d="M 1183 166 L 1189 166 L 1189 176 L 1183 176 L 1183 166 M 1183 166"/></g><g transform="matrix(1,0,0,1,0,0)"><text x="1193" y="174.48" style="fill: rgb(39,75,109); font-family: Lucida Sans; font-size: 11px; font-weight: bold; " text-rendering="auto" clip-path="url(#clip-0)">femme</text></g><g style="fill: rgb(0,191,255);fill-opacity: 1; stroke: none" transform="matrix(1,0,0,1,0,0)" clip-path="url(#clip-0)"><path d="M 1183 184 L 1189 184 L 1189 194 L 1183 194 L 1183 184 M 1183 184"/></g><g transform="matrix(1,0,0,1,0,0)"><text x="1193" y="192.48" style="fill: rgb(39,75,109); font-family: Lucida Sans; font-size: 11px; font-weight: bold; " text-rendering="auto" clip-path="url(#clip-0)">passionnée</text></g><g style="fill: rgb(173,255,47);fill-opacity: 1; stroke: none" transform="matrix(1,0,0,1,0,0)" clip-path="url(#clip-0)"><path d="M 1183 202 L 1189 202 L 1189 212 L 1183 212 L 1183 202 M 1183 202"/></g><g transform="matrix(1,0,0,1,0,0)"><text x="1193" y="210.48" style="fill: rgb(39,75,109); font-family: Lucida Sans; font-size: 11px; font-weight: bold; " text-rendering="auto" clip-path="url(#clip-0)">intéressée</text></g><g style="fill: rgb(255,185,15);fill-opacity: 1; stroke: none" transform="matrix(1,0,0,1,0,0)" clip-path="url(#clip-0)"><path d="M 1183 220 L 1189 220 L 1189 230 L 1183 230 L 1183 220 M 1183 220"/></g><g transform="matrix(1,0,0,1,0,0)"><text x="1193" y="228.48" style="fill: rgb(39,75,109); font-family: Lucida Sans; font-size: 11px; font-weight: bold; " text-rendering="auto" clip-path="url(#clip-0)">organisée</text></g><g style="fill: rgb(255,0,255);fill-opacity: 1; stroke: none" transform="matrix(1,0,0,1,0,0)" clip-path="url(#clip-0)"><path d="M 1183 238 L 1189 238 L 1189 248 L 1183 248 L 1183 238 M 1183 238"/></g><g transform="matrix(1,0,0,1,0,0)"><text x="1193" y="246.48" style="fill: rgb(39,75,109); font-family: Lucida Sans; font-size: 11px; font-weight: bold; " text-rendering="auto" clip-path="url(#clip-0)">très</text></g><rect x="82" y="10" width="1077" height="225" style="fill: rgb(255,255,255);fill-opacity: 1" transform="matrix(1,0,0,1,0,0)" clip-path="url(#clip-0)"/><line x1="82" y1="235" x2="1159" y2="235" style="stroke-width: 0.5;stroke: rgb(192,208,224);stroke-opacity: 1;" transform="matrix(1,0,0,1,0,0)" clip-path="url(#clip-0)"/><g style="fill: rgb(102,102,102);fill-opacity: 1; stroke: none" transform="matrix(0,-1,1,0,-30.375,463.625)" clip-path="url(#clip-1)"><path d="M 189.62 251.68 L 189.62 243.73 L 191.81 243.73 L 193.72 249.32 L 195.69 243.73 L 197.61 243.73 L 197.61 251.68 L 196.09 251.68 L 196.09 245.68 L 194.16 251.15 L 192.81 251.15 L 190.92 245.6 L 190.92 251.68 L 189.62 251.68 M 189.62 251.68 M 202.52 251.04 Q 201.72 251.82 200.81 251.82 Q 200.03 251.82 199.55 251.34 Q 199.06 250.87 199.06 250.12 Q 199.06 249.13 199.84 248.61 Q 200.62 248.09 202.08 248.09 L 202.52 248.09 L 202.52 247.54 Q 202.52 246.63 201.47 246.63 Q 200.53 246.63 199.58 247.15 L 199.58 246.05 Q 200.66 245.65 201.72 245.65 Q 204.03 245.65 204.03 247.49 L 204.03 250.1 Q 204.03 250.79 204.48 250.79 Q 204.56 250.79 204.69 250.77 L 204.73 251.66 Q 204.22 251.82 203.83 251.82 Q 202.86 251.82 202.58 251.04 L 202.52 251.04 M 202.52 251.04 M 202.52 250.2 L 202.52 248.99 L 202.12 248.99 Q 200.59 248.99 200.59 249.96 Q 200.59 250.29 200.81 250.51 Q 201.03 250.73 201.36 250.73 Q 201.92 250.73 202.52 250.2 M 202.52 250.2 M 205.47 251.49 L 205.47 250.32 Q 206.64 250.82 207.48 250.82 Q 208.45 250.82 208.45 250.15 Q 208.45 249.73 207.66 249.4 L 207.12 249.18 Q 206.23 248.84 205.86 248.43 Q 205.48 248.02 205.48 247.41 Q 205.48 246.57 206.12 246.11 Q 206.77 245.65 207.92 245.65 Q 208.64 245.65 209.62 245.85 L 209.62 246.98 Q 208.67 246.65 208.05 246.65 Q 207.06 246.65 207.06 247.26 Q 207.06 247.66 207.78 247.93 L 208.25 248.12 Q 209.28 248.51 209.69 248.91 Q 210.09 249.3 210.09 249.95 Q 210.09 250.77 209.41 251.3 Q 208.72 251.82 207.61 251.82 Q 206.55 251.82 205.47 251.49 M 205.47 251.49 M 215.97 251.55 Q 214.98 251.82 214.14 251.82 Q 212.72 251.82 211.91 250.98 Q 211.09 250.15 211.09 248.73 Q 211.09 247.27 211.94 246.46 Q 212.78 245.65 214.27 245.65 Q 214.98 245.65 215.92 245.88 L 215.92 247.02 Q 214.94 246.71 214.36 246.71 Q 213.64 246.71 213.21 247.26 Q 212.78 247.8 212.78 248.71 Q 212.78 249.65 213.25 250.2 Q 213.72 250.76 214.5 250.76 Q 215.22 250.76 215.97 250.45 L 215.97 251.55 M 215.97 251.55"/></g><line x1="351.25" y1="240" x2="351.25" y2="235" style="stroke-width: 0.5;stroke: rgb(192,208,224);stroke-opacity: 1;" transform="matrix(1,0,0,1,0,0)" clip-path="url(#clip-0)"/><line x1="82" y1="240" x2="82" y2="235" style="stroke-width: 0.5;stroke: rgb(192,208,224);stroke-opacity: 1;" transform="matrix(1,0,0,1,0,0)" clip-path="url(#clip-0)"/><g style="fill: rgb(102,102,102);fill-opacity: 1; stroke: none" transform="matrix(0,-1,1,0,238.875,732.875)" clip-path="url(#clip-2)"><path d="M 463.88 251.68 L 463.88 243.73 L 468.88 243.73 L 468.88 244.82 L 465.52 244.82 L 465.52 247.24 L 468.27 247.24 L 468.27 248.34 L 465.52 248.34 L 465.52 251.68 L 463.88 251.68 M 463.88 251.68 M 474.67 251.48 Q 473.53 251.82 472.52 251.82 Q 471.05 251.82 470.2 250.98 Q 469.34 250.13 469.34 248.7 Q 469.34 247.32 470.12 246.48 Q 470.91 245.65 472.19 245.65 Q 473.48 245.65 474.08 246.46 Q 474.67 247.27 474.67 249.05 L 471.02 249.05 Q 471.17 250.73 472.86 250.73 Q 473.67 250.73 474.67 250.37 L 474.67 251.48 M 474.67 251.48 M 470.98 248.15 L 473.11 248.15 Q 473.11 246.65 472.14 246.65 Q 471.14 246.65 470.98 248.15 M 470.98 248.15 M 475.88 251.68 L 475.88 245.79 L 477.39 245.79 L 477.39 246.9 Q 478.09 245.65 479.38 245.65 Q 480.05 245.65 480.48 245.98 Q 480.91 246.3 481 246.9 Q 481.83 245.65 483 245.65 Q 484.62 245.65 484.62 247.43 L 484.62 251.68 L 483.09 251.68 L 483.09 247.95 Q 483.09 246.9 482.39 246.9 Q 481.69 246.9 481 247.93 L 481 251.68 L 479.48 251.68 L 479.48 247.95 Q 479.48 246.9 478.78 246.9 Q 478.08 246.9 477.39 247.93 L 477.39 251.68 L 475.88 251.68 M 475.88 251.68"/></g><line x1="620.5" y1="240" x2="620.5" y2="235" style="stroke-width: 0.5;stroke: rgb(192,208,224);stroke-opacity: 1;" transform="matrix(1,0,0,1,0,0)" clip-path="url(#clip-0)"/><g style="fill: rgb(102,102,102);fill-opacity: 1; stroke: none" transform="matrix(0,-1,1,0,508.125,1002.125)" clip-path="url(#clip-3)"><path d="M 720.12 251.68 L 720.12 243.73 L 721.58 243.73 L 725.27 249.16 L 725.27 243.73 L 726.58 243.73 L 726.58 251.68 L 725.11 251.68 L 721.45 246.24 L 721.45 251.68 L 720.12 251.68 M 720.12 251.68 M 732.92 251.48 Q 731.78 251.82 730.77 251.82 Q 729.3 251.82 728.45 250.98 Q 727.59 250.13 727.59 248.7 Q 727.59 247.32 728.38 246.48 Q 729.16 245.65 730.44 245.65 Q 731.73 245.65 732.33 246.46 Q 732.92 247.27 732.92 249.05 L 729.27 249.05 Q 729.42 250.73 731.11 250.73 Q 731.92 250.73 732.92 250.37 L 732.92 251.48 M 732.92 251.48 M 729.23 248.15 L 731.36 248.15 Q 731.36 246.65 730.39 246.65 Q 729.39 246.65 729.23 248.15 M 729.23 248.15 M 737.77 251.68 L 737.77 250.57 Q 737 251.82 735.75 251.82 Q 734.97 251.82 734.51 251.32 Q 734.05 250.82 734.05 249.95 L 734.05 245.79 L 735.64 245.79 L 735.64 249.55 Q 735.64 250.55 736.31 250.55 Q 737.06 250.55 737.77 249.49 L 737.77 245.79 L 739.36 245.79 L 739.36 251.68 L 737.77 251.68 M 737.77 251.68 M 744.16 251.65 Q 743.59 251.82 743.27 251.82 Q 741.19 251.82 741.19 249.88 L 741.19 246.77 L 740.53 246.77 L 740.53 245.79 L 741.19 245.79 L 741.19 244.79 L 742.78 244.6 L 742.78 245.79 L 744.05 245.79 L 744.05 246.77 L 742.78 246.77 L 742.78 249.66 Q 742.78 250.76 743.67 250.76 Q 743.88 250.76 744.16 250.68 L 744.16 251.65 M 744.16 251.65 M 745.12 251.68 L 745.12 245.79 L 746.7 245.79 L 746.7 246.9 Q 747.33 245.65 748.59 245.65 Q 748.73 245.65 748.89 245.68 L 748.89 247.1 Q 748.55 246.98 748.25 246.98 Q 747.31 246.98 746.7 247.93 L 746.7 251.68 L 745.12 251.68 M 745.12 251.68 M 754.92 251.48 Q 753.78 251.82 752.77 251.82 Q 751.3 251.82 750.45 250.98 Q 749.59 250.13 749.59 248.7 Q 749.59 247.32 750.38 246.48 Q 751.16 245.65 752.44 245.65 Q 753.73 245.65 754.33 246.46 Q 754.92 247.27 754.92 249.05 L 751.27 249.05 Q 751.42 250.73 753.11 250.73 Q 753.92 250.73 754.92 250.37 L 754.92 251.48 M 754.92 251.48 M 751.23 248.15 L 753.36 248.15 Q 753.36 246.65 752.39 246.65 Q 751.39 246.65 751.23 248.15 M 751.23 248.15"/></g><line x1="889.75" y1="240" x2="889.75" y2="235" style="stroke-width: 0.5;stroke: rgb(192,208,224);stroke-opacity: 1;" transform="matrix(1,0,0,1,0,0)" clip-path="url(#clip-0)"/><g style="fill: rgb(102,102,102);fill-opacity: 1; stroke: none" transform="matrix(0,-1,1,0,777.375,1271.375)" clip-path="url(#clip-4)"><path d="M 980.5 251.68 L 983.59 243.73 L 985.25 243.73 L 988.34 251.68 L 986.64 251.68 L 985.81 249.55 L 982.53 249.55 L 981.7 251.68 L 980.5 251.68 M 980.5 251.68 M 982.94 248.49 L 985.41 248.49 L 984.17 245.34 L 982.94 248.49 M 982.94 248.49 M 989.38 251.68 L 989.38 245.79 L 990.89 245.79 L 990.89 246.9 Q 991.59 245.65 992.88 245.65 Q 993.55 245.65 993.98 245.98 Q 994.41 246.3 994.5 246.9 Q 995.33 245.65 996.5 245.65 Q 998.12 245.65 998.12 247.43 L 998.12 251.68 L 996.59 251.68 L 996.59 247.95 Q 996.59 246.9 995.89 246.9 Q 995.19 246.9 994.5 247.93 L 994.5 251.68 L 992.98 251.68 L 992.98 247.95 Q 992.98 246.9 992.28 246.9 Q 991.58 246.9 990.89 247.93 L 990.89 251.68 L 989.38 251.68 M 989.38 251.68 M 1000.38 251.68 L 1000.38 243.2 L 1001.95 243.2 L 1001.95 246.9 Q 1002.58 245.65 1003.89 245.65 Q 1004.95 245.65 1005.56 246.43 Q 1006.17 247.21 1006.17 248.57 Q 1006.17 250.04 1005.48 250.93 Q 1004.8 251.82 1003.64 251.82 Q 1002.66 251.82 1001.95 251.09 L 1001.66 251.68 L 1000.38 251.68 M 1000.38 251.68 M 1001.95 250.13 Q 1002.53 250.79 1003.19 250.79 Q 1003.78 250.79 1004.13 250.22 Q 1004.48 249.65 1004.48 248.71 Q 1004.48 246.9 1003.31 246.9 Q 1002.61 246.9 1001.95 247.8 L 1001.95 250.13 M 1001.95 250.13 M 1007.38 251.68 L 1007.38 245.79 L 1008.95 245.79 L 1008.95 251.68 L 1007.38 251.68 M 1007.38 251.68 M 1007.38 244.79 L 1007.38 243.46 L 1008.95 243.46 L 1008.95 244.79 L 1007.38 244.79 M 1007.38 244.79 M 1011.41 253.51 L 1011.55 252.35 Q 1012.53 252.8 1013.42 252.8 Q 1014.3 252.8 1014.69 252.43 Q 1015.08 252.05 1015.08 251.21 L 1015.08 250.41 Q 1014.5 251.68 1013.16 251.68 Q 1012.11 251.68 1011.49 250.89 Q 1010.88 250.1 1010.88 248.76 Q 1010.88 247.35 1011.57 246.5 Q 1012.27 245.65 1013.41 245.65 Q 1014.31 245.65 1015.08 246.38 L 1015.25 245.79 L 1016.67 245.79 L 1016.67 250.29 Q 1016.67 251.63 1016.51 252.23 Q 1016.34 252.82 1015.88 253.24 Q 1015.08 253.93 1013.64 253.93 Q 1012.61 253.93 1011.41 253.51 M 1011.41 253.51 M 1015.08 249.48 L 1015.08 247.3 Q 1014.5 246.66 1013.88 246.66 Q 1013.28 246.66 1012.92 247.21 Q 1012.56 247.76 1012.56 248.68 Q 1012.56 250.41 1013.67 250.41 Q 1014.45 250.41 1015.08 249.48 M 1015.08 249.48 M 1022.02 251.68 L 1022.02 250.57 Q 1021.25 251.82 1020 251.82 Q 1019.22 251.82 1018.76 251.32 Q 1018.3 250.82 1018.3 249.95 L 1018.3 245.79 L 1019.89 245.79 L 1019.89 249.55 Q 1019.89 250.55 1020.56 250.55 Q 1021.31 250.55 1022.02 249.49 L 1022.02 245.79 L 1023.61 245.79 L 1023.61 251.68 L 1022.02 251.68 M 1022.02 251.68"/></g><line x1="1159" y1="240" x2="1159" y2="235" style="stroke-width: 0.5;stroke: rgb(192,208,224);stroke-opacity: 1;" transform="matrix(1,0,0,1,0,0)" clip-path="url(#clip-0)"/><g transform="matrix(1,0,0,1,0,0)"><text x="598" y="307.84" style="fill: rgb(77,117,158); font-family: Lucida Sans; font-size: 15px; font-weight: bold; " text-rendering="auto" clip-path="url(#clip-0)">Partie</text></g><g transform="matrix(1,0,0,1,0,0)"><text x="37" y="229.45" style="fill: rgb(102,102,102); font-family: Lucida Sans; font-size: 11px; font-weight: bold; " text-rendering="auto" clip-path="url(#clip-0)">-1 000</text></g><g transform="matrix(1,0,0,1,0,0)"><text x="48" y="209" style="fill: rgb(102,102,102); font-family: Lucida Sans; font-size: 11px; font-weight: bold; " text-rendering="auto" clip-path="url(#clip-0)">-800</text></g><g transform="matrix(1,0,0,1,0,0)"><text x="48" y="188.54" style="fill: rgb(102,102,102); font-family: Lucida Sans; font-size: 11px; font-weight: bold; " text-rendering="auto" clip-path="url(#clip-0)">-600</text></g><g transform="matrix(1,0,0,1,0,0)"><text x="48" y="168.09" style="fill: rgb(102,102,102); font-family: Lucida Sans; font-size: 11px; font-weight: bold; " text-rendering="auto" clip-path="url(#clip-0)">-400</text></g><g transform="matrix(1,0,0,1,0,0)"><text x="48" y="147.63" style="fill: rgb(102,102,102); font-family: Lucida Sans; font-size: 11px; font-weight: bold; " text-rendering="auto" clip-path="url(#clip-0)">-200</text></g><g transform="matrix(1,0,0,1,0,0)"><text x="69" y="127.18" style="fill: rgb(102,102,102); font-family: Lucida Sans; font-size: 11px; font-weight: bold; " text-rendering="auto" clip-path="url(#clip-0)">0</text></g><g transform="matrix(1,0,0,1,0,0)"><text x="55" y="106.73" style="fill: rgb(102,102,102); font-family: Lucida Sans; font-size: 11px; font-weight: bold; " text-rendering="auto" clip-path="url(#clip-0)">200</text></g><g transform="matrix(1,0,0,1,0,0)"><text x="55" y="86.27" style="fill: rgb(102,102,102); font-family: Lucida Sans; font-size: 11px; font-weight: bold; " text-rendering="auto" clip-path="url(#clip-0)">400</text></g><g transform="matrix(1,0,0,1,0,0)"><text x="55" y="65.82" style="fill: rgb(102,102,102); font-family: Lucida Sans; font-size: 11px; font-weight: bold; " text-rendering="auto" clip-path="url(#clip-0)">600</text></g><g transform="matrix(1,0,0,1,0,0)"><text x="55" y="45.36" style="fill: rgb(102,102,102); font-family: Lucida Sans; font-size: 11px; font-weight: bold; " text-rendering="auto" clip-path="url(#clip-0)">800</text></g><g transform="matrix(1,0,0,1,0,0)"><text x="44" y="24.91" style="fill: rgb(102,102,102); font-family: Lucida Sans; font-size: 11px; font-weight: bold; " text-rendering="auto" clip-path="url(#clip-0)">1 000</text></g><g style="fill: rgb(77,117,158);fill-opacity: 1; stroke: none" transform="matrix(0,-1,1,0,-100,145)" clip-path="url(#clip-5)"><path d="M 0.36 128.84 L 0.36 117.99 L 2.61 117.99 L 2.61 128.84 L 0.36 128.84 M 0.36 128.84 M 5.36 128.84 L 5.36 120.79 L 7.52 120.79 L 7.52 122.3 Q 8.58 120.62 10.27 120.62 Q 11.34 120.62 11.96 121.3 Q 12.58 121.98 12.58 123.15 L 12.58 128.84 L 10.42 128.84 L 10.42 123.68 Q 10.42 122.32 9.52 122.32 Q 8.47 122.32 7.52 123.77 L 7.52 128.84 L 5.36 128.84 M 5.36 128.84 M 20.42 128.84 L 20.42 127.32 Q 19.58 129.02 17.78 129.02 Q 16.34 129.02 15.52 127.96 Q 14.69 126.9 14.69 125.04 Q 14.69 123.01 15.62 121.81 Q 16.55 120.62 18.12 120.62 Q 19.39 120.62 20.42 121.6 L 20.42 117.27 L 22.59 117.27 L 22.59 128.84 L 20.42 128.84 M 20.42 128.84 M 20.42 122.9 Q 19.62 122.02 18.73 122.02 Q 17.94 122.02 17.46 122.79 Q 16.98 123.55 16.98 124.85 Q 16.98 127.32 18.58 127.32 Q 19.53 127.32 20.42 126.09 L 20.42 122.9 M 20.42 122.9 M 25.36 128.84 L 25.36 120.79 L 27.52 120.79 L 27.52 128.84 L 25.36 128.84 M 25.36 128.84 M 25.36 119.45 L 25.36 117.63 L 27.52 117.63 L 27.52 119.45 L 25.36 119.45 M 25.36 119.45 M 36.28 128.66 Q 34.94 129.02 33.8 129.02 Q 31.86 129.02 30.74 127.89 Q 29.62 126.76 29.62 124.8 Q 29.62 122.84 30.78 121.73 Q 31.94 120.62 33.95 120.62 Q 34.94 120.62 36.22 120.93 L 36.22 122.49 Q 34.89 122.05 34.09 122.05 Q 33.11 122.05 32.52 122.8 Q 31.94 123.55 31.94 124.79 Q 31.94 126.05 32.58 126.82 Q 33.22 127.59 34.28 127.59 Q 35.25 127.59 36.28 127.16 L 36.28 128.66 M 36.28 128.66 M 44.91 128.57 Q 43.36 129.02 41.97 129.02 Q 39.95 129.02 38.79 127.88 Q 37.62 126.73 37.62 124.76 Q 37.62 122.88 38.7 121.75 Q 39.77 120.62 41.52 120.62 Q 43.28 120.62 44.09 121.73 Q 44.91 122.84 44.91 125.24 L 39.92 125.24 Q 40.14 127.54 42.44 127.54 Q 43.53 127.54 44.91 127.04 L 44.91 128.57 M 44.91 128.57 M 39.89 124.02 L 42.77 124.02 Q 42.77 121.96 41.45 121.96 Q 40.09 121.96 39.89 124.02 M 39.89 124.02"/></g><line x1="82" y1="224.77" x2="1159" y2="224.77" style="stroke-width: 1.0;stroke: rgb(192,192,192);stroke-opacity: 1;" transform="matrix(1,0,0,1,0,0)" clip-path="url(#clip-6)"/><line x1="82" y1="204.32" x2="1159" y2="204.32" style="stroke-width: 1.0;stroke: rgb(192,192,192);stroke-opacity: 1;" transform="matrix(1,0,0,1,0,0)" clip-path="url(#clip-6)"/><line x1="82" y1="183.86" x2="1159" y2="183.86" style="stroke-width: 1.0;stroke: rgb(192,192,192);stroke-opacity: 1;" transform="matrix(1,0,0,1,0,0)" clip-path="url(#clip-6)"/><line x1="82" y1="163.41" x2="1159" y2="163.41" style="stroke-width: 1.0;stroke: rgb(192,192,192);stroke-opacity: 1;" transform="matrix(1,0,0,1,0,0)" clip-path="url(#clip-6)"/><line x1="82" y1="142.95" x2="1159" y2="142.95" style="stroke-width: 1.0;stroke: rgb(192,192,192);stroke-opacity: 1;" transform="matrix(1,0,0,1,0,0)" clip-path="url(#clip-6)"/><line x1="82" y1="102.05" x2="1159" y2="102.05" style="stroke-width: 1.0;stroke: rgb(192,192,192);stroke-opacity: 1;" transform="matrix(1,0,0,1,0,0)" clip-path="url(#clip-6)"/><line x1="82" y1="81.59" x2="1159" y2="81.59" style="stroke-width: 1.0;stroke: rgb(192,192,192);stroke-opacity: 1;" transform="matrix(1,0,0,1,0,0)" clip-path="url(#clip-6)"/><line x1="82" y1="61.14" x2="1159" y2="61.14" style="stroke-width: 1.0;stroke: rgb(192,192,192);stroke-opacity: 1;" transform="matrix(1,0,0,1,0,0)" clip-path="url(#clip-6)"/><line x1="82" y1="40.68" x2="1159" y2="40.68" style="stroke-width: 1.0;stroke: rgb(192,192,192);stroke-opacity: 1;" transform="matrix(1,0,0,1,0,0)" clip-path="url(#clip-6)"/><line x1="82" y1="20.23" x2="1159" y2="20.23" style="stroke-width: 1.0;stroke: rgb(192,192,192);stroke-opacity: 1;" transform="matrix(1,0,0,1,0,0)" clip-path="url(#clip-6)"/><line x1="82" y1="122.5" x2="1159" y2="122.5" style="stroke-width: 0.5;stroke: rgb(134,145,156);stroke-opacity: 1;" transform="matrix(1,0,0,1,0,0)" clip-path="url(#clip-6)"/><rect x="292.01" y="122.12" width="18.85" height="0.38" style="fill: rgb(255,0,255);fill-opacity: 1" transform="matrix(1,0,0,1,0,0)" clip-path="url(#clip-6)"/><rect x="561.26" y="100.64" width="18.85" height="21.86" style="fill: rgb(255,0,255);fill-opacity: 1" transform="matrix(1,0,0,1,0,0)" clip-path="url(#clip-6)"/><rect x="830.52" y="122.5" width="18.85" height="102.27" style="fill: rgb(255,0,255);fill-opacity: 1" transform="matrix(1,0,0,1,0,0)" clip-path="url(#clip-6)"/><rect x="1099.77" y="122.12" width="18.85" height="0.38" style="fill: rgb(255,0,255);fill-opacity: 1" transform="matrix(1,0,0,1,0,0)" clip-path="url(#clip-6)"/><rect x="273.17" y="122.5" width="18.85" height="12.72" style="fill: rgb(255,185,15);fill-opacity: 1" transform="matrix(1,0,0,1,0,0)" clip-path="url(#clip-6)"/><rect x="542.42" y="100.52" width="18.85" height="21.98" style="fill: rgb(255,185,15);fill-opacity: 1" transform="matrix(1,0,0,1,0,0)" clip-path="url(#clip-6)"/><rect x="811.67" y="122.5" width="18.85" height="1.91" style="fill: rgb(255,185,15);fill-opacity: 1" transform="matrix(1,0,0,1,0,0)" clip-path="url(#clip-6)"/><rect x="1080.92" y="122.4" width="18.85" height="0.1" style="fill: rgb(255,185,15);fill-opacity: 1" transform="matrix(1,0,0,1,0,0)" clip-path="url(#clip-6)"/><rect x="254.32" y="122.5" width="18.85" height="11.43" style="fill: rgb(173,255,47);fill-opacity: 1" transform="matrix(1,0,0,1,0,0)" clip-path="url(#clip-6)"/><rect x="523.57" y="97.18" width="18.85" height="25.32" style="fill: rgb(173,255,47);fill-opacity: 1" transform="matrix(1,0,0,1,0,0)" clip-path="url(#clip-6)"/><rect x="792.82" y="122.5" width="18.85" height="6.62" style="fill: rgb(173,255,47);fill-opacity: 1" transform="matrix(1,0,0,1,0,0)" clip-path="url(#clip-6)"/><rect x="1062.07" y="121.71" width="18.85" height="0.79" style="fill: rgb(173,255,47);fill-opacity: 1" transform="matrix(1,0,0,1,0,0)" clip-path="url(#clip-6)"/><rect x="235.47" y="122.5" width="18.85" height="11.55" style="fill: rgb(0,191,255);fill-opacity: 1" transform="matrix(1,0,0,1,0,0)" clip-path="url(#clip-6)"/><rect x="504.72" y="97.08" width="18.85" height="25.42" style="fill: rgb(0,191,255);fill-opacity: 1" transform="matrix(1,0,0,1,0,0)" clip-path="url(#clip-6)"/><rect x="773.97" y="122.5" width="18.85" height="6.63" style="fill: rgb(0,191,255);fill-opacity: 1" transform="matrix(1,0,0,1,0,0)" clip-path="url(#clip-6)"/><rect x="1043.22" y="121.9" width="18.85" height="0.6" style="fill: rgb(0,191,255);fill-opacity: 1" transform="matrix(1,0,0,1,0,0)" clip-path="url(#clip-6)"/><rect x="216.62" y="122.5" width="18.85" height="12.19" style="fill: rgb(178,34,34);fill-opacity: 1" transform="matrix(1,0,0,1,0,0)" clip-path="url(#clip-6)"/><rect x="485.88" y="95.68" width="18.85" height="26.82" style="fill: rgb(178,34,34);fill-opacity: 1" transform="matrix(1,0,0,1,0,0)" clip-path="url(#clip-6)"/><rect x="755.12" y="122.5" width="18.85" height="6.4" style="fill: rgb(178,34,34);fill-opacity: 1" transform="matrix(1,0,0,1,0,0)" clip-path="url(#clip-6)"/><rect x="1024.38" y="122" width="18.85" height="0.5" style="fill: rgb(178,34,34);fill-opacity: 1" transform="matrix(1,0,0,1,0,0)" clip-path="url(#clip-6)"/><rect x="197.78" y="122.5" width="18.85" height="16.88" style="fill: rgb(255,20,147);fill-opacity: 1" transform="matrix(1,0,0,1,0,0)" clip-path="url(#clip-6)"/><rect x="467.03" y="95.49" width="18.85" height="27.01" style="fill: rgb(255,20,147);fill-opacity: 1" transform="matrix(1,0,0,1,0,0)" clip-path="url(#clip-6)"/><rect x="736.28" y="122.5" width="18.85" height="3.56" style="fill: rgb(255,20,147);fill-opacity: 1" transform="matrix(1,0,0,1,0,0)" clip-path="url(#clip-6)"/><rect x="1005.53" y="121.71" width="18.85" height="0.79" style="fill: rgb(255,20,147);fill-opacity: 1" transform="matrix(1,0,0,1,0,0)" clip-path="url(#clip-6)"/><rect x="178.93" y="122.5" width="18.85" height="20.61" style="fill: rgb(255,215,0);fill-opacity: 1" transform="matrix(1,0,0,1,0,0)" clip-path="url(#clip-6)"/><rect x="448.18" y="20.23" width="18.85" height="102.27" style="fill: rgb(255,215,0);fill-opacity: 1" transform="matrix(1,0,0,1,0,0)" clip-path="url(#clip-6)"/><rect x="717.43" y="122.5" width="18.85" height="16.52" style="fill: rgb(255,215,0);fill-opacity: 1" transform="matrix(1,0,0,1,0,0)" clip-path="url(#clip-6)"/><rect x="986.68" y="120.59" width="18.85" height="1.91" style="fill: rgb(255,215,0);fill-opacity: 1" transform="matrix(1,0,0,1,0,0)" clip-path="url(#clip-6)"/><rect x="160.08" y="122.5" width="18.85" height="25.32" style="fill: rgb(0,139,0);fill-opacity: 1" transform="matrix(1,0,0,1,0,0)" clip-path="url(#clip-6)"/><rect x="429.33" y="20.23" width="18.85" height="102.27" style="fill: rgb(0,139,0);fill-opacity: 1" transform="matrix(1,0,0,1,0,0)" clip-path="url(#clip-6)"/><rect x="698.58" y="122.5" width="18.85" height="9.3" style="fill: rgb(0,139,0);fill-opacity: 1" transform="matrix(1,0,0,1,0,0)" clip-path="url(#clip-6)"/><rect x="967.83" y="121.68" width="18.85" height="0.82" style="fill: rgb(0,139,0);fill-opacity: 1" transform="matrix(1,0,0,1,0,0)" clip-path="url(#clip-6)"/><rect x="141.23" y="122.5" width="18.85" height="19.14" style="fill: rgb(0,0,255);fill-opacity: 1" transform="matrix(1,0,0,1,0,0)" clip-path="url(#clip-6)"/><rect x="410.49" y="20.23" width="18.85" height="102.27" style="fill: rgb(0,0,255);fill-opacity: 1" transform="matrix(1,0,0,1,0,0)" clip-path="url(#clip-6)"/><rect x="679.74" y="122.5" width="18.85" height="5.92" style="fill: rgb(0,0,255);fill-opacity: 1" transform="matrix(1,0,0,1,0,0)" clip-path="url(#clip-6)"/><rect x="948.99" y="122.34" width="18.85" height="0.16" style="fill: rgb(0,0,255);fill-opacity: 1" transform="matrix(1,0,0,1,0,0)" clip-path="url(#clip-6)"/><rect x="122.39" y="122.5" width="18.85" height="16.37" style="fill: rgb(255,0,0);fill-opacity: 1" transform="matrix(1,0,0,1,0,0)" clip-path="url(#clip-6)"/><rect x="391.64" y="20.23" width="18.85" height="102.27" style="fill: rgb(255,0,0);fill-opacity: 1" transform="matrix(1,0,0,1,0,0)" clip-path="url(#clip-6)"/><rect x="660.89" y="122.5" width="18.85" height="3.63" style="fill: rgb(255,0,0);fill-opacity: 1" transform="matrix(1,0,0,1,0,0)" clip-path="url(#clip-6)"/><rect x="930.14" y="122.46" width="18.85" height="0.04" style="fill: rgb(255,0,0);fill-opacity: 1" transform="matrix(1,0,0,1,0,0)" clip-path="url(#clip-6)"/><line x1="82" y1="122.3" x2="1159" y2="122.3" style="stroke-width: 0.5;stroke: rgb(255,0,0);stroke-opacity: 1;" transform="matrix(1,0,0,1,0,0)" clip-path="url(#clip-6)"/><rect x="1091" y="108.82" width="65" height="12" style="fill: rgb(100,100,100);fill-opacity: 0.392157" transform="matrix(1,0,0,1,0,0)" clip-path="url(#clip-6)"/><g transform="matrix(1,0,0,1,0,0)"><text x="1091" y="117.17" style="fill: rgb(0,0,0); font-family: sans-serif; font-size: 9px; " text-rendering="auto" clip-path="url(#clip-6)">Banalité : 2.0</text></g><line x1="82" y1="122.7" x2="1159" y2="122.7" style="stroke-width: 0.5;stroke: rgb(255,0,0);stroke-opacity: 1;" transform="matrix(1,0,0,1,0,0)" clip-path="url(#clip-6)"/><rect x="1088" y="109.23" width="68" height="12" style="fill: rgb(100,100,100);fill-opacity: 0.392157" transform="matrix(1,0,0,1,0,0)" clip-path="url(#clip-6)"/><g transform="matrix(1,0,0,1,0,0)"><text x="1088" y="117.58" style="fill: rgb(0,0,0); font-family: sans-serif; font-size: 9px; " text-rendering="auto" clip-path="url(#clip-6)">Banalité : -2.0</text></g></svg>
