<!DOCTYPE svg PUBLIC "-//W3C//DTD SVG 1.1//EN" "http://www.w3.org/Graphics/SVG/1.1/DTD/svg11.dtd">
<svg style="stroke-linecap:square;" xmlns="http://www.w3.org/2000/svg" xmlns:xlink="http://www.w3.org/1999/xlink" width="1269" height="324">
<defs><clipPath id="clip-0"><path d="M 0 0 L 1269 0 L 1269 324 L 0 324 L 0 0 M 0 0"/></clipPath>
<clipPath id="clip-1"><path d="M 458 36 L 458 1305 L 134 1305 L 134 36 L 458 36 M 458 36"/></clipPath>
<clipPath id="clip-2"><path d="M 730 -236 L 730 1033 L 406 1033 L 406 -236 L 730 -236 M 730 -236"/></clipPath>
<clipPath id="clip-3"><path d="M 1002 -508 L 1002 761 L 678 761 L 678 -508 L 1002 -508 M 1002 -508"/></clipPath>
<clipPath id="clip-4"><path d="M 1274 -780 L 1274 489 L 950 489 L 950 -780 L 1274 -780 M 1274 -780"/></clipPath>
<clipPath id="clip-5"><path d="M 145 100 L 145 1369 L -179 1369 L -179 100 L 145 100 M 145 100"/></clipPath>
<clipPath id="clip-6"><path d="M 75 10 L 75 235 L 1163 235 L 1163 10 M 75 10"/></clipPath>
</defs>
<rect x="0" y="0" width="1269" height="324" style="fill: rgb(255,255,255);fill-opacity: 1" transform="matrix(1,0,0,1,0,0)" clip-path="url(#clip-0)"/><rect x="1183" y="70" width="76" height="184" style="fill: rgb(255,255,255);fill-opacity: 1" transform="matrix(1,0,0,1,0,0)" clip-path="url(#clip-0)"/><g style="stroke-width: 1.0;stroke: rgb(192,192,192);stroke-opacity: 1; fill: none" transform="matrix(1,0,0,1,0,0)" clip-path="url(#clip-0)"><path d="M 1183 75 L 1183 249 C 1183 251.76 1185.24 254 1188 254 L 1254 254 C 1256.76 254 1259 251.76 1259 249 L 1259 75 C 1259 72.24 1256.76 70 1254 70 L 1188 70 C 1185.24 70 1183 72.24 1183 75 M 1183 75"/></g><g style="fill: rgb(255,0,0);fill-opacity: 1; stroke: none" transform="matrix(1,0,0,1,0,0)" clip-path="url(#clip-0)"><path d="M 1187 76 L 1193 76 L 1193 86 L 1187 86 L 1187 76 M 1187 76"/></g><g transform="matrix(1,0,0,1,0,0)"><text x="1197" y="84.48" style="fill: rgb(39,75,109); font-family: Lucida Sans; font-size: 11px; font-weight: bold; " text-rendering="auto" clip-path="url(#clip-0)">motivé</text></g><g style="fill: rgb(0,0,255);fill-opacity: 1; stroke: none" transform="matrix(1,0,0,1,0,0)" clip-path="url(#clip-0)"><path d="M 1187 94 L 1193 94 L 1193 104 L 1187 104 L 1187 94 M 1187 94"/></g><g transform="matrix(1,0,0,1,0,0)"><text x="1197" y="102.48" style="fill: rgb(39,75,109); font-family: Lucida Sans; font-size: 11px; font-weight: bold; " text-rendering="auto" clip-path="url(#clip-0)">prêt</text></g><g style="fill: rgb(0,139,0);fill-opacity: 1; stroke: none" transform="matrix(1,0,0,1,0,0)" clip-path="url(#clip-0)"><path d="M 1187 112 L 1193 112 L 1193 122 L 1187 122 L 1187 112 M 1187 112"/></g><g transform="matrix(1,0,0,1,0,0)"><text x="1197" y="120.48" style="fill: rgb(39,75,109); font-family: Lucida Sans; font-size: 11px; font-weight: bold; " text-rendering="auto" clip-path="url(#clip-0)">passionné</text></g><g style="fill: rgb(255,215,0);fill-opacity: 1; stroke: none" transform="matrix(1,0,0,1,0,0)" clip-path="url(#clip-0)"><path d="M 1187 130 L 1193 130 L 1193 140 L 1187 140 L 1187 130 M 1187 130"/></g><g transform="matrix(1,0,0,1,0,0)"><text x="1197" y="138.48" style="fill: rgb(39,75,109); font-family: Lucida Sans; font-size: 11px; font-weight: bold; " text-rendering="auto" clip-path="url(#clip-0)">intéressé</text></g><g style="fill: rgb(255,20,147);fill-opacity: 1; stroke: none" transform="matrix(1,0,0,1,0,0)" clip-path="url(#clip-0)"><path d="M 1187 148 L 1193 148 L 1193 158 L 1187 158 L 1187 148 M 1187 148"/></g><g transform="matrix(1,0,0,1,0,0)"><text x="1197" y="156.48" style="fill: rgb(39,75,109); font-family: Lucida Sans; font-size: 11px; font-weight: bold; " text-rendering="auto" clip-path="url(#clip-0)">discuter</text></g><g style="fill: rgb(178,34,34);fill-opacity: 1; stroke: none" transform="matrix(1,0,0,1,0,0)" clip-path="url(#clip-0)"><path d="M 1187 166 L 1193 166 L 1193 176 L 1187 176 L 1187 166 M 1187 166"/></g><g transform="matrix(1,0,0,1,0,0)"><text x="1197" y="174.48" style="fill: rgb(39,75,109); font-family: Lucida Sans; font-size: 11px; font-weight: bold; " text-rendering="auto" clip-path="url(#clip-0)">organisé</text></g><g style="fill: rgb(0,191,255);fill-opacity: 1; stroke: none" transform="matrix(1,0,0,1,0,0)" clip-path="url(#clip-0)"><path d="M 1187 184 L 1193 184 L 1193 194 L 1187 194 L 1187 184 M 1187 184"/></g><g transform="matrix(1,0,0,1,0,0)"><text x="1197" y="192.48" style="fill: rgb(39,75,109); font-family: Lucida Sans; font-size: 11px; font-weight: bold; " text-rendering="auto" clip-path="url(#clip-0)">sérieux</text></g><g style="fill: rgb(173,255,47);fill-opacity: 1; stroke: none" transform="matrix(1,0,0,1,0,0)" clip-path="url(#clip-0)"><path d="M 1187 202 L 1193 202 L 1193 212 L 1187 212 L 1187 202 M 1187 202"/></g><g transform="matrix(1,0,0,1,0,0)"><text x="1197" y="210.48" style="fill: rgb(39,75,109); font-family: Lucida Sans; font-size: 11px; font-weight: bold; " text-rendering="auto" clip-path="url(#clip-0)">technicien</text></g><g style="fill: rgb(255,185,15);fill-opacity: 1; stroke: none" transform="matrix(1,0,0,1,0,0)" clip-path="url(#clip-0)"><path d="M 1187 220 L 1193 220 L 1193 230 L 1187 230 L 1187 220 M 1187 220"/></g><g transform="matrix(1,0,0,1,0,0)"><text x="1197" y="228.48" style="fill: rgb(39,75,109); font-family: Lucida Sans; font-size: 11px; font-weight: bold; " text-rendering="auto" clip-path="url(#clip-0)">compétent</text></g><g style="fill: rgb(255,0,255);fill-opacity: 1; stroke: none" transform="matrix(1,0,0,1,0,0)" clip-path="url(#clip-0)"><path d="M 1187 238 L 1193 238 L 1193 248 L 1187 248 L 1187 238 M 1187 238"/></g><g transform="matrix(1,0,0,1,0,0)"><text x="1197" y="246.48" style="fill: rgb(39,75,109); font-family: Lucida Sans; font-size: 11px; font-weight: bold; " text-rendering="auto" clip-path="url(#clip-0)">étudiant</text></g><rect x="75" y="10" width="1088" height="225" style="fill: rgb(255,255,255);fill-opacity: 1" transform="matrix(1,0,0,1,0,0)" clip-path="url(#clip-0)"/><line x1="75" y1="235" x2="1163" y2="235" style="stroke-width: 0.5;stroke: rgb(192,208,224);stroke-opacity: 1;" transform="matrix(1,0,0,1,0,0)" clip-path="url(#clip-0)"/><g style="fill: rgb(102,102,102);fill-opacity: 1; stroke: none" transform="matrix(0,-1,1,0,-36,458)" clip-path="url(#clip-1)"><path d="M 184 251.68 L 184 243.73 L 186.19 243.73 L 188.09 249.32 L 190.06 243.73 L 191.98 243.73 L 191.98 251.68 L 190.47 251.68 L 190.47 245.68 L 188.53 251.15 L 187.19 251.15 L 185.3 245.6 L 185.3 251.68 L 184 251.68 M 184 251.68 M 196.89 251.04 Q 196.09 251.82 195.19 251.82 Q 194.41 251.82 193.92 251.34 Q 193.44 250.87 193.44 250.12 Q 193.44 249.13 194.22 248.61 Q 195 248.09 196.45 248.09 L 196.89 248.09 L 196.89 247.54 Q 196.89 246.63 195.84 246.63 Q 194.91 246.63 193.95 247.15 L 193.95 246.05 Q 195.03 245.65 196.09 245.65 Q 198.41 245.65 198.41 247.49 L 198.41 250.1 Q 198.41 250.79 198.86 250.79 Q 198.94 250.79 199.06 250.77 L 199.11 251.66 Q 198.59 251.82 198.2 251.82 Q 197.23 251.82 196.95 251.04 L 196.89 251.04 M 196.89 251.04 M 196.89 250.2 L 196.89 248.99 L 196.5 248.99 Q 194.97 248.99 194.97 249.96 Q 194.97 250.29 195.19 250.51 Q 195.41 250.73 195.73 250.73 Q 196.3 250.73 196.89 250.2 M 196.89 250.2 M 199.84 251.49 L 199.84 250.32 Q 201.02 250.82 201.86 250.82 Q 202.83 250.82 202.83 250.15 Q 202.83 249.73 202.03 249.4 L 201.5 249.18 Q 200.61 248.84 200.23 248.43 Q 199.86 248.02 199.86 247.41 Q 199.86 246.57 200.5 246.11 Q 201.14 245.65 202.3 245.65 Q 203.02 245.65 204 245.85 L 204 246.98 Q 203.05 246.65 202.42 246.65 Q 201.44 246.65 201.44 247.26 Q 201.44 247.66 202.16 247.93 L 202.62 248.12 Q 203.66 248.51 204.06 248.91 Q 204.47 249.3 204.47 249.95 Q 204.47 250.77 203.78 251.3 Q 203.09 251.82 201.98 251.82 Q 200.92 251.82 199.84 251.49 M 199.84 251.49 M 210.34 251.55 Q 209.36 251.82 208.52 251.82 Q 207.09 251.82 206.28 250.98 Q 205.47 250.15 205.47 248.73 Q 205.47 247.27 206.31 246.46 Q 207.16 245.65 208.64 245.65 Q 209.36 245.65 210.3 245.88 L 210.3 247.02 Q 209.31 246.71 208.73 246.71 Q 208.02 246.71 207.59 247.26 Q 207.16 247.8 207.16 248.71 Q 207.16 249.65 207.62 250.2 Q 208.09 250.76 208.88 250.76 Q 209.59 250.76 210.34 250.45 L 210.34 251.55 M 210.34 251.55"/></g><line x1="347" y1="240" x2="347" y2="235" style="stroke-width: 0.5;stroke: rgb(192,208,224);stroke-opacity: 1;" transform="matrix(1,0,0,1,0,0)" clip-path="url(#clip-0)"/><line x1="75" y1="240" x2="75" y2="235" style="stroke-width: 0.5;stroke: rgb(192,208,224);stroke-opacity: 1;" transform="matrix(1,0,0,1,0,0)" clip-path="url(#clip-0)"/><g style="fill: rgb(102,102,102);fill-opacity: 1; stroke: none" transform="matrix(0,-1,1,0,236,730)" clip-path="url(#clip-2)"><path d="M 461 251.68 L 461 243.73 L 466 243.73 L 466 244.82 L 462.64 244.82 L 462.64 247.24 L 465.39 247.24 L 465.39 248.34 L 462.64 248.34 L 462.64 251.68 L 461 251.68 M 461 251.68 M 471.8 251.48 Q 470.66 251.82 469.64 251.82 Q 468.17 251.82 467.32 250.98 Q 466.47 250.13 466.47 248.7 Q 466.47 247.32 467.25 246.48 Q 468.03 245.65 469.31 245.65 Q 470.61 245.65 471.2 246.46 Q 471.8 247.27 471.8 249.05 L 468.14 249.05 Q 468.3 250.73 469.98 250.73 Q 470.8 250.73 471.8 250.37 L 471.8 251.48 M 471.8 251.48 M 468.11 248.15 L 470.23 248.15 Q 470.23 246.65 469.27 246.65 Q 468.27 246.65 468.11 248.15 M 468.11 248.15 M 473 251.68 L 473 245.79 L 474.52 245.79 L 474.52 246.9 Q 475.22 245.65 476.5 245.65 Q 477.17 245.65 477.6 245.98 Q 478.03 246.3 478.12 246.9 Q 478.95 245.65 480.12 245.65 Q 481.75 245.65 481.75 247.43 L 481.75 251.68 L 480.22 251.68 L 480.22 247.95 Q 480.22 246.9 479.52 246.9 Q 478.81 246.9 478.12 247.93 L 478.12 251.68 L 476.61 251.68 L 476.61 247.95 Q 476.61 246.9 475.91 246.9 Q 475.2 246.9 474.52 247.93 L 474.52 251.68 L 473 251.68 M 473 251.68"/></g><line x1="619" y1="240" x2="619" y2="235" style="stroke-width: 0.5;stroke: rgb(192,208,224);stroke-opacity: 1;" transform="matrix(1,0,0,1,0,0)" clip-path="url(#clip-0)"/><g style="fill: rgb(102,102,102);fill-opacity: 1; stroke: none" transform="matrix(0,-1,1,0,508,1002)" clip-path="url(#clip-3)"><path d="M 720 251.68 L 720 243.73 L 721.45 243.73 L 725.14 249.16 L 725.14 243.73 L 726.45 243.73 L 726.45 251.68 L 724.98 251.68 L 721.33 246.24 L 721.33 251.68 L 720 251.68 M 720 251.68 M 732.8 251.48 Q 731.66 251.82 730.64 251.82 Q 729.17 251.82 728.32 250.98 Q 727.47 250.13 727.47 248.7 Q 727.47 247.32 728.25 246.48 Q 729.03 245.65 730.31 245.65 Q 731.61 245.65 732.2 246.46 Q 732.8 247.27 732.8 249.05 L 729.14 249.05 Q 729.3 250.73 730.98 250.73 Q 731.8 250.73 732.8 250.37 L 732.8 251.48 M 732.8 251.48 M 729.11 248.15 L 731.23 248.15 Q 731.23 246.65 730.27 246.65 Q 729.27 246.65 729.11 248.15 M 729.11 248.15 M 737.64 251.68 L 737.64 250.57 Q 736.88 251.82 735.62 251.82 Q 734.84 251.82 734.38 251.32 Q 733.92 250.82 733.92 249.95 L 733.92 245.79 L 735.52 245.79 L 735.52 249.55 Q 735.52 250.55 736.19 250.55 Q 736.94 250.55 737.64 249.49 L 737.64 245.79 L 739.23 245.79 L 739.23 251.68 L 737.64 251.68 M 737.64 251.68 M 744.03 251.65 Q 743.47 251.82 743.14 251.82 Q 741.06 251.82 741.06 249.88 L 741.06 246.77 L 740.41 246.77 L 740.41 245.79 L 741.06 245.79 L 741.06 244.79 L 742.66 244.6 L 742.66 245.79 L 743.92 245.79 L 743.92 246.77 L 742.66 246.77 L 742.66 249.66 Q 742.66 250.76 743.55 250.76 Q 743.75 250.76 744.03 250.68 L 744.03 251.65 M 744.03 251.65 M 745 251.68 L 745 245.79 L 746.58 245.79 L 746.58 246.9 Q 747.2 245.65 748.47 245.65 Q 748.61 245.65 748.77 245.68 L 748.77 247.1 Q 748.42 246.98 748.12 246.98 Q 747.19 246.98 746.58 247.93 L 746.58 251.68 L 745 251.68 M 745 251.68 M 754.8 251.48 Q 753.66 251.82 752.64 251.82 Q 751.17 251.82 750.32 250.98 Q 749.47 250.13 749.47 248.7 Q 749.47 247.32 750.25 246.48 Q 751.03 245.65 752.31 245.65 Q 753.61 245.65 754.2 246.46 Q 754.8 247.27 754.8 249.05 L 751.14 249.05 Q 751.3 250.73 752.98 250.73 Q 753.8 250.73 754.8 250.37 L 754.8 251.48 M 754.8 251.48 M 751.11 248.15 L 753.23 248.15 Q 753.23 246.65 752.27 246.65 Q 751.27 246.65 751.11 248.15 M 751.11 248.15"/></g><line x1="891" y1="240" x2="891" y2="235" style="stroke-width: 0.5;stroke: rgb(192,208,224);stroke-opacity: 1;" transform="matrix(1,0,0,1,0,0)" clip-path="url(#clip-0)"/><g style="fill: rgb(102,102,102);fill-opacity: 1; stroke: none" transform="matrix(0,-1,1,0,780,1274)" clip-path="url(#clip-4)"><path d="M 983.12 251.68 L 986.22 243.73 L 987.88 243.73 L 990.97 251.68 L 989.27 251.68 L 988.44 249.55 L 985.16 249.55 L 984.33 251.68 L 983.12 251.68 M 983.12 251.68 M 985.56 248.49 L 988.03 248.49 L 986.8 245.34 L 985.56 248.49 M 985.56 248.49 M 992 251.68 L 992 245.79 L 993.52 245.79 L 993.52 246.9 Q 994.22 245.65 995.5 245.65 Q 996.17 245.65 996.6 245.98 Q 997.03 246.3 997.12 246.9 Q 997.95 245.65 999.12 245.65 Q 1000.75 245.65 1000.75 247.43 L 1000.75 251.68 L 999.22 251.68 L 999.22 247.95 Q 999.22 246.9 998.52 246.9 Q 997.81 246.9 997.12 247.93 L 997.12 251.68 L 995.61 251.68 L 995.61 247.95 Q 995.61 246.9 994.91 246.9 Q 994.2 246.9 993.52 247.93 L 993.52 251.68 L 992 251.68 M 992 251.68 M 1003 251.68 L 1003 243.2 L 1004.58 243.2 L 1004.58 246.9 Q 1005.2 245.65 1006.52 245.65 Q 1007.58 245.65 1008.19 246.43 Q 1008.8 247.21 1008.8 248.57 Q 1008.8 250.04 1008.11 250.93 Q 1007.42 251.82 1006.27 251.82 Q 1005.28 251.82 1004.58 251.09 L 1004.28 251.68 L 1003 251.68 M 1003 251.68 M 1004.58 250.13 Q 1005.16 250.79 1005.81 250.79 Q 1006.41 250.79 1006.76 250.22 Q 1007.11 249.65 1007.11 248.71 Q 1007.11 246.9 1005.94 246.9 Q 1005.23 246.9 1004.58 247.8 L 1004.58 250.13 M 1004.58 250.13 M 1010 251.68 L 1010 245.79 L 1011.58 245.79 L 1011.58 251.68 L 1010 251.68 M 1010 251.68 M 1010 244.79 L 1010 243.46 L 1011.58 243.46 L 1011.58 244.79 L 1010 244.79 M 1010 244.79 M 1014.03 253.51 L 1014.17 252.35 Q 1015.16 252.8 1016.05 252.8 Q 1016.92 252.8 1017.31 252.43 Q 1017.7 252.05 1017.7 251.21 L 1017.7 250.41 Q 1017.12 251.68 1015.78 251.68 Q 1014.73 251.68 1014.12 250.89 Q 1013.5 250.1 1013.5 248.76 Q 1013.5 247.35 1014.2 246.5 Q 1014.89 245.65 1016.03 245.65 Q 1016.94 245.65 1017.7 246.38 L 1017.88 245.79 L 1019.3 245.79 L 1019.3 250.29 Q 1019.3 251.63 1019.13 252.23 Q 1018.97 252.82 1018.5 253.24 Q 1017.7 253.93 1016.27 253.93 Q 1015.23 253.93 1014.03 253.51 M 1014.03 253.51 M 1017.7 249.48 L 1017.7 247.3 Q 1017.12 246.66 1016.5 246.66 Q 1015.91 246.66 1015.55 247.21 Q 1015.19 247.76 1015.19 248.68 Q 1015.19 250.41 1016.3 250.41 Q 1017.08 250.41 1017.7 249.48 M 1017.7 249.48 M 1024.64 251.68 L 1024.64 250.57 Q 1023.88 251.82 1022.62 251.82 Q 1021.84 251.82 1021.38 251.32 Q 1020.92 250.82 1020.92 249.95 L 1020.92 245.79 L 1022.52 245.79 L 1022.52 249.55 Q 1022.52 250.55 1023.19 250.55 Q 1023.94 250.55 1024.64 249.49 L 1024.64 245.79 L 1026.23 245.79 L 1026.23 251.68 L 1024.64 251.68 M 1024.64 251.68"/></g><line x1="1163" y1="240" x2="1163" y2="235" style="stroke-width: 0.5;stroke: rgb(192,208,224);stroke-opacity: 1;" transform="matrix(1,0,0,1,0,0)" clip-path="url(#clip-0)"/><g transform="matrix(1,0,0,1,0,0)"><text x="596.5" y="307.84" style="fill: rgb(77,117,158); font-family: Lucida Sans; font-size: 15px; font-weight: bold; " text-rendering="auto" clip-path="url(#clip-0)">Partie</text></g><g transform="matrix(1,0,0,1,0,0)"><text x="41" y="152.35" style="fill: rgb(102,102,102); font-family: Lucida Sans; font-size: 11px; font-weight: bold; " text-rendering="auto" clip-path="url(#clip-0)">-200</text></g><g transform="matrix(1,0,0,1,0,0)"><text x="62" y="130.52" style="fill: rgb(102,102,102); font-family: Lucida Sans; font-size: 11px; font-weight: bold; " text-rendering="auto" clip-path="url(#clip-0)">0</text></g><g transform="matrix(1,0,0,1,0,0)"><text x="48" y="108.69" style="fill: rgb(102,102,102); font-family: Lucida Sans; font-size: 11px; font-weight: bold; " text-rendering="auto" clip-path="url(#clip-0)">200</text></g><g transform="matrix(1,0,0,1,0,0)"><text x="48" y="86.85" style="fill: rgb(102,102,102); font-family: Lucida Sans; font-size: 11px; font-weight: bold; " text-rendering="auto" clip-path="url(#clip-0)">400</text></g><g transform="matrix(1,0,0,1,0,0)"><text x="48" y="65.02" style="fill: rgb(102,102,102); font-family: Lucida Sans; font-size: 11px; font-weight: bold; " text-rendering="auto" clip-path="url(#clip-0)">600</text></g><g transform="matrix(1,0,0,1,0,0)"><text x="48" y="43.19" style="fill: rgb(102,102,102); font-family: Lucida Sans; font-size: 11px; font-weight: bold; " text-rendering="auto" clip-path="url(#clip-0)">800</text></g><g transform="matrix(1,0,0,1,0,0)"><text x="37" y="21.36" style="fill: rgb(102,102,102); font-family: Lucida Sans; font-size: 11px; font-weight: bold; " text-rendering="auto" clip-path="url(#clip-0)">1 000</text></g><g style="fill: rgb(77,117,158);fill-opacity: 1; stroke: none" transform="matrix(0,-1,1,0,-100,145)" clip-path="url(#clip-5)"><path d="M 0.36 128.84 L 0.36 117.99 L 2.61 117.99 L 2.61 128.84 L 0.36 128.84 M 0.36 128.84 M 5.36 128.84 L 5.36 120.79 L 7.52 120.79 L 7.52 122.3 Q 8.58 120.62 10.27 120.62 Q 11.34 120.62 11.96 121.3 Q 12.58 121.98 12.58 123.15 L 12.58 128.84 L 10.42 128.84 L 10.42 123.68 Q 10.42 122.32 9.52 122.32 Q 8.47 122.32 7.52 123.77 L 7.52 128.84 L 5.36 128.84 M 5.36 128.84 M 20.42 128.84 L 20.42 127.32 Q 19.58 129.02 17.78 129.02 Q 16.34 129.02 15.52 127.96 Q 14.69 126.9 14.69 125.04 Q 14.69 123.01 15.62 121.81 Q 16.55 120.62 18.12 120.62 Q 19.39 120.62 20.42 121.6 L 20.42 117.27 L 22.59 117.27 L 22.59 128.84 L 20.42 128.84 M 20.42 128.84 M 20.42 122.9 Q 19.62 122.02 18.73 122.02 Q 17.94 122.02 17.46 122.79 Q 16.98 123.55 16.98 124.85 Q 16.98 127.32 18.58 127.32 Q 19.53 127.32 20.42 126.09 L 20.42 122.9 M 20.42 122.9 M 25.36 128.84 L 25.36 120.79 L 27.52 120.79 L 27.52 128.84 L 25.36 128.84 M 25.36 128.84 M 25.36 119.45 L 25.36 117.63 L 27.52 117.63 L 27.52 119.45 L 25.36 119.45 M 25.36 119.45 M 36.28 128.66 Q 34.94 129.02 33.8 129.02 Q 31.86 129.02 30.74 127.89 Q 29.62 126.76 29.62 124.8 Q 29.62 122.84 30.78 121.73 Q 31.94 120.62 33.95 120.62 Q 34.94 120.62 36.22 120.93 L 36.22 122.49 Q 34.89 122.05 34.09 122.05 Q 33.11 122.05 32.52 122.8 Q 31.94 123.55 31.94 124.79 Q 31.94 126.05 32.58 126.82 Q 33.22 127.59 34.28 127.59 Q 35.25 127.59 36.28 127.16 L 36.28 128.66 M 36.28 128.66 M 44.91 128.57 Q 43.36 129.02 41.97 129.02 Q 39.95 129.02 38.79 127.88 Q 37.62 126.73 37.62 124.76 Q 37.62 122.88 38.7 121.75 Q 39.77 120.62 41.52 120.62 Q 43.28 120.62 44.09 121.73 Q 44.91 122.84 44.91 125.24 L 39.92 125.24 Q 40.14 127.54 42.44 127.54 Q 43.53 127.54 44.91 127.04 L 44.91 128.57 M 44.91 128.57 M 39.89 124.02 L 42.77 124.02 Q 42.77 121.96 41.45 121.96 Q 40.09 121.96 39.89 124.02 M 39.89 124.02"/></g><line x1="75" y1="147.67" x2="1163" y2="147.67" style="stroke-width: 1.0;stroke: rgb(192,192,192);stroke-opacity: 1;" transform="matrix(1,0,0,1,0,0)" clip-path="url(#clip-6)"/><line x1="75" y1="104.01" x2="1163" y2="104.01" style="stroke-width: 1.0;stroke: rgb(192,192,192);stroke-opacity: 1;" transform="matrix(1,0,0,1,0,0)" clip-path="url(#clip-6)"/><line x1="75" y1="82.17" x2="1163" y2="82.17" style="stroke-width: 1.0;stroke: rgb(192,192,192);stroke-opacity: 1;" transform="matrix(1,0,0,1,0,0)" clip-path="url(#clip-6)"/><line x1="75" y1="60.34" x2="1163" y2="60.34" style="stroke-width: 1.0;stroke: rgb(192,192,192);stroke-opacity: 1;" transform="matrix(1,0,0,1,0,0)" clip-path="url(#clip-6)"/><line x1="75" y1="38.51" x2="1163" y2="38.51" style="stroke-width: 1.0;stroke: rgb(192,192,192);stroke-opacity: 1;" transform="matrix(1,0,0,1,0,0)" clip-path="url(#clip-6)"/><line x1="75" y1="16.68" x2="1163" y2="16.68" style="stroke-width: 1.0;stroke: rgb(192,192,192);stroke-opacity: 1;" transform="matrix(1,0,0,1,0,0)" clip-path="url(#clip-6)"/><line x1="75" y1="125.84" x2="1163" y2="125.84" style="stroke-width: 0.5;stroke: rgb(134,145,156);stroke-opacity: 1;" transform="matrix(1,0,0,1,0,0)" clip-path="url(#clip-6)"/><rect x="287.16" y="110.01" width="19.04" height="15.83" style="fill: rgb(255,0,255);fill-opacity: 1" transform="matrix(1,0,0,1,0,0)" clip-path="url(#clip-6)"/><rect x="559.16" y="125.84" width="19.04" height="4.93" style="fill: rgb(255,0,255);fill-opacity: 1" transform="matrix(1,0,0,1,0,0)" clip-path="url(#clip-6)"/><rect x="831.16" y="125.84" width="19.04" height="9.91" style="fill: rgb(255,0,255);fill-opacity: 1" transform="matrix(1,0,0,1,0,0)" clip-path="url(#clip-6)"/><rect x="1103.16" y="125.21" width="19.04" height="0.63" style="fill: rgb(255,0,255);fill-opacity: 1" transform="matrix(1,0,0,1,0,0)" clip-path="url(#clip-6)"/><rect x="268.12" y="109.86" width="19.04" height="15.98" style="fill: rgb(255,185,15);fill-opacity: 1" transform="matrix(1,0,0,1,0,0)" clip-path="url(#clip-6)"/><rect x="540.12" y="125.84" width="19.04" height="7.52" style="fill: rgb(255,185,15);fill-opacity: 1" transform="matrix(1,0,0,1,0,0)" clip-path="url(#clip-6)"/><rect x="812.12" y="125.84" width="19.04" height="5.33" style="fill: rgb(255,185,15);fill-opacity: 1" transform="matrix(1,0,0,1,0,0)" clip-path="url(#clip-6)"/><rect x="1084.12" y="125.84" width="19.04" height="0.25" style="fill: rgb(255,185,15);fill-opacity: 1" transform="matrix(1,0,0,1,0,0)" clip-path="url(#clip-6)"/><rect x="249.08" y="109.84" width="19.04" height="16" style="fill: rgb(173,255,47);fill-opacity: 1" transform="matrix(1,0,0,1,0,0)" clip-path="url(#clip-6)"/><rect x="521.08" y="125.84" width="19.04" height="5.28" style="fill: rgb(173,255,47);fill-opacity: 1" transform="matrix(1,0,0,1,0,0)" clip-path="url(#clip-6)"/><rect x="793.08" y="125.84" width="19.04" height="6.52" style="fill: rgb(173,255,47);fill-opacity: 1" transform="matrix(1,0,0,1,0,0)" clip-path="url(#clip-6)"/><rect x="1065.08" y="125.84" width="19.04" height="0.28" style="fill: rgb(173,255,47);fill-opacity: 1" transform="matrix(1,0,0,1,0,0)" clip-path="url(#clip-6)"/><rect x="230.04" y="108.84" width="19.04" height="17" style="fill: rgb(0,191,255);fill-opacity: 1" transform="matrix(1,0,0,1,0,0)" clip-path="url(#clip-6)"/><rect x="502.04" y="125.84" width="19.04" height="5.54" style="fill: rgb(0,191,255);fill-opacity: 1" transform="matrix(1,0,0,1,0,0)" clip-path="url(#clip-6)"/><rect x="774.04" y="125.84" width="19.04" height="6.78" style="fill: rgb(0,191,255);fill-opacity: 1" transform="matrix(1,0,0,1,0,0)" clip-path="url(#clip-6)"/><rect x="1046.04" y="125.84" width="19.04" height="0.23" style="fill: rgb(0,191,255);fill-opacity: 1" transform="matrix(1,0,0,1,0,0)" clip-path="url(#clip-6)"/><rect x="211" y="108.8" width="19.04" height="17.04" style="fill: rgb(178,34,34);fill-opacity: 1" transform="matrix(1,0,0,1,0,0)" clip-path="url(#clip-6)"/><rect x="483" y="125.84" width="19.04" height="7.14" style="fill: rgb(178,34,34);fill-opacity: 1" transform="matrix(1,0,0,1,0,0)" clip-path="url(#clip-6)"/><rect x="755" y="125.84" width="19.04" height="5.75" style="fill: rgb(178,34,34);fill-opacity: 1" transform="matrix(1,0,0,1,0,0)" clip-path="url(#clip-6)"/><rect x="1027" y="125.84" width="19.04" height="0.28" style="fill: rgb(178,34,34);fill-opacity: 1" transform="matrix(1,0,0,1,0,0)" clip-path="url(#clip-6)"/><rect x="191.96" y="106.56" width="19.04" height="19.28" style="fill: rgb(255,20,147);fill-opacity: 1" transform="matrix(1,0,0,1,0,0)" clip-path="url(#clip-6)"/><rect x="463.96" y="125.84" width="19.04" height="9.46" style="fill: rgb(255,20,147);fill-opacity: 1" transform="matrix(1,0,0,1,0,0)" clip-path="url(#clip-6)"/><rect x="735.96" y="125.84" width="19.04" height="5.22" style="fill: rgb(255,20,147);fill-opacity: 1" transform="matrix(1,0,0,1,0,0)" clip-path="url(#clip-6)"/><rect x="1007.96" y="125.84" width="19.04" height="0.13" style="fill: rgb(255,20,147);fill-opacity: 1" transform="matrix(1,0,0,1,0,0)" clip-path="url(#clip-6)"/><rect x="172.92" y="97.73" width="19.04" height="28.11" style="fill: rgb(255,215,0);fill-opacity: 1" transform="matrix(1,0,0,1,0,0)" clip-path="url(#clip-6)"/><rect x="444.92" y="125.84" width="19.04" height="10.9" style="fill: rgb(255,215,0);fill-opacity: 1" transform="matrix(1,0,0,1,0,0)" clip-path="url(#clip-6)"/><rect x="716.92" y="125.84" width="19.04" height="11.27" style="fill: rgb(255,215,0);fill-opacity: 1" transform="matrix(1,0,0,1,0,0)" clip-path="url(#clip-6)"/><rect x="988.92" y="125.8" width="19.04" height="0.04" style="fill: rgb(255,215,0);fill-opacity: 1" transform="matrix(1,0,0,1,0,0)" clip-path="url(#clip-6)"/><rect x="153.88" y="16.68" width="19.04" height="109.16" style="fill: rgb(0,139,0);fill-opacity: 1" transform="matrix(1,0,0,1,0,0)" clip-path="url(#clip-6)"/><rect x="425.88" y="125.84" width="19.04" height="16.87" style="fill: rgb(0,139,0);fill-opacity: 1" transform="matrix(1,0,0,1,0,0)" clip-path="url(#clip-6)"/><rect x="697.88" y="125.84" width="19.04" height="13.5" style="fill: rgb(0,139,0);fill-opacity: 1" transform="matrix(1,0,0,1,0,0)" clip-path="url(#clip-6)"/><rect x="969.88" y="125.84" width="19.04" height="0.29" style="fill: rgb(0,139,0);fill-opacity: 1" transform="matrix(1,0,0,1,0,0)" clip-path="url(#clip-6)"/><rect x="134.84" y="16.68" width="19.04" height="109.16" style="fill: rgb(0,0,255);fill-opacity: 1" transform="matrix(1,0,0,1,0,0)" clip-path="url(#clip-6)"/><rect x="406.84" y="125.84" width="19.04" height="16.34" style="fill: rgb(0,0,255);fill-opacity: 1" transform="matrix(1,0,0,1,0,0)" clip-path="url(#clip-6)"/><rect x="678.84" y="125.84" width="19.04" height="17.18" style="fill: rgb(0,0,255);fill-opacity: 1" transform="matrix(1,0,0,1,0,0)" clip-path="url(#clip-6)"/><rect x="950.84" y="125.84" width="19.04" height="0.65" style="fill: rgb(0,0,255);fill-opacity: 1" transform="matrix(1,0,0,1,0,0)" clip-path="url(#clip-6)"/><rect x="115.8" y="16.68" width="19.04" height="109.16" style="fill: rgb(255,0,0);fill-opacity: 1" transform="matrix(1,0,0,1,0,0)" clip-path="url(#clip-6)"/><rect x="387.8" y="125.84" width="19.04" height="22.35" style="fill: rgb(255,0,0);fill-opacity: 1" transform="matrix(1,0,0,1,0,0)" clip-path="url(#clip-6)"/><rect x="659.8" y="125.84" width="19.04" height="24.41" style="fill: rgb(255,0,0);fill-opacity: 1" transform="matrix(1,0,0,1,0,0)" clip-path="url(#clip-6)"/><rect x="931.8" y="125.84" width="19.04" height="0.23" style="fill: rgb(255,0,0);fill-opacity: 1" transform="matrix(1,0,0,1,0,0)" clip-path="url(#clip-6)"/><line x1="75" y1="125.62" x2="1163" y2="125.62" style="stroke-width: 0.5;stroke: rgb(255,0,0);stroke-opacity: 1;" transform="matrix(1,0,0,1,0,0)" clip-path="url(#clip-6)"/><rect x="1095" y="112.14" width="65" height="12" style="fill: rgb(100,100,100);fill-opacity: 0.392157" transform="matrix(1,0,0,1,0,0)" clip-path="url(#clip-6)"/><g transform="matrix(1,0,0,1,0,0)"><text x="1095" y="120.5" style="fill: rgb(0,0,0); font-family: sans-serif; font-size: 9px; " text-rendering="auto" clip-path="url(#clip-6)">Banalité : 2.0</text></g><line x1="75" y1="126.06" x2="1163" y2="126.06" style="stroke-width: 0.5;stroke: rgb(255,0,0);stroke-opacity: 1;" transform="matrix(1,0,0,1,0,0)" clip-path="url(#clip-6)"/><rect x="1092" y="112.58" width="68" height="12" style="fill: rgb(100,100,100);fill-opacity: 0.392157" transform="matrix(1,0,0,1,0,0)" clip-path="url(#clip-6)"/><g transform="matrix(1,0,0,1,0,0)"><text x="1092" y="120.93" style="fill: rgb(0,0,0); font-family: sans-serif; font-size: 9px; " text-rendering="auto" clip-path="url(#clip-6)">Banalité : -2.0</text></g></svg>
