<!DOCTYPE svg PUBLIC "-//W3C//DTD SVG 1.1//EN" "http://www.w3.org/Graphics/SVG/1.1/DTD/svg11.dtd">
<svg style="stroke-linecap:square;" xmlns="http://www.w3.org/2000/svg" xmlns:xlink="http://www.w3.org/1999/xlink" width="1269" height="324">
<defs><clipPath id="clip-0"><path d="M 0 0 L 1269 0 L 1269 324 L 0 324 L 0 0 M 0 0"/></clipPath>
<clipPath id="clip-1"><path d="M 434.12 59.88 L 434.12 1328.88 L 110.12 1328.88 L 110.12 59.88 L 434.12 59.88 M 434.12 59.88"/></clipPath>
<clipPath id="clip-2"><path d="M 708.38 -214.38 L 708.38 1054.62 L 384.38 1054.62 L 384.38 -214.38 L 708.38 -214.38 M 708.38 -214.38"/></clipPath>
<clipPath id="clip-3"><path d="M 982.62 -488.62 L 982.62 780.38 L 658.62 780.38 L 658.62 -488.62 L 982.62 -488.62 M 982.62 -488.62"/></clipPath>
<clipPath id="clip-4"><path d="M 1256.88 -762.88 L 1256.88 506.12 L 932.88 506.12 L 932.88 -762.88 L 1256.88 -762.88 M 1256.88 -762.88"/></clipPath>
<clipPath id="clip-5"><path d="M 145 100 L 145 1369 L -179 1369 L -179 100 L 145 100 M 145 100"/></clipPath>
<clipPath id="clip-6"><path d="M 50 10 L 50 235 L 1147 235 L 1147 10 M 50 10"/></clipPath>
</defs>
<rect x="0" y="0" width="1269" height="324" style="fill: rgb(255,255,255);fill-opacity: 1" transform="matrix(1,0,0,1,0,0)" clip-path="url(#clip-0)"/><rect x="1167" y="70" width="92" height="184" style="fill: rgb(255,255,255);fill-opacity: 1" transform="matrix(1,0,0,1,0,0)" clip-path="url(#clip-0)"/><g style="stroke-width: 1.0;stroke: rgb(192,192,192);stroke-opacity: 1; fill: none" transform="matrix(1,0,0,1,0,0)" clip-path="url(#clip-0)"><path d="M 1167 75 L 1167 249 C 1167 251.76 1169.24 254 1172 254 L 1254 254 C 1256.76 254 1259 251.76 1259 249 L 1259 75 C 1259 72.24 1256.76 70 1254 70 L 1172 70 C 1169.24 70 1167 72.24 1167 75 M 1167 75"/></g><g style="fill: rgb(255,0,0);fill-opacity: 1; stroke: none" transform="matrix(1,0,0,1,0,0)" clip-path="url(#clip-0)"><path d="M 1171 76 L 1177 76 L 1177 86 L 1171 86 L 1171 76 M 1171 76"/></g><g transform="matrix(1,0,0,1,0,0)"><text x="1181" y="84.48" style="fill: rgb(39,75,109); font-family: Lucida Sans; font-size: 11px; font-weight: bold; " text-rendering="auto" clip-path="url(#clip-0)">offre</text></g><g style="fill: rgb(0,0,255);fill-opacity: 1; stroke: none" transform="matrix(1,0,0,1,0,0)" clip-path="url(#clip-0)"><path d="M 1171 94 L 1177 94 L 1177 104 L 1171 104 L 1171 94 M 1171 94"/></g><g transform="matrix(1,0,0,1,0,0)"><text x="1181" y="102.48" style="fill: rgb(39,75,109); font-family: Lucida Sans; font-size: 11px; font-weight: bold; " text-rendering="auto" clip-path="url(#clip-0)">emploi</text></g><g style="fill: rgb(0,139,0);fill-opacity: 1; stroke: none" transform="matrix(1,0,0,1,0,0)" clip-path="url(#clip-0)"><path d="M 1171 112 L 1177 112 L 1177 122 L 1171 122 L 1171 112 M 1171 112"/></g><g transform="matrix(1,0,0,1,0,0)"><text x="1181" y="120.48" style="fill: rgb(39,75,109); font-family: Lucida Sans; font-size: 11px; font-weight: bold; " text-rendering="auto" clip-path="url(#clip-0)">correspondre</text></g><g style="fill: rgb(255,215,0);fill-opacity: 1; stroke: none" transform="matrix(1,0,0,1,0,0)" clip-path="url(#clip-0)"><path d="M 1171 130 L 1177 130 L 1177 140 L 1171 140 L 1171 130 M 1171 130"/></g><g transform="matrix(1,0,0,1,0,0)"><text x="1181" y="138.48" style="fill: rgb(39,75,109); font-family: Lucida Sans; font-size: 11px; font-weight: bold; " text-rendering="auto" clip-path="url(#clip-0)">pense</text></g><g style="fill: rgb(255,20,147);fill-opacity: 1; stroke: none" transform="matrix(1,0,0,1,0,0)" clip-path="url(#clip-0)"><path d="M 1171 148 L 1177 148 L 1177 158 L 1171 158 L 1171 148 M 1171 148"/></g><g transform="matrix(1,0,0,1,0,0)"><text x="1181" y="156.48" style="fill: rgb(39,75,109); font-family: Lucida Sans; font-size: 11px; font-weight: bold; " text-rendering="auto" clip-path="url(#clip-0)">diplôme</text></g><g style="fill: rgb(178,34,34);fill-opacity: 1; stroke: none" transform="matrix(1,0,0,1,0,0)" clip-path="url(#clip-0)"><path d="M 1171 166 L 1177 166 L 1177 176 L 1171 176 L 1171 166 M 1171 166"/></g><g transform="matrix(1,0,0,1,0,0)"><text x="1181" y="174.48" style="fill: rgb(39,75,109); font-family: Lucida Sans; font-size: 11px; font-weight: bold; " text-rendering="auto" clip-path="url(#clip-0)">recherche</text></g><g style="fill: rgb(0,191,255);fill-opacity: 1; stroke: none" transform="matrix(1,0,0,1,0,0)" clip-path="url(#clip-0)"><path d="M 1171 184 L 1177 184 L 1177 194 L 1171 194 L 1171 184 M 1171 184"/></g><g transform="matrix(1,0,0,1,0,0)"><text x="1181" y="192.48" style="fill: rgb(39,75,109); font-family: Lucida Sans; font-size: 11px; font-weight: bold; " text-rendering="auto" clip-path="url(#clip-0)">possède</text></g><g style="fill: rgb(173,255,47);fill-opacity: 1; stroke: none" transform="matrix(1,0,0,1,0,0)" clip-path="url(#clip-0)"><path d="M 1171 202 L 1177 202 L 1177 212 L 1171 212 L 1171 202 M 1171 202"/></g><g transform="matrix(1,0,0,1,0,0)"><text x="1181" y="210.48" style="fill: rgb(39,75,109); font-family: Lucida Sans; font-size: 11px; font-weight: bold; " text-rendering="auto" clip-path="url(#clip-0)">Vous</text></g><g style="fill: rgb(255,185,15);fill-opacity: 1; stroke: none" transform="matrix(1,0,0,1,0,0)" clip-path="url(#clip-0)"><path d="M 1171 220 L 1177 220 L 1177 230 L 1171 230 L 1171 220 M 1171 220"/></g><g transform="matrix(1,0,0,1,0,0)"><text x="1181" y="228.48" style="fill: rgb(39,75,109); font-family: Lucida Sans; font-size: 11px; font-weight: bold; " text-rendering="auto" clip-path="url(#clip-0)">soumettre</text></g><g style="fill: rgb(255,0,255);fill-opacity: 1; stroke: none" transform="matrix(1,0,0,1,0,0)" clip-path="url(#clip-0)"><path d="M 1171 238 L 1177 238 L 1177 248 L 1171 248 L 1171 238 M 1171 238"/></g><g transform="matrix(1,0,0,1,0,0)"><text x="1181" y="246.48" style="fill: rgb(39,75,109); font-family: Lucida Sans; font-size: 11px; font-weight: bold; " text-rendering="auto" clip-path="url(#clip-0)">plaisir</text></g><rect x="50" y="10" width="1097" height="225" style="fill: rgb(255,255,255);fill-opacity: 1" transform="matrix(1,0,0,1,0,0)" clip-path="url(#clip-0)"/><line x1="50" y1="235" x2="1147" y2="235" style="stroke-width: 0.5;stroke: rgb(192,208,224);stroke-opacity: 1;" transform="matrix(1,0,0,1,0,0)" clip-path="url(#clip-0)"/><g style="fill: rgb(102,102,102);fill-opacity: 1; stroke: none" transform="matrix(0,-1,1,0,-59.875,434.125)" clip-path="url(#clip-1)"><path d="M 160.12 251.68 L 160.12 243.73 L 162.31 243.73 L 164.22 249.32 L 166.19 243.73 L 168.11 243.73 L 168.11 251.68 L 166.59 251.68 L 166.59 245.68 L 164.66 251.15 L 163.31 251.15 L 161.42 245.6 L 161.42 251.68 L 160.12 251.68 M 160.12 251.68 M 173.02 251.04 Q 172.22 251.82 171.31 251.82 Q 170.53 251.82 170.05 251.34 Q 169.56 250.87 169.56 250.12 Q 169.56 249.13 170.34 248.61 Q 171.12 248.09 172.58 248.09 L 173.02 248.09 L 173.02 247.54 Q 173.02 246.63 171.97 246.63 Q 171.03 246.63 170.08 247.15 L 170.08 246.05 Q 171.16 245.65 172.22 245.65 Q 174.53 245.65 174.53 247.49 L 174.53 250.1 Q 174.53 250.79 174.98 250.79 Q 175.06 250.79 175.19 250.77 L 175.23 251.66 Q 174.72 251.82 174.33 251.82 Q 173.36 251.82 173.08 251.04 L 173.02 251.04 M 173.02 251.04 M 173.02 250.2 L 173.02 248.99 L 172.62 248.99 Q 171.09 248.99 171.09 249.96 Q 171.09 250.29 171.31 250.51 Q 171.53 250.73 171.86 250.73 Q 172.42 250.73 173.02 250.2 M 173.02 250.2 M 175.97 251.49 L 175.97 250.32 Q 177.14 250.82 177.98 250.82 Q 178.95 250.82 178.95 250.15 Q 178.95 249.73 178.16 249.4 L 177.62 249.18 Q 176.73 248.84 176.36 248.43 Q 175.98 248.02 175.98 247.41 Q 175.98 246.57 176.62 246.11 Q 177.27 245.65 178.42 245.65 Q 179.14 245.65 180.12 245.85 L 180.12 246.98 Q 179.17 246.65 178.55 246.65 Q 177.56 246.65 177.56 247.26 Q 177.56 247.66 178.28 247.93 L 178.75 248.12 Q 179.78 248.51 180.19 248.91 Q 180.59 249.3 180.59 249.95 Q 180.59 250.77 179.91 251.3 Q 179.22 251.82 178.11 251.82 Q 177.05 251.82 175.97 251.49 M 175.97 251.49 M 186.47 251.55 Q 185.48 251.82 184.64 251.82 Q 183.22 251.82 182.41 250.98 Q 181.59 250.15 181.59 248.73 Q 181.59 247.27 182.44 246.46 Q 183.28 245.65 184.77 245.65 Q 185.48 245.65 186.42 245.88 L 186.42 247.02 Q 185.44 246.71 184.86 246.71 Q 184.14 246.71 183.71 247.26 Q 183.28 247.8 183.28 248.71 Q 183.28 249.65 183.75 250.2 Q 184.22 250.76 185 250.76 Q 185.72 250.76 186.47 250.45 L 186.47 251.55 M 186.47 251.55"/></g><line x1="324.25" y1="240" x2="324.25" y2="235" style="stroke-width: 0.5;stroke: rgb(192,208,224);stroke-opacity: 1;" transform="matrix(1,0,0,1,0,0)" clip-path="url(#clip-0)"/><line x1="50" y1="240" x2="50" y2="235" style="stroke-width: 0.5;stroke: rgb(192,208,224);stroke-opacity: 1;" transform="matrix(1,0,0,1,0,0)" clip-path="url(#clip-0)"/><g style="fill: rgb(102,102,102);fill-opacity: 1; stroke: none" transform="matrix(0,-1,1,0,214.375,708.375)" clip-path="url(#clip-2)"><path d="M 439.38 251.68 L 439.38 243.73 L 444.38 243.73 L 444.38 244.82 L 441.02 244.82 L 441.02 247.24 L 443.77 247.24 L 443.77 248.34 L 441.02 248.34 L 441.02 251.68 L 439.38 251.68 M 439.38 251.68 M 450.17 251.48 Q 449.03 251.82 448.02 251.82 Q 446.55 251.82 445.7 250.98 Q 444.84 250.13 444.84 248.7 Q 444.84 247.32 445.62 246.48 Q 446.41 245.65 447.69 245.65 Q 448.98 245.65 449.58 246.46 Q 450.17 247.27 450.17 249.05 L 446.52 249.05 Q 446.67 250.73 448.36 250.73 Q 449.17 250.73 450.17 250.37 L 450.17 251.48 M 450.17 251.48 M 446.48 248.15 L 448.61 248.15 Q 448.61 246.65 447.64 246.65 Q 446.64 246.65 446.48 248.15 M 446.48 248.15 M 451.38 251.68 L 451.38 245.79 L 452.89 245.79 L 452.89 246.9 Q 453.59 245.65 454.88 245.65 Q 455.55 245.65 455.98 245.98 Q 456.41 246.3 456.5 246.9 Q 457.33 245.65 458.5 245.65 Q 460.12 245.65 460.12 247.43 L 460.12 251.68 L 458.59 251.68 L 458.59 247.95 Q 458.59 246.9 457.89 246.9 Q 457.19 246.9 456.5 247.93 L 456.5 251.68 L 454.98 251.68 L 454.98 247.95 Q 454.98 246.9 454.28 246.9 Q 453.58 246.9 452.89 247.93 L 452.89 251.68 L 451.38 251.68 M 451.38 251.68"/></g><line x1="598.5" y1="240" x2="598.5" y2="235" style="stroke-width: 0.5;stroke: rgb(192,208,224);stroke-opacity: 1;" transform="matrix(1,0,0,1,0,0)" clip-path="url(#clip-0)"/><g style="fill: rgb(102,102,102);fill-opacity: 1; stroke: none" transform="matrix(0,-1,1,0,488.625,982.625)" clip-path="url(#clip-3)"><path d="M 700.62 251.68 L 700.62 243.73 L 702.08 243.73 L 705.77 249.16 L 705.77 243.73 L 707.08 243.73 L 707.08 251.68 L 705.61 251.68 L 701.95 246.24 L 701.95 251.68 L 700.62 251.68 M 700.62 251.68 M 713.42 251.48 Q 712.28 251.82 711.27 251.82 Q 709.8 251.82 708.95 250.98 Q 708.09 250.13 708.09 248.7 Q 708.09 247.32 708.88 246.48 Q 709.66 245.65 710.94 245.65 Q 712.23 245.65 712.83 246.46 Q 713.42 247.27 713.42 249.05 L 709.77 249.05 Q 709.92 250.73 711.61 250.73 Q 712.42 250.73 713.42 250.37 L 713.42 251.48 M 713.42 251.48 M 709.73 248.15 L 711.86 248.15 Q 711.86 246.65 710.89 246.65 Q 709.89 246.65 709.73 248.15 M 709.73 248.15 M 718.27 251.68 L 718.27 250.57 Q 717.5 251.82 716.25 251.82 Q 715.47 251.82 715.01 251.32 Q 714.55 250.82 714.55 249.95 L 714.55 245.79 L 716.14 245.79 L 716.14 249.55 Q 716.14 250.55 716.81 250.55 Q 717.56 250.55 718.27 249.49 L 718.27 245.79 L 719.86 245.79 L 719.86 251.68 L 718.27 251.68 M 718.27 251.68 M 724.66 251.65 Q 724.09 251.82 723.77 251.82 Q 721.69 251.82 721.69 249.88 L 721.69 246.77 L 721.03 246.77 L 721.03 245.79 L 721.69 245.79 L 721.69 244.79 L 723.28 244.6 L 723.28 245.79 L 724.55 245.79 L 724.55 246.77 L 723.28 246.77 L 723.28 249.66 Q 723.28 250.76 724.17 250.76 Q 724.38 250.76 724.66 250.68 L 724.66 251.65 M 724.66 251.65 M 725.62 251.68 L 725.62 245.79 L 727.2 245.79 L 727.2 246.9 Q 727.83 245.65 729.09 245.65 Q 729.23 245.65 729.39 245.68 L 729.39 247.1 Q 729.05 246.98 728.75 246.98 Q 727.81 246.98 727.2 247.93 L 727.2 251.68 L 725.62 251.68 M 725.62 251.68 M 735.42 251.48 Q 734.28 251.82 733.27 251.82 Q 731.8 251.82 730.95 250.98 Q 730.09 250.13 730.09 248.7 Q 730.09 247.32 730.88 246.48 Q 731.66 245.65 732.94 245.65 Q 734.23 245.65 734.83 246.46 Q 735.42 247.27 735.42 249.05 L 731.77 249.05 Q 731.92 250.73 733.61 250.73 Q 734.42 250.73 735.42 250.37 L 735.42 251.48 M 735.42 251.48 M 731.73 248.15 L 733.86 248.15 Q 733.86 246.65 732.89 246.65 Q 731.89 246.65 731.73 248.15 M 731.73 248.15"/></g><line x1="872.75" y1="240" x2="872.75" y2="235" style="stroke-width: 0.5;stroke: rgb(192,208,224);stroke-opacity: 1;" transform="matrix(1,0,0,1,0,0)" clip-path="url(#clip-0)"/><g style="fill: rgb(102,102,102);fill-opacity: 1; stroke: none" transform="matrix(0,-1,1,0,762.875,1256.875)" clip-path="url(#clip-4)"><path d="M 966 251.68 L 969.09 243.73 L 970.75 243.73 L 973.84 251.68 L 972.14 251.68 L 971.31 249.55 L 968.03 249.55 L 967.2 251.68 L 966 251.68 M 966 251.68 M 968.44 248.49 L 970.91 248.49 L 969.67 245.34 L 968.44 248.49 M 968.44 248.49 M 974.88 251.68 L 974.88 245.79 L 976.39 245.79 L 976.39 246.9 Q 977.09 245.65 978.38 245.65 Q 979.05 245.65 979.48 245.98 Q 979.91 246.3 980 246.9 Q 980.83 245.65 982 245.65 Q 983.62 245.65 983.62 247.43 L 983.62 251.68 L 982.09 251.68 L 982.09 247.95 Q 982.09 246.9 981.39 246.9 Q 980.69 246.9 980 247.93 L 980 251.68 L 978.48 251.68 L 978.48 247.95 Q 978.48 246.9 977.78 246.9 Q 977.08 246.9 976.39 247.93 L 976.39 251.68 L 974.88 251.68 M 974.88 251.68 M 985.88 251.68 L 985.88 243.2 L 987.45 243.2 L 987.45 246.9 Q 988.08 245.65 989.39 245.65 Q 990.45 245.65 991.06 246.43 Q 991.67 247.21 991.67 248.57 Q 991.67 250.04 990.98 250.93 Q 990.3 251.82 989.14 251.82 Q 988.16 251.82 987.45 251.09 L 987.16 251.68 L 985.88 251.68 M 985.88 251.68 M 987.45 250.13 Q 988.03 250.79 988.69 250.79 Q 989.28 250.79 989.63 250.22 Q 989.98 249.65 989.98 248.71 Q 989.98 246.9 988.81 246.9 Q 988.11 246.9 987.45 247.8 L 987.45 250.13 M 987.45 250.13 M 992.88 251.68 L 992.88 245.79 L 994.45 245.79 L 994.45 251.68 L 992.88 251.68 M 992.88 251.68 M 992.88 244.79 L 992.88 243.46 L 994.45 243.46 L 994.45 244.79 L 992.88 244.79 M 992.88 244.79 M 996.91 253.51 L 997.05 252.35 Q 998.03 252.8 998.92 252.8 Q 999.8 252.8 1000.19 252.43 Q 1000.58 252.05 1000.58 251.21 L 1000.58 250.41 Q 1000 251.68 998.66 251.68 Q 997.61 251.68 996.99 250.89 Q 996.38 250.1 996.38 248.76 Q 996.38 247.35 997.07 246.5 Q 997.77 245.65 998.91 245.65 Q 999.81 245.65 1000.58 246.38 L 1000.75 245.79 L 1002.17 245.79 L 1002.17 250.29 Q 1002.17 251.63 1002.01 252.23 Q 1001.84 252.82 1001.38 253.24 Q 1000.58 253.93 999.14 253.93 Q 998.11 253.93 996.91 253.51 M 996.91 253.51 M 1000.58 249.48 L 1000.58 247.3 Q 1000 246.66 999.38 246.66 Q 998.78 246.66 998.42 247.21 Q 998.06 247.76 998.06 248.68 Q 998.06 250.41 999.17 250.41 Q 999.95 250.41 1000.58 249.48 M 1000.58 249.48 M 1007.52 251.68 L 1007.52 250.57 Q 1006.75 251.82 1005.5 251.82 Q 1004.72 251.82 1004.26 251.32 Q 1003.8 250.82 1003.8 249.95 L 1003.8 245.79 L 1005.39 245.79 L 1005.39 249.55 Q 1005.39 250.55 1006.06 250.55 Q 1006.81 250.55 1007.52 249.49 L 1007.52 245.79 L 1009.11 245.79 L 1009.11 251.68 L 1007.52 251.68 M 1007.52 251.68"/></g><line x1="1147" y1="240" x2="1147" y2="235" style="stroke-width: 0.5;stroke: rgb(192,208,224);stroke-opacity: 1;" transform="matrix(1,0,0,1,0,0)" clip-path="url(#clip-0)"/><g transform="matrix(1,0,0,1,0,0)"><text x="576" y="307.84" style="fill: rgb(77,117,158); font-family: Lucida Sans; font-size: 15px; font-weight: bold; " text-rendering="auto" clip-path="url(#clip-0)">Partie</text></g><g transform="matrix(1,0,0,1,0,0)"><text x="37" y="127.18" style="fill: rgb(102,102,102); font-family: Lucida Sans; font-size: 11px; font-weight: bold; " text-rendering="auto" clip-path="url(#clip-0)">0</text></g><g style="fill: rgb(77,117,158);fill-opacity: 1; stroke: none" transform="matrix(0,-1,1,0,-100,145)" clip-path="url(#clip-5)"><path d="M 0.36 128.84 L 0.36 117.99 L 2.61 117.99 L 2.61 128.84 L 0.36 128.84 M 0.36 128.84 M 5.36 128.84 L 5.36 120.79 L 7.52 120.79 L 7.52 122.3 Q 8.58 120.62 10.27 120.62 Q 11.34 120.62 11.96 121.3 Q 12.58 121.98 12.58 123.15 L 12.58 128.84 L 10.42 128.84 L 10.42 123.68 Q 10.42 122.32 9.52 122.32 Q 8.47 122.32 7.52 123.77 L 7.52 128.84 L 5.36 128.84 M 5.36 128.84 M 20.42 128.84 L 20.42 127.32 Q 19.58 129.02 17.78 129.02 Q 16.34 129.02 15.52 127.96 Q 14.69 126.9 14.69 125.04 Q 14.69 123.01 15.62 121.81 Q 16.55 120.62 18.12 120.62 Q 19.39 120.62 20.42 121.6 L 20.42 117.27 L 22.59 117.27 L 22.59 128.84 L 20.42 128.84 M 20.42 128.84 M 20.42 122.9 Q 19.62 122.02 18.73 122.02 Q 17.94 122.02 17.46 122.79 Q 16.98 123.55 16.98 124.85 Q 16.98 127.32 18.58 127.32 Q 19.53 127.32 20.42 126.09 L 20.42 122.9 M 20.42 122.9 M 25.36 128.84 L 25.36 120.79 L 27.52 120.79 L 27.52 128.84 L 25.36 128.84 M 25.36 128.84 M 25.36 119.45 L 25.36 117.63 L 27.52 117.63 L 27.52 119.45 L 25.36 119.45 M 25.36 119.45 M 36.28 128.66 Q 34.94 129.02 33.8 129.02 Q 31.86 129.02 30.74 127.89 Q 29.62 126.76 29.62 124.8 Q 29.62 122.84 30.78 121.73 Q 31.94 120.62 33.95 120.62 Q 34.94 120.62 36.22 120.93 L 36.22 122.49 Q 34.89 122.05 34.09 122.05 Q 33.11 122.05 32.52 122.8 Q 31.94 123.55 31.94 124.79 Q 31.94 126.05 32.58 126.82 Q 33.22 127.59 34.28 127.59 Q 35.25 127.59 36.28 127.16 L 36.28 128.66 M 36.28 128.66 M 44.91 128.57 Q 43.36 129.02 41.97 129.02 Q 39.95 129.02 38.79 127.88 Q 37.62 126.73 37.62 124.76 Q 37.62 122.88 38.7 121.75 Q 39.77 120.62 41.52 120.62 Q 43.28 120.62 44.09 121.73 Q 44.91 122.84 44.91 125.24 L 39.92 125.24 Q 40.14 127.54 42.44 127.54 Q 43.53 127.54 44.91 127.04 L 44.91 128.57 M 44.91 128.57 M 39.89 124.02 L 42.77 124.02 Q 42.77 121.96 41.45 121.96 Q 40.09 121.96 39.89 124.02 M 39.89 124.02"/></g><line x1="50" y1="122.5" x2="1147" y2="122.5" style="stroke-width: 0.5;stroke: rgb(134,145,156);stroke-opacity: 1;" transform="matrix(1,0,0,1,0,0)" clip-path="url(#clip-6)"/><rect x="263.91" y="122.5" width="19.2" height="0.43" style="fill: rgb(255,0,255);fill-opacity: 1" transform="matrix(1,0,0,1,0,0)" clip-path="url(#clip-6)"/><rect x="538.16" y="122.5" width="19.2" height="4.9" style="fill: rgb(255,0,255);fill-opacity: 1" transform="matrix(1,0,0,1,0,0)" clip-path="url(#clip-6)"/><rect x="812.42" y="115" width="19.2" height="7.5" style="fill: rgb(255,0,255);fill-opacity: 1" transform="matrix(1,0,0,1,0,0)" clip-path="url(#clip-6)"/><rect x="1086.66" y="122.5" width="19.2" height="0.3" style="fill: rgb(255,0,255);fill-opacity: 1" transform="matrix(1,0,0,1,0,0)" clip-path="url(#clip-6)"/><rect x="244.72" y="122.5" width="19.2" height="0.15" style="fill: rgb(255,185,15);fill-opacity: 1" transform="matrix(1,0,0,1,0,0)" clip-path="url(#clip-6)"/><rect x="518.97" y="122.5" width="19.2" height="6.87" style="fill: rgb(255,185,15);fill-opacity: 1" transform="matrix(1,0,0,1,0,0)" clip-path="url(#clip-6)"/><rect x="793.22" y="114.89" width="19.2" height="7.61" style="fill: rgb(255,185,15);fill-opacity: 1" transform="matrix(1,0,0,1,0,0)" clip-path="url(#clip-6)"/><rect x="1067.47" y="122.5" width="19.2" height="0.26" style="fill: rgb(255,185,15);fill-opacity: 1" transform="matrix(1,0,0,1,0,0)" clip-path="url(#clip-6)"/><rect x="225.52" y="122.5" width="19.2" height="2.92" style="fill: rgb(173,255,47);fill-opacity: 1" transform="matrix(1,0,0,1,0,0)" clip-path="url(#clip-6)"/><rect x="499.77" y="122.5" width="19.2" height="1.87" style="fill: rgb(173,255,47);fill-opacity: 1" transform="matrix(1,0,0,1,0,0)" clip-path="url(#clip-6)"/><rect x="774.02" y="112.76" width="19.2" height="9.74" style="fill: rgb(173,255,47);fill-opacity: 1" transform="matrix(1,0,0,1,0,0)" clip-path="url(#clip-6)"/><rect x="1048.27" y="122.5" width="19.2" height="0.64" style="fill: rgb(173,255,47);fill-opacity: 1" transform="matrix(1,0,0,1,0,0)" clip-path="url(#clip-6)"/><rect x="206.32" y="122.5" width="19.2" height="1.08" style="fill: rgb(0,191,255);fill-opacity: 1" transform="matrix(1,0,0,1,0,0)" clip-path="url(#clip-6)"/><rect x="480.57" y="122.5" width="19.2" height="5.12" style="fill: rgb(0,191,255);fill-opacity: 1" transform="matrix(1,0,0,1,0,0)" clip-path="url(#clip-6)"/><rect x="754.82" y="111.73" width="19.2" height="10.77" style="fill: rgb(0,191,255);fill-opacity: 1" transform="matrix(1,0,0,1,0,0)" clip-path="url(#clip-6)"/><rect x="1029.07" y="122.5" width="19.2" height="0.48" style="fill: rgb(0,191,255);fill-opacity: 1" transform="matrix(1,0,0,1,0,0)" clip-path="url(#clip-6)"/><rect x="187.12" y="122.5" width="19.2" height="2.98" style="fill: rgb(178,34,34);fill-opacity: 1" transform="matrix(1,0,0,1,0,0)" clip-path="url(#clip-6)"/><rect x="461.38" y="122.5" width="19.2" height="2.3" style="fill: rgb(178,34,34);fill-opacity: 1" transform="matrix(1,0,0,1,0,0)" clip-path="url(#clip-6)"/><rect x="735.62" y="111.62" width="19.2" height="10.88" style="fill: rgb(178,34,34);fill-opacity: 1" transform="matrix(1,0,0,1,0,0)" clip-path="url(#clip-6)"/><rect x="1009.88" y="122.5" width="19.2" height="0.18" style="fill: rgb(178,34,34);fill-opacity: 1" transform="matrix(1,0,0,1,0,0)" clip-path="url(#clip-6)"/><rect x="167.93" y="122.5" width="19.2" height="1.6" style="fill: rgb(255,20,147);fill-opacity: 1" transform="matrix(1,0,0,1,0,0)" clip-path="url(#clip-6)"/><rect x="442.18" y="122.5" width="19.2" height="5.48" style="fill: rgb(255,20,147);fill-opacity: 1" transform="matrix(1,0,0,1,0,0)" clip-path="url(#clip-6)"/><rect x="716.43" y="109.86" width="19.2" height="12.64" style="fill: rgb(255,20,147);fill-opacity: 1" transform="matrix(1,0,0,1,0,0)" clip-path="url(#clip-6)"/><rect x="990.68" y="122.5" width="19.2" height="0.37" style="fill: rgb(255,20,147);fill-opacity: 1" transform="matrix(1,0,0,1,0,0)" clip-path="url(#clip-6)"/><rect x="148.73" y="122.5" width="19.2" height="3.3" style="fill: rgb(255,215,0);fill-opacity: 1" transform="matrix(1,0,0,1,0,0)" clip-path="url(#clip-6)"/><rect x="422.98" y="122.5" width="19.2" height="2.49" style="fill: rgb(255,215,0);fill-opacity: 1" transform="matrix(1,0,0,1,0,0)" clip-path="url(#clip-6)"/><rect x="697.23" y="109.6" width="19.2" height="12.9" style="fill: rgb(255,215,0);fill-opacity: 1" transform="matrix(1,0,0,1,0,0)" clip-path="url(#clip-6)"/><rect x="971.48" y="122.5" width="19.2" height="0.64" style="fill: rgb(255,215,0);fill-opacity: 1" transform="matrix(1,0,0,1,0,0)" clip-path="url(#clip-6)"/><rect x="129.53" y="122.5" width="19.2" height="3.84" style="fill: rgb(0,139,0);fill-opacity: 1" transform="matrix(1,0,0,1,0,0)" clip-path="url(#clip-6)"/><rect x="403.78" y="122.5" width="19.2" height="2.94" style="fill: rgb(0,139,0);fill-opacity: 1" transform="matrix(1,0,0,1,0,0)" clip-path="url(#clip-6)"/><rect x="678.03" y="107.56" width="19.2" height="14.94" style="fill: rgb(0,139,0);fill-opacity: 1" transform="matrix(1,0,0,1,0,0)" clip-path="url(#clip-6)"/><rect x="952.28" y="122.5" width="19.2" height="0.66" style="fill: rgb(0,139,0);fill-opacity: 1" transform="matrix(1,0,0,1,0,0)" clip-path="url(#clip-6)"/><rect x="110.33" y="122.5" width="19.2" height="2.26" style="fill: rgb(0,0,255);fill-opacity: 1" transform="matrix(1,0,0,1,0,0)" clip-path="url(#clip-6)"/><rect x="384.58" y="122.5" width="19.2" height="7.25" style="fill: rgb(0,0,255);fill-opacity: 1" transform="matrix(1,0,0,1,0,0)" clip-path="url(#clip-6)"/><rect x="658.84" y="104.96" width="19.2" height="17.54" style="fill: rgb(0,0,255);fill-opacity: 1" transform="matrix(1,0,0,1,0,0)" clip-path="url(#clip-6)"/><rect x="933.09" y="122.5" width="19.2" height="0.38" style="fill: rgb(0,0,255);fill-opacity: 1" transform="matrix(1,0,0,1,0,0)" clip-path="url(#clip-6)"/><rect x="91.14" y="122.5" width="19.2" height="1.84" style="fill: rgb(255,0,0);fill-opacity: 1" transform="matrix(1,0,0,1,0,0)" clip-path="url(#clip-6)"/><rect x="365.39" y="122.5" width="19.2" height="8.95" style="fill: rgb(255,0,0);fill-opacity: 1" transform="matrix(1,0,0,1,0,0)" clip-path="url(#clip-6)"/><rect x="639.64" y="103.13" width="19.2" height="19.37" style="fill: rgb(255,0,0);fill-opacity: 1" transform="matrix(1,0,0,1,0,0)" clip-path="url(#clip-6)"/><rect x="913.89" y="122.5" width="19.2" height="0.88" style="fill: rgb(255,0,0);fill-opacity: 1" transform="matrix(1,0,0,1,0,0)" clip-path="url(#clip-6)"/><line x1="50" y1="122.28" x2="1147" y2="122.28" style="stroke-width: 0.5;stroke: rgb(255,0,0);stroke-opacity: 1;" transform="matrix(1,0,0,1,0,0)" clip-path="url(#clip-6)"/><rect x="1079" y="108.8" width="65" height="12" style="fill: rgb(100,100,100);fill-opacity: 0.392157" transform="matrix(1,0,0,1,0,0)" clip-path="url(#clip-6)"/><g transform="matrix(1,0,0,1,0,0)"><text x="1079" y="117.15" style="fill: rgb(0,0,0); font-family: sans-serif; font-size: 9px; " text-rendering="auto" clip-path="url(#clip-6)">Banalité : 2.0</text></g><line x1="50" y1="122.72" x2="1147" y2="122.72" style="stroke-width: 0.5;stroke: rgb(255,0,0);stroke-opacity: 1;" transform="matrix(1,0,0,1,0,0)" clip-path="url(#clip-6)"/><rect x="1076" y="109.25" width="68" height="12" style="fill: rgb(100,100,100);fill-opacity: 0.392157" transform="matrix(1,0,0,1,0,0)" clip-path="url(#clip-6)"/><g transform="matrix(1,0,0,1,0,0)"><text x="1076" y="117.6" style="fill: rgb(0,0,0); font-family: sans-serif; font-size: 9px; " text-rendering="auto" clip-path="url(#clip-6)">Banalité : -2.0</text></g></svg>
